<svg width="805" height="69" viewBox="0 0 805 69" fill="none" xmlns="http://www.w3.org/2000/svg">
<g clip-path="url(#clip0_211_2045)">
<path fill-rule="evenodd" clip-rule="evenodd" d="M9.74916 20.1946C13.595 20.1946 16.7128 23.3124 16.7128 27.1583V20.1946H23.6765C27.5224 20.1946 30.6402 23.3124 30.6402 27.1583C30.6402 31.0042 27.5224 34.122 23.6765 34.122C27.5224 34.122 30.6402 37.2398 30.6402 41.0856C30.6402 42.9953 29.8714 44.7254 28.6266 45.9835L28.6006 46.0097L28.5774 46.0327C27.3191 47.2793 25.5877 48.0493 23.6765 48.0493C21.7783 48.0493 20.0574 47.2898 18.8012 46.058C18.7849 46.042 18.7686 46.0259 18.7524 46.0097C18.7372 45.9945 18.722 45.9792 18.7069 45.9638C17.4735 44.7074 16.7128 42.9853 16.7128 41.0856C16.7128 44.9315 13.595 48.0493 9.74916 48.0493C5.90323 48.0493 2.78549 44.9315 2.78549 41.0856V34.122H9.74916C5.90323 34.122 2.78549 31.0042 2.78549 27.1583C2.78549 23.3124 5.90323 20.1946 9.74916 20.1946ZM15.3201 27.1583C15.3201 30.2351 12.8259 32.7292 9.74916 32.7292V21.5874C12.8259 21.5874 15.3201 24.0816 15.3201 27.1583ZM29.2474 41.0856C29.2474 38.0089 26.7532 35.5147 23.6765 35.5147C20.5997 35.5147 18.1056 38.0089 18.1056 41.0856H29.2474ZM4.17822 35.5147V41.0856C4.17822 44.1624 6.67241 46.6566 9.74916 46.6566C12.8259 46.6566 15.3201 44.1624 15.3201 41.0856V35.5147H4.17822ZM18.1056 32.7292V21.5874H23.6765C26.7532 21.5874 29.2474 24.0816 29.2474 27.1583C29.2474 30.2351 26.7532 32.7292 23.6765 32.7292H18.1056Z" fill="#263238"/>
</g>
<g clip-path="url(#clip1_211_2045)">
<path fill-rule="evenodd" clip-rule="evenodd" d="M137.871 27.1315L130.917 34.0153C132.308 35.3923 133.897 36.5527 135.629 37.4605C136.108 38.7179 136.858 39.8971 137.881 40.909C141.727 44.7163 147.962 44.7163 151.808 40.909C152.83 39.8971 153.581 38.7179 154.06 37.4605C155.792 36.5527 157.381 35.3923 158.772 34.0153L151.823 27.1371C151.818 27.1319 151.813 27.1268 151.808 27.1217C147.962 23.3144 141.727 23.3144 137.881 27.1217C137.877 27.1249 137.874 27.1282 137.871 27.1315ZM151.143 38.7025C149.116 39.3795 146.989 39.7262 144.844 39.7262C142.7 39.7262 140.572 39.3795 138.546 38.7025C138.766 38.9909 139.008 39.2676 139.273 39.5303C142.35 42.5761 147.338 42.5761 150.415 39.5303C150.681 39.2676 150.923 38.9909 151.143 38.7025ZM139.416 28.3625C139.939 28.7042 140.494 28.9966 141.076 29.235C142.27 29.725 143.551 29.9771 144.844 29.9771C146.138 29.9771 147.418 29.725 148.613 29.235C149.194 28.9966 149.75 28.7042 150.272 28.3625C147.234 25.5005 142.454 25.5005 139.416 28.3625Z" fill="#3B4158"/>
</g>
<g clip-path="url(#clip2_211_2045)">
<path d="M292.471 31.0001C292.475 30.9711 292.475 30.9417 292.471 30.9127C292.475 30.889 292.475 30.8649 292.471 30.8412L292.187 28.799C292.146 28.5546 292.037 28.3263 291.871 28.1394L291.823 28.0838L291.733 27.9964L286.822 23.8484L286.959 23.9835C286.847 23.8513 286.705 23.7455 286.545 23.674C286.385 23.6025 286.211 23.5671 286.035 23.5703H284.544C284.301 23.5656 284.064 23.6412 283.871 23.7849C283.668 23.6421 283.424 23.5669 283.174 23.5703H281.683C281.487 23.5672 281.294 23.6148 281.123 23.7083C280.953 23.8018 280.81 23.9379 280.71 24.1027C280.556 24.3382 280.498 24.6219 280.548 24.8973L280.734 26.1846C280.611 26.116 280.471 26.0804 280.329 26.0814H273.107C272.848 26.0829 272.595 26.1574 272.378 26.2959C272.168 26.4248 271.999 26.6094 271.891 26.8283L271.332 26.3595C271.112 26.1598 270.821 26.0516 270.522 26.0575H259.19C258.93 26.0622 258.676 26.1334 258.453 26.2641C258.147 26.4394 257.923 26.7244 257.828 27.0587L254.23 38.859C254.162 39.0534 254.156 39.2631 254.211 39.4613C254.266 39.6594 254.379 39.837 254.538 39.9715C254.579 40.0057 254.622 40.0376 254.667 40.0668C254.667 40.0668 254.594 40.0191 254.554 39.9794L259.466 44.1353C259.674 44.3229 259.945 44.4277 260.228 44.4293H271.648C271.909 44.4227 272.163 44.3487 272.386 44.2148C272.512 44.1474 272.624 44.0586 272.718 43.9525L272.759 43.8969L272.823 43.8175L272.872 43.73L273.407 44.183C273.612 44.3631 273.878 44.4622 274.153 44.4611H285.598C285.858 44.4526 286.112 44.3787 286.335 44.2466C286.458 44.1751 286.57 44.0867 286.668 43.9843L286.708 43.9287L286.773 43.8493C286.807 43.799 286.837 43.7458 286.862 43.6903C286.889 43.6421 286.91 43.5916 286.927 43.5393L290.21 32.7642V32.6688C290.214 32.6318 290.214 32.5946 290.21 32.5576V32.4861C290.214 32.4624 290.214 32.4382 290.21 32.4145C290.213 32.3643 290.213 32.3138 290.21 32.2635H291.263C291.355 32.2718 291.447 32.2718 291.539 32.2635H291.612C291.671 32.2462 291.728 32.2222 291.782 32.192H291.863L292.009 32.0808L292.074 32.0331L292.187 31.8901V31.8424L292.268 31.7073C292.264 31.681 292.264 31.6541 292.268 31.6279C292.264 31.615 292.264 31.601 292.268 31.5881C292.286 31.5415 292.299 31.4937 292.309 31.4451C292.305 31.4294 292.305 31.4131 292.309 31.3974C292.305 31.3737 292.305 31.3496 292.309 31.3259C292.309 31.3259 292.471 31.016 292.471 31.0001Z" fill="black"/>
<path d="M270.854 26.9637C270.897 27.0018 270.927 27.052 270.94 27.1074C270.953 27.1628 270.948 27.2208 270.927 27.2736L267.336 39.0659C267.291 39.1946 267.198 39.3022 267.077 39.3678C266.978 39.4328 266.863 39.4711 266.744 39.4791H255.332C255.235 39.4745 255.142 39.4349 255.073 39.3678C255.031 39.3303 255.002 39.2815 254.989 39.2278C254.976 39.174 254.98 39.1176 255 39.0659L258.598 27.2736C258.64 27.1432 258.73 27.0327 258.85 26.9637C258.95 26.9034 259.064 26.868 259.182 26.8604H270.594C270.691 26.8613 270.784 26.8982 270.854 26.9637ZM264.896 36.6899L267.044 29.6495H261.03L258.89 36.6899H264.896ZM281.748 27.0829C281.786 27.1272 281.835 27.1624 281.89 27.1858C281.945 27.2092 282.004 27.2202 282.064 27.2179H283.547C283.603 27.2185 283.659 27.2049 283.709 27.1785C283.758 27.1521 283.8 27.1137 283.831 27.067C283.857 27.0305 283.876 26.9891 283.885 26.9455C283.895 26.9018 283.896 26.8566 283.887 26.8127L283.596 24.7149C283.568 24.6178 283.518 24.5281 283.45 24.4526C283.411 24.4083 283.362 24.3731 283.307 24.3497C283.253 24.3263 283.193 24.3153 283.134 24.3175H281.65C281.594 24.317 281.538 24.3306 281.488 24.357C281.439 24.3834 281.397 24.4218 281.367 24.4685C281.31 24.5798 281.286 24.6513 281.31 24.7149L281.61 26.8127C281.625 26.9148 281.673 27.0095 281.748 27.0829ZM286.457 24.699C286.429 24.6019 286.379 24.5122 286.311 24.4367C286.274 24.3925 286.226 24.3574 286.173 24.3339C286.12 24.3105 286.061 24.2995 286.003 24.3017H284.511C284.456 24.3001 284.401 24.3133 284.352 24.3399C284.304 24.3665 284.264 24.4054 284.236 24.4526C284.182 24.5231 284.159 24.6117 284.171 24.699L284.471 26.7968C284.49 26.8979 284.538 26.9916 284.609 27.067C284.648 27.1105 284.697 27.145 284.752 27.1684C284.806 27.1917 284.865 27.2032 284.925 27.202H286.416C286.472 27.2028 286.526 27.1892 286.575 27.1627C286.623 27.1362 286.663 27.0977 286.692 27.0511C286.72 27.0155 286.74 26.9742 286.75 26.9302C286.759 26.8862 286.759 26.8406 286.749 26.7968L286.457 24.699ZM280.443 27.8775L280.297 26.8445H273.107C272.994 26.8506 272.885 26.8862 272.791 26.9478C272.731 26.9797 272.679 27.0239 272.639 27.0774C272.598 27.1309 272.57 27.1924 272.556 27.2577L271.956 29.2283C271.932 29.2776 271.924 29.3328 271.933 29.3867C271.941 29.4406 271.967 29.4907 272.005 29.5303C272.073 29.5933 272.162 29.63 272.256 29.6336H280.994L278.846 36.674H270.132C270.02 36.6765 269.911 36.7096 269.816 36.7694C269.702 36.8408 269.618 36.9511 269.581 37.0793L268.973 39.05C268.954 39.1005 268.948 39.1555 268.958 39.2087C268.968 39.2621 268.993 39.3116 269.03 39.3519C269.096 39.4191 269.186 39.4589 269.281 39.4631H280.726C280.845 39.4532 280.959 39.415 281.059 39.3519C281.178 39.286 281.268 39.1781 281.31 39.05L284.601 28.2748H280.896C280.838 28.2759 280.779 28.2652 280.725 28.2434C280.671 28.2215 280.621 28.1889 280.58 28.1476C280.513 28.0756 280.466 27.9881 280.443 27.8934V27.8775Z" fill="white"/>
</g>
<g clip-path="url(#clip3_211_2045)">
<path d="M415.728 26.7483C415.728 26.7719 415.728 26.8013 415.722 26.819C415.692 27.0486 415.692 27.2781 415.71 27.5136C415.722 27.5725 415.734 27.6314 415.784 27.6784C415.863 27.7667 415.986 27.7491 416.035 27.6431C416.06 27.5901 416.06 27.5372 416.047 27.4842C415.986 27.2605 415.974 27.025 415.968 26.7954C415.968 26.7837 415.968 26.766 415.968 26.7483C416.035 26.7425 416.096 26.7366 416.152 26.7366C416.195 26.7307 416.231 26.7248 416.262 26.7071C416.354 26.66 416.354 26.56 416.256 26.5129C416.219 26.4952 416.17 26.4893 416.127 26.4893C415.974 26.4952 415.82 26.4952 415.667 26.4952C415.612 26.4952 415.557 26.5011 415.501 26.507C415.471 26.5129 415.434 26.5129 415.409 26.5305C415.366 26.5482 415.342 26.5776 415.342 26.6188C415.348 26.66 415.366 26.6836 415.409 26.7013C415.434 26.7189 415.465 26.7248 415.495 26.7248C415.569 26.7307 415.649 26.7425 415.728 26.7483ZM417.415 27.0191C417.415 27.025 417.421 27.0309 417.421 27.0309C417.446 27.1898 417.47 27.3429 417.489 27.496C417.495 27.5489 417.501 27.596 417.538 27.6372C417.617 27.7373 417.74 27.7255 417.795 27.6196C417.82 27.5666 417.826 27.5136 417.814 27.4547C417.777 27.2781 417.759 27.1015 417.722 26.9308C417.697 26.8249 417.667 26.7248 417.636 26.6306C417.617 26.5717 417.575 26.5305 417.501 26.5246C417.427 26.5129 417.372 26.5482 417.341 26.6012C417.305 26.6483 417.274 26.6954 417.249 26.7483C417.207 26.8425 417.17 26.9367 417.121 27.025C417.114 27.0486 417.108 27.0662 417.096 27.0839C417.09 27.0721 417.084 27.0662 417.084 27.0662C417.004 26.9191 416.93 26.7719 416.851 26.6306C416.838 26.6188 416.832 26.6071 416.826 26.5953C416.789 26.5423 416.747 26.5129 416.679 26.5129C416.618 26.5188 416.569 26.5541 416.538 26.6071C416.526 26.6306 416.526 26.6483 416.52 26.6718C416.495 26.8602 416.464 27.0486 416.44 27.2369C416.428 27.3429 416.421 27.4489 416.421 27.5548C416.415 27.5784 416.421 27.6078 416.434 27.6314C416.446 27.6784 416.483 27.7079 416.532 27.7138C416.593 27.7197 416.636 27.702 416.654 27.6549C416.673 27.6196 416.679 27.5901 416.685 27.5607C416.71 27.4547 416.728 27.3547 416.747 27.2546C416.759 27.1957 416.765 27.1486 416.783 27.0839C416.796 27.1074 416.808 27.1251 416.82 27.1428C416.875 27.2134 416.931 27.284 416.998 27.3429C417.065 27.39 417.121 27.3841 417.176 27.3311C417.188 27.3194 417.194 27.3135 417.207 27.3017C417.262 27.2193 417.329 27.1369 417.384 27.0545C417.397 27.0427 417.403 27.0309 417.415 27.0191Z" fill="#3A3B7B"/>
<path d="M403.283 26.8641C403.24 26.9759 403.232 27.0565 403.252 27.1235C403.273 27.2146 403.33 27.2444 403.407 27.2213C404.127 27.0503 405.707 27.5356 406.292 27.6709C406.429 27.6993 406.542 27.5284 406.448 27.3752C406.31 27.2268 404.731 26.5915 404.129 26.5568C403.893 26.544 403.47 26.4859 403.283 26.8641Z" fill="#3A3B7B"/>
<path d="M409.457 24.8078C409.534 24.8503 409.576 24.8909 409.598 24.9362C409.629 24.9957 409.613 25.0368 409.56 25.0578C409.083 25.2809 408.45 26.2413 408.194 26.5725C408.132 26.6487 407.989 26.6044 407.967 26.4791C407.972 26.3374 408.533 25.2952 408.847 25.0114C408.97 24.9005 409.174 24.6831 409.457 24.8078Z" fill="#3A3B7B"/>
<path d="M405.664 24.335C405.757 24.2682 405.852 24.2449 405.901 24.2882C406.62 24.878 407.001 25.8119 407.237 26.6669C407.246 26.6868 407.246 26.7154 407.239 26.7452C407.236 26.7707 407.217 26.7976 407.186 26.8184C407.153 26.8414 407.125 26.8484 407.111 26.8286C406.797 26.4175 404.998 24.8181 405.664 24.335Z" fill="#3A3B7B"/>
<path d="M390.449 34.5599C390.622 34.4369 390.809 34.3345 391.007 34.255C391.214 34.1981 391.435 34.2075 391.636 34.2819C391.837 34.3562 392.008 34.4914 392.122 34.667C392.224 34.8421 392.264 35.0443 392.236 35.2432C392.207 35.4419 392.113 35.6266 391.966 35.7693C391.852 35.8849 391.722 35.9857 391.581 36.0689C390.951 36.4596 390.316 36.8288 389.68 37.2194C389.55 37.3172 389.412 37.4049 389.267 37.4816C389.048 37.5868 388.796 37.615 388.557 37.5613C388.318 37.5076 388.106 37.3753 387.957 37.1873C387.846 37.0542 387.753 36.9087 387.678 36.7539C387.076 35.5392 386.452 34.3299 385.872 33.0938C385.604 32.5587 385.387 31.9433 385.175 31.3494C385.084 31.1768 385.066 30.9767 385.125 30.7917C385.185 30.6066 385.318 30.4512 385.495 30.3585C385.672 30.2658 385.88 30.2431 386.074 30.2953C386.269 30.3474 386.434 30.4703 386.536 30.6377C386.847 31.0354 387.123 31.4579 387.361 31.9005C387.963 32.9707 388.537 34.0409 389.117 35.079C389.151 35.1364 389.188 35.1917 389.228 35.2449C389.665 35.0688 390.075 34.8385 390.449 34.5599Z" fill="#3A3B7B"/>
<path d="M396.675 34.1866C395.298 35.733 392.99 35.3424 391.83 33.3518C391.005 31.9392 390.86 29.6061 392.655 28.1346C393.039 27.8265 393.497 27.6167 393.988 27.5246C394.589 27.4418 395.203 27.5437 395.741 27.8157C396.278 28.0876 396.713 28.5158 396.982 29.0389C397.963 30.7512 397.823 32.9344 396.675 34.1866ZM396.117 30.58C395.971 30.1592 395.678 29.8 395.287 29.5633C395.065 29.412 394.797 29.3384 394.526 29.355C394.254 29.3715 393.998 29.4772 393.798 29.6543C393.001 30.3339 392.834 31.9445 393.413 32.9023C393.487 33.0585 393.596 33.1973 393.731 33.309C393.867 33.4208 394.027 33.5027 394.199 33.549C394.371 33.5954 394.551 33.6052 394.728 33.5776C394.904 33.55 395.072 33.4857 395.22 33.3893C395.652 33.0677 395.969 32.6249 396.127 32.1224C396.285 31.6198 396.276 31.0826 396.101 30.5854L396.117 30.58Z" fill="#3A3B7B"/>
<path d="M402.295 31.2539C402.154 31.283 402.008 31.2848 401.866 31.259C401.725 31.2333 401.59 31.1806 401.47 31.1041C401.365 31.0464 401.274 30.967 401.205 30.8717C401.135 30.7764 401.089 30.6675 401.069 30.5528C401.048 30.4382 401.055 30.3207 401.087 30.2088C401.12 30.0969 401.178 29.9933 401.258 29.9055C401.396 29.729 401.593 29.6027 401.815 29.547C402.397 29.385 402.995 29.2863 403.599 29.2527C403.732 29.2379 403.867 29.2486 403.995 29.2844C404.123 29.3202 404.243 29.3802 404.347 29.461C404.451 29.5417 404.537 29.6416 404.6 29.7546C404.663 29.8677 404.702 29.9918 404.714 30.1195C404.889 30.7469 404.908 31.4048 404.77 32.0405C404.268 34.0953 402.54 34.8016 400.6 34.1434C400.055 33.9675 399.578 33.6396 399.228 33.2017C398.762 32.6743 398.432 32.0494 398.264 31.377C398.128 30.7783 398.143 30.157 398.307 29.565C398.472 28.973 398.782 28.4274 399.212 27.9738C399.619 27.4808 400.148 27.0928 400.75 26.8447C401.131 26.6433 401.577 26.586 401.999 26.6842C402.095 26.7097 402.182 26.7593 402.251 26.8279C402.32 26.8965 402.369 26.9816 402.393 27.0745C402.416 27.1673 402.413 27.2644 402.384 27.3557C402.355 27.447 402.301 27.5293 402.228 27.5939C402.089 27.7148 401.937 27.8224 401.776 27.9149C401.281 28.2179 400.849 28.6082 400.505 29.0654C400.28 29.3612 400.124 29.7009 400.05 30.0605C399.976 30.4201 399.985 30.7909 400.076 31.1469C400.202 31.6323 400.483 32.068 400.879 32.3937C402.105 33.4639 403.7 32.4311 403.421 30.9703C403.014 31.0667 402.657 31.1683 402.295 31.2539Z" fill="#3A3B7B"/>
<path d="M409.788 34.2718C407.976 35.3421 405.913 34.2718 405.462 32.0244C405.133 30.4192 405.757 28.1717 407.943 27.3156C408.408 27.1373 408.912 27.0748 409.409 27.1336C410.006 27.2385 410.554 27.5206 410.975 27.9402C411.396 28.3597 411.669 28.8955 411.756 29.472C412.124 31.3823 411.288 33.421 409.788 34.2718ZM410.418 30.6706C410.417 30.2261 410.254 29.796 409.955 29.456C409.796 29.2457 409.565 29.095 409.303 29.0296C409.041 28.9642 408.763 28.9882 408.517 29.0975C407.536 29.5041 406.844 30.981 407.095 32.0673C407.114 32.2377 407.172 32.4021 407.264 32.549C407.356 32.6958 407.481 32.8215 407.629 32.9173C407.777 33.0131 407.946 33.0767 408.122 33.1037C408.298 33.1306 408.479 33.1202 408.651 33.0732C409.169 32.8993 409.618 32.5743 409.935 32.1436C410.252 31.7129 410.421 31.1979 410.418 30.6706Z" fill="#3A3B7B"/>
<path d="M413.588 34.7217C413.561 34.9175 413.454 35.0949 413.29 35.2148C413.126 35.3347 412.92 35.3874 412.716 35.3611C412.512 35.3349 412.327 35.2319 412.202 35.0748C412.077 34.9178 412.022 34.7195 412.05 34.5237C412.077 34.3278 412.184 34.1504 412.348 34.0305C412.511 33.9106 412.718 33.858 412.922 33.8842C413.126 33.9105 413.311 34.0134 413.436 34.1705C413.561 34.3276 413.616 34.5258 413.588 34.7217ZM413.103 27.5032C413.209 27.3478 413.365 27.2294 413.547 27.1657C413.729 27.1021 413.927 27.0966 414.112 27.15C414.301 27.1953 414.467 27.3013 414.584 27.4503C414.701 27.5994 414.761 27.7824 414.754 27.9687C414.729 28.2676 414.682 28.5644 414.614 28.857C414.43 29.8469 414.252 30.8368 414.057 31.8161C413.967 32.2067 413.85 32.5813 413.722 32.9772C413.678 33.101 413.603 33.2129 413.505 33.3036C413.444 33.3719 413.366 33.4243 413.278 33.4559C413.19 33.4876 413.095 33.4975 413.002 33.4847C412.91 33.4719 412.822 33.4368 412.747 33.3827C412.672 33.3286 412.612 33.2572 412.574 33.1752C412.507 33.0281 412.471 32.87 412.468 32.7097C412.468 32.0462 412.468 31.3773 412.512 30.7084C412.588 29.7538 412.737 28.8059 412.958 27.8724C412.984 27.7473 413.033 27.6277 413.103 27.5192V27.5032Z" fill="#3A3B7B"/>
<path fill-rule="evenodd" clip-rule="evenodd" d="M388.094 39.0215C388.028 39.1625 388.01 39.3197 388.042 39.4711C388.064 39.6705 388.111 39.8667 388.182 40.0552C388.271 40.286 388.371 40.5142 388.495 40.7954C388.523 40.8601 388.553 40.9277 388.584 40.9988C388.75 41.3798 388.958 41.8668 389.236 42.5715C389.315 42.7717 389.385 42.9736 389.455 43.1768C389.484 43.2589 389.512 43.3413 389.542 43.4239C389.646 43.7174 389.826 43.9812 390.065 44.1902C390.167 44.3051 390.301 44.3888 390.452 44.4306C390.606 44.4733 390.769 44.4706 390.922 44.4229C391.074 44.3751 391.207 44.2845 391.305 44.1628C391.401 44.0435 391.458 43.8998 391.469 43.7496C391.531 43.4571 391.51 43.1537 391.407 42.8717C391.245 42.4034 391.059 41.9344 390.846 41.4757L390.845 41.4737C390.493 40.7561 390.136 40.0434 389.762 39.3304L389.759 39.3254C389.649 39.1397 389.507 38.9736 389.338 38.8347C389.229 38.7108 389.078 38.6272 388.911 38.5983C388.74 38.5689 388.564 38.5986 388.415 38.682C388.273 38.7597 388.161 38.8785 388.094 39.0215Z" fill="#3A3B7B"/>
<path fill-rule="evenodd" clip-rule="evenodd" d="M393.463 37.2545C392.911 37.1175 392.336 37.0975 391.776 37.196C391.342 37.237 390.916 37.333 390.619 37.5232C390.469 37.62 390.347 37.7443 390.279 37.9023C390.211 38.0611 390.202 38.2428 390.258 38.4452C390.36 38.8159 390.493 39.1764 390.624 39.5357L390.646 39.5939L390.646 39.5952C391.044 40.6391 391.444 41.6795 391.849 42.7162C391.896 42.8796 391.963 43.0372 392.048 43.1859L392.049 43.1886C392.162 43.3733 392.305 43.5385 392.475 43.6773C392.56 43.7535 392.665 43.8063 392.778 43.8299C392.893 43.8537 393.012 43.8468 393.123 43.8099C393.234 43.773 393.333 43.7076 393.407 43.6208C393.481 43.5354 393.529 43.4325 393.547 43.323C393.62 43.0255 393.597 42.7136 393.48 42.4292C393.443 42.3335 393.415 42.2357 393.385 42.1328C393.375 42.0984 393.364 42.0635 393.354 42.0279C394.28 41.6805 395.265 41.2133 395.612 40.1265C395.747 39.7509 395.759 39.3442 395.644 38.9622C395.529 38.5797 395.294 38.2407 394.97 37.9919C394.53 37.6435 394.015 37.3918 393.463 37.2545ZM391.935 38.5876C391.953 38.5825 391.972 38.5778 391.99 38.5735C392.593 38.4825 393.21 38.6037 393.727 38.9147C393.955 39.0669 394.048 39.2359 394.064 39.3986C394.081 39.566 394.017 39.7475 393.89 39.922C393.649 40.2515 393.21 40.5153 392.813 40.5644C392.523 39.9247 392.229 39.2591 391.935 38.5876Z" fill="#3A3B7B"/>
<path d="M397.137 36.0836C397.794 35.7927 398.607 35.7424 399.243 35.947C399.403 35.9918 399.542 36.0887 399.636 36.2211C399.729 36.3527 399.773 36.5112 399.758 36.6698C399.757 36.7727 399.731 36.8739 399.681 36.9653C399.631 37.0582 399.558 37.1382 399.469 37.1984C399.379 37.2586 399.276 37.2973 399.168 37.3111C399.059 37.325 398.949 37.3136 398.847 37.2779L398.839 37.2752L398.832 37.2715C398.779 37.2451 398.723 37.2252 398.665 37.2123L398.662 37.2115C398.214 37.0974 397.792 37.2864 397.638 37.5187C397.564 37.6295 397.555 37.7413 397.616 37.843C397.682 37.9519 397.843 38.0741 398.168 38.1612C398.258 38.1848 398.35 38.2076 398.443 38.2307C398.7 38.2947 398.968 38.3612 399.227 38.4533L399.228 38.4536C400.421 38.8895 400.865 39.7921 400.713 40.6411C400.563 41.4807 399.832 42.2448 398.734 42.4251C398.334 42.5101 397.918 42.4935 397.527 42.377C397.135 42.2601 396.781 42.0468 396.502 41.7582L396.494 41.7507C396.406 41.642 396.347 41.5142 396.32 41.3787C396.296 41.2564 396.309 41.13 396.357 41.0144C396.405 40.8994 396.486 40.8 396.59 40.7275C396.701 40.6454 396.834 40.5961 396.973 40.5858C397.112 40.5756 397.251 40.6045 397.373 40.669C397.494 40.7255 397.608 40.7975 397.709 40.8832L397.711 40.8847C397.891 41.0426 398.109 41.0837 398.317 41.0456C398.529 41.0069 398.728 40.8867 398.856 40.7272C398.983 40.5688 399.034 40.3805 398.974 40.1977C398.913 40.0136 398.729 39.8074 398.326 39.6349C398.221 39.592 398.112 39.5574 397.998 39.5237C397.968 39.5146 397.937 39.5056 397.905 39.4964C397.821 39.472 397.735 39.4468 397.65 39.419C397.592 39.3999 397.534 39.3818 397.477 39.3639C397.32 39.3149 397.167 39.2672 397.02 39.2031C396.7 39.0986 396.424 38.8978 396.232 38.6306C396.039 38.3623 395.943 38.0414 395.956 37.7159C395.957 36.9227 396.477 36.3762 397.137 36.0836Z" fill="#3A3B7B"/>
<path d="M405.459 35.9988C405.331 35.9392 405.19 35.9108 405.049 35.9164C404.907 35.922 404.77 35.9613 404.648 36.0308C404.527 36.0998 404.426 36.1965 404.353 36.3122C404.287 36.4096 404.241 36.5186 404.218 36.633C404.195 36.7474 404.195 36.8649 404.219 36.9789C404.243 37.1255 404.269 37.2681 404.295 37.4086C404.338 37.6413 404.38 37.8687 404.407 38.1006L404.409 38.1065C404.471 38.4701 404.504 38.8379 404.507 39.2064L404.507 39.2117C404.529 39.6097 404.388 39.9999 404.114 40.2996L404.109 40.305C404.02 40.4145 403.901 40.4981 403.765 40.5465C403.63 40.5948 403.483 40.6059 403.341 40.5786C403.199 40.5512 403.067 40.4865 402.961 40.3916C402.856 40.2967 402.779 40.1751 402.741 40.0411C402.66 39.7585 402.613 39.4678 402.601 39.1749L402.74 37.0516C402.742 37.0238 402.744 36.9954 402.747 36.9667C402.752 36.9022 402.757 36.8365 402.759 36.7752C402.763 36.6851 402.76 36.5924 402.738 36.5046C402.716 36.4149 402.673 36.3296 402.598 36.257C402.523 36.185 402.422 36.132 402.295 36.0959C402.065 36.032 401.87 36.034 401.709 36.1C401.547 36.1659 401.436 36.2884 401.357 36.4298C401.279 36.5701 401.229 36.7362 401.191 36.9025C401.163 37.0259 401.14 37.1555 401.119 37.2788C401.112 37.3213 401.104 37.363 401.097 37.4035L401.097 37.4047C400.982 38.0811 400.948 38.7678 400.995 39.4516C401.004 39.8211 401.084 40.1858 401.232 40.5272C401.398 40.9676 401.7 41.3492 402.098 41.6216C402.496 41.8945 402.971 42.0449 403.46 42.0529C403.949 42.0608 404.429 41.9259 404.837 41.6661C405.244 41.4066 405.559 41.0348 405.741 40.5997C405.996 40.0455 406.115 39.4428 406.091 38.8375C406.076 38.3956 406.051 37.9503 406.026 37.5073C406.013 37.29 406.001 37.0731 405.99 36.8576C405.985 36.6414 405.911 36.4321 405.777 36.2576C405.695 36.1473 405.586 36.0584 405.459 35.9988Z" fill="#3A3B7B"/>
<path d="M409.963 39.3285C409.95 39.3442 409.937 39.3605 409.922 39.3774C409.819 38.8043 409.723 38.2313 409.627 37.6574C409.592 37.4515 409.558 37.2448 409.523 37.0386L409.519 37.0156L409.506 36.9957C409.482 36.9583 409.48 36.9217 409.48 36.8435V36.8344L409.478 36.8255C409.452 36.664 409.376 36.5136 409.26 36.3942C409.144 36.2751 408.993 36.1922 408.828 36.1562C408.662 36.1171 408.489 36.1257 408.328 36.1811C408.168 36.2363 408.029 36.3355 407.928 36.4663C407.843 36.5667 407.774 36.678 407.722 36.797C407.605 37.0533 407.486 37.3102 407.367 37.5678L407.365 37.5723C407.068 38.2155 406.769 38.8629 406.479 39.5155L406.478 39.5176C406.3 39.9407 406.153 40.3866 406.006 40.831C405.977 40.9197 405.948 41.0084 405.918 41.0969C405.865 41.2371 405.842 41.3861 405.85 41.535C405.84 41.6684 405.874 41.8014 405.945 41.9161C406.018 42.0331 406.128 42.1252 406.258 42.1794C406.397 42.2376 406.551 42.2499 406.698 42.2145C406.844 42.1791 406.974 42.0981 407.067 41.9843C407.186 41.8441 407.288 41.6912 407.371 41.5292C407.617 41.0464 407.852 40.5578 408.086 40.0713C408.176 39.8831 408.264 39.7146 408.364 39.531C408.371 39.5537 408.378 39.5757 408.386 39.5979C408.49 40.041 408.667 40.4655 408.91 40.8557C408.956 40.9383 409.02 41.0106 409.097 41.0674C409.176 41.125 409.267 41.1654 409.363 41.1859C409.46 41.2064 409.56 41.2065 409.656 41.1862C409.752 41.1659 409.843 41.1255 409.922 41.0682L410.078 40.9564L411.285 39.9803L411.214 40.417C411.116 41.0173 411.018 41.6126 410.915 42.208C410.847 42.4719 410.847 42.7476 410.915 43.0114C410.945 43.1599 411.019 43.2966 411.13 43.4041C411.242 43.5124 411.385 43.586 411.541 43.6154C411.696 43.6447 411.858 43.6285 412.004 43.5687C412.148 43.5098 412.27 43.4113 412.356 43.2858C412.555 43.0487 412.679 42.7617 412.713 42.4589C412.764 42.0314 412.822 41.598 412.88 41.1647C412.946 40.6653 413.013 40.166 413.07 39.6764L413.07 39.6748C413.124 39.1388 413.15 38.6006 413.148 38.062C413.16 37.8918 413.116 37.7223 413.022 37.5774C412.928 37.432 412.788 37.3189 412.623 37.2543C412.451 37.1793 412.258 37.1592 412.074 37.1971C411.89 37.2348 411.724 37.3276 411.6 37.462C411.377 37.6597 411.168 37.8712 410.974 38.0953L410.973 38.0968C410.761 38.3498 410.551 38.6078 410.342 38.8641C410.216 39.0199 410.089 39.1754 409.963 39.3285Z" fill="#3A3B7B"/>
</g>
<g clip-path="url(#clip4_211_2045)">
<path d="M542.078 25.5504C542.078 25.8749 542.344 26.1379 542.673 26.1379H543.267C543.596 26.1379 543.862 25.8749 543.862 25.5504C543.862 25.2259 543.596 24.9628 543.267 24.9628H542.673C542.344 24.9628 542.078 25.2259 542.078 25.5504Z" fill="#212326"/>
<path d="M524.828 43.7647H527.718L526.877 42.9337C526.653 42.7134 526.351 42.5896 526.035 42.5896H524.828C520.229 42.5896 516.501 38.9068 516.501 34.3637C516.501 29.8207 520.229 26.1379 524.828 26.1379H534.345C538.944 26.1379 542.673 29.8207 542.673 34.3637C542.673 38.9068 538.944 42.5896 534.345 42.5896H530.785C530.312 42.5896 529.858 42.4039 529.523 42.0733L528.538 41.0998C527.98 40.5489 527.224 40.2393 526.435 40.2393H524.828C521.543 40.2393 518.88 37.6088 518.88 34.3637C518.88 31.1187 521.543 28.4882 524.828 28.4882H534.345C537.63 28.4882 540.293 31.1187 540.293 34.3637C540.293 37.6088 537.63 40.2393 534.345 40.2393H532.059C531.586 40.2393 531.132 40.0536 530.798 39.7231L529.812 38.7496C529.254 38.1986 528.498 37.8891 527.709 37.8891H524.828C522.857 37.8891 521.259 36.3107 521.259 34.3637C521.259 32.4168 522.857 30.8384 524.828 30.8384H534.345C536.316 30.8384 537.914 32.4168 537.914 34.3637C537.914 36.287 536.355 37.8506 534.417 37.8884L534.417 37.8891H533.546C533.073 37.8891 532.619 37.7034 532.285 37.3728L531.299 36.3993C530.841 35.9472 530.25 35.6577 529.617 35.5684L529.587 35.5389H524.828C524.171 35.5389 523.639 35.0127 523.639 34.3637C523.639 33.7147 524.171 33.1886 524.828 33.1886H534.345C535.002 33.1886 535.535 33.7147 535.535 34.3637C535.535 35.0127 535.002 35.5389 534.345 35.5389H531.966L532.807 36.3698C533.03 36.5902 533.333 36.714 533.648 36.714H534.345C535.659 36.714 536.725 35.6617 536.725 34.3637C536.725 33.0658 535.659 32.0135 534.345 32.0135H524.828C523.514 32.0135 522.449 33.0658 522.449 34.3637C522.449 35.6617 523.514 36.714 524.828 36.714H529.196C529.669 36.714 530.123 36.8997 530.458 37.2302L531.443 38.2037C532.001 38.7547 532.758 39.0642 533.546 39.0642H534.643V39.0552C537.132 38.9036 539.104 36.8611 539.104 34.3637C539.104 31.7678 536.973 29.6633 534.345 29.6633H524.828C522.2 29.6633 520.07 31.7678 520.07 34.3637C520.07 36.9598 522.2 39.0642 524.828 39.0642H527.709C528.182 39.0642 528.636 39.2499 528.971 39.5805L529.956 40.554C530.514 41.1049 531.271 41.4145 532.059 41.4145H534.345C538.287 41.4145 541.483 38.2578 541.483 34.3637C541.483 30.4697 538.287 27.313 534.345 27.313H524.828C520.886 27.313 517.69 30.4697 517.69 34.3637C517.69 38.2578 520.886 41.4145 524.828 41.4145H526.435C526.908 41.4145 527.362 41.6002 527.697 41.9307L528.682 42.9042C529.24 43.4552 529.996 43.7647 530.785 43.7647H534.345C539.601 43.7647 543.862 39.5557 543.862 34.3637C543.862 29.1717 539.601 24.9628 534.345 24.9628L524.828 24.9628C519.572 24.9628 515.311 29.1717 515.311 34.3637C515.311 39.5557 519.572 43.7647 524.828 43.7647Z" fill="#212326"/>
</g>
<g clip-path="url(#clip5_211_2045)">
<path d="M647.86 27.0516C646.446 27.0516 645.09 27.6133 644.09 28.6133L640.826 31.8767C639.826 32.8766 639.265 34.2328 639.265 35.6469C639.265 38.5917 641.652 40.9789 644.596 40.9789C646.011 40.9789 647.367 40.4171 648.367 39.4172L650.624 37.1599C650.624 37.1598 650.624 37.1599 650.624 37.1599L657.201 30.5829C657.679 30.1053 658.326 29.837 659.002 29.837C660.132 29.837 661.091 30.574 661.423 31.5938L663.499 29.5181C662.552 28.035 660.892 27.0516 659.002 27.0516C657.588 27.0516 656.231 27.6133 655.231 28.6133L646.397 37.4476C645.92 37.9252 645.272 38.1934 644.596 38.1934C643.19 38.1934 642.05 37.0534 642.05 35.6469C642.05 34.9715 642.318 34.3238 642.796 33.8463L646.059 30.5829C646.537 30.1053 647.184 29.837 647.86 29.837C648.991 29.837 649.949 30.574 650.282 31.5938L652.357 29.5181C651.41 28.035 649.75 27.0516 647.86 27.0516Z" fill="#394149"/>
<path d="M657.539 37.4476C657.062 37.9252 656.414 38.1934 655.738 38.1934C654.608 38.1934 653.649 37.4567 653.317 36.4371L651.241 38.5127C652.188 39.9956 653.849 40.9789 655.738 40.9789C657.153 40.9789 658.509 40.4171 659.509 39.4172L668.343 30.5829C668.821 30.1053 669.468 29.837 670.144 29.837C671.55 29.837 672.69 30.9772 672.69 32.3836C672.69 33.0589 672.422 33.7067 671.944 34.1842L668.681 37.4476C668.203 37.9252 667.556 38.1934 666.88 38.1934C665.75 38.1934 664.791 37.4565 664.459 36.4368L662.383 38.5125C663.33 39.9955 664.99 40.9789 666.88 40.9789C668.294 40.9789 669.651 40.4171 670.651 39.4172L673.914 36.1538C674.914 35.1539 675.476 33.7977 675.476 32.3836C675.476 29.4388 673.088 27.0516 670.144 27.0516C668.73 27.0516 667.373 27.6133 666.373 28.6133L657.539 37.4476Z" fill="#394149"/>
</g>
<g clip-path="url(#clip6_211_2045)">
<path d="M804.997 31.0001C805.001 30.9711 805.001 30.9417 804.997 30.9127C805.001 30.889 805.001 30.8649 804.997 30.8412L804.713 28.799C804.672 28.5546 804.563 28.3263 804.397 28.1394L804.348 28.0838L804.259 27.9964L799.347 23.8484L799.485 23.9835C799.372 23.8513 799.231 23.7455 799.071 23.674C798.911 23.6025 798.737 23.5671 798.561 23.5703H797.07C796.827 23.5656 796.59 23.6412 796.397 23.7849C796.194 23.6421 795.95 23.5669 795.7 23.5703H794.209C794.013 23.5672 793.82 23.6148 793.649 23.7083C793.478 23.8018 793.336 23.9379 793.236 24.1027C793.082 24.3382 793.024 24.6219 793.074 24.8973L793.26 26.1846C793.137 26.116 792.997 26.0804 792.855 26.0814H785.633C785.374 26.0829 785.121 26.1574 784.904 26.2959C784.693 26.4248 784.525 26.6094 784.417 26.8283L783.858 26.3595C783.638 26.1598 783.347 26.0516 783.047 26.0575H771.716C771.456 26.0622 771.202 26.1334 770.978 26.2641C770.673 26.4394 770.449 26.7244 770.354 27.0587L766.756 38.859C766.688 39.0534 766.682 39.2631 766.737 39.4613C766.791 39.6594 766.905 39.837 767.064 39.9715C767.105 40.0057 767.148 40.0376 767.193 40.0668C767.193 40.0668 767.12 40.0191 767.08 39.9794L771.992 44.1353C772.199 44.3229 772.471 44.4277 772.753 44.4293H784.174C784.435 44.4227 784.689 44.3487 784.912 44.2148C785.037 44.1474 785.15 44.0586 785.244 43.9525L785.285 43.8969L785.349 43.8175L785.398 43.73L785.933 44.183C786.138 44.3631 786.404 44.4622 786.679 44.4611H798.123C798.384 44.4526 798.638 44.3787 798.861 44.2466C798.984 44.1751 799.096 44.0867 799.193 43.9843L799.234 43.9287L799.299 43.8493C799.333 43.799 799.363 43.7458 799.388 43.6903C799.414 43.6421 799.436 43.5916 799.453 43.5393L802.735 32.7642V32.6688C802.739 32.6318 802.739 32.5946 802.735 32.5576V32.4861C802.739 32.4624 802.739 32.4382 802.735 32.4145C802.739 32.3643 802.739 32.3138 802.735 32.2635H803.789C803.881 32.2718 803.973 32.2718 804.065 32.2635H804.138C804.197 32.2462 804.254 32.2222 804.308 32.192H804.389L804.535 32.0808L804.6 32.0331L804.713 31.8901V31.8424L804.794 31.7073C804.79 31.681 804.79 31.6541 804.794 31.6279C804.79 31.615 804.79 31.601 804.794 31.5881C804.811 31.5415 804.825 31.4937 804.835 31.4451C804.831 31.4294 804.831 31.4131 804.835 31.3974C804.831 31.3737 804.831 31.3496 804.835 31.3259C804.835 31.3259 804.997 31.016 804.997 31.0001Z" fill="black"/>
<path d="M783.38 26.9637C783.423 27.0018 783.453 27.052 783.466 27.1074C783.479 27.1628 783.474 27.2208 783.453 27.2736L779.862 39.0659C779.817 39.1946 779.724 39.3022 779.603 39.3678C779.504 39.4328 779.389 39.4711 779.27 39.4791H767.858C767.76 39.4745 767.668 39.4349 767.599 39.3678C767.557 39.3303 767.528 39.2815 767.515 39.2278C767.502 39.174 767.506 39.1176 767.526 39.0659L771.124 27.2736C771.166 27.1432 771.255 27.0327 771.376 26.9637C771.476 26.9034 771.59 26.868 771.708 26.8604H783.12C783.217 26.8613 783.31 26.8982 783.38 26.9637ZM777.422 36.6899L779.57 29.6495H773.556L771.416 36.6899H777.422ZM794.273 27.0829C794.312 27.1272 794.361 27.1624 794.416 27.1858C794.471 27.2092 794.53 27.2202 794.59 27.2179H796.073C796.129 27.2185 796.185 27.2049 796.235 27.1785C796.284 27.1521 796.326 27.1137 796.357 27.067C796.383 27.0305 796.401 26.9891 796.411 26.9455C796.421 26.9018 796.422 26.8566 796.413 26.8127L796.121 24.7149C796.094 24.6178 796.044 24.5281 795.976 24.4526C795.937 24.4083 795.888 24.3731 795.833 24.3497C795.779 24.3263 795.719 24.3153 795.659 24.3175H794.176C794.12 24.317 794.064 24.3306 794.014 24.357C793.965 24.3834 793.923 24.4218 793.892 24.4685C793.836 24.5798 793.811 24.6513 793.836 24.7149L794.136 26.8127C794.151 26.9148 794.199 27.0095 794.273 27.0829ZM798.983 24.699C798.955 24.6019 798.905 24.5122 798.837 24.4367C798.799 24.3925 798.752 24.3574 798.699 24.3339C798.645 24.3105 798.587 24.2995 798.529 24.3017H797.037C796.982 24.3001 796.927 24.3133 796.878 24.3399C796.83 24.3665 796.79 24.4054 796.762 24.4526C796.708 24.5231 796.685 24.6117 796.697 24.699L796.997 26.7968C797.016 26.8979 797.063 26.9916 797.135 27.067C797.174 27.1105 797.223 27.145 797.278 27.1684C797.332 27.1917 797.391 27.2032 797.451 27.202H798.942C798.998 27.2028 799.052 27.1892 799.101 27.1627C799.149 27.1362 799.189 27.0977 799.218 27.0511C799.246 27.0155 799.266 26.9742 799.275 26.9302C799.285 26.8862 799.285 26.8406 799.274 26.7968L798.983 24.699ZM792.968 27.8775L792.823 26.8445H785.633C785.52 26.8506 785.411 26.8862 785.317 26.9478C785.257 26.9797 785.205 27.0239 785.165 27.0774C785.124 27.1309 785.096 27.1924 785.082 27.2577L784.482 29.2283C784.458 29.2776 784.45 29.3328 784.459 29.3867C784.467 29.4406 784.492 29.4907 784.531 29.5303C784.599 29.5933 784.688 29.63 784.782 29.6336H793.52L791.372 36.674H782.658C782.546 36.6765 782.437 36.7096 782.342 36.7694C782.228 36.8408 782.144 36.9511 782.107 37.0793L781.499 39.05C781.479 39.1005 781.474 39.1555 781.484 39.2087C781.494 39.2621 781.519 39.3116 781.556 39.3519C781.622 39.4191 781.712 39.4589 781.807 39.4631H793.252C793.37 39.4532 793.485 39.415 793.584 39.3519C793.704 39.286 793.794 39.1781 793.836 39.05L797.127 28.2748H793.422C793.364 28.2759 793.305 28.2652 793.251 28.2434C793.196 28.2215 793.147 28.1889 793.106 28.1476C793.039 28.0756 792.992 27.9881 792.968 27.8934V27.8775Z" fill="white"/>
</g>
<defs>
<clipPath id="clip0_211_2045">
<rect width="27.8428" height="27.8428" fill="white" transform="translate(2.78549 20.1946) scale(1.00043)"/>
</clipPath>
<clipPath id="clip1_211_2045">
<rect width="27.8428" height="19.4899" fill="white" transform="translate(130.917 24.2662) scale(1.00043)"/>
</clipPath>
<clipPath id="clip2_211_2045">
<rect width="38.2838" height="20.8821" fill="white" transform="translate(254.174 23.5701) scale(1.00043)"/>
</clipPath>
<clipPath id="clip3_211_2045">
<rect width="32.7153" height="20.186" fill="white" transform="translate(385.091 24.2662) scale(1.00043)"/>
</clipPath>
<clipPath id="clip4_211_2045">
<rect width="28.5388" height="18.7939" fill="white" transform="translate(515.311 24.9628) scale(1.00043)"/>
</clipPath>
<clipPath id="clip5_211_2045">
<rect width="36.1956" height="13.9214" fill="white" transform="translate(639.265 27.0516) scale(1.00043)"/>
</clipPath>
<clipPath id="clip6_211_2045">
<rect width="38.2838" height="20.8821" fill="white" transform="translate(766.7 23.5701) scale(1.00043)"/>
</clipPath>
</defs>
</svg>
