<svg width="346" height="34" viewBox="0 0 346 34" fill="none" xmlns="http://www.w3.org/2000/svg">
<rect width="33.4165" height="33.4165" rx="5.56856" fill="#E8F5E9"/>
<g clip-path="url(#clip0_211_2510)">
<path fill-rule="evenodd" clip-rule="evenodd" d="M7.20778 0.135275C11.0526 0.135275 14.1696 3.25216 14.1696 7.09705V0.135275H21.1313C24.9762 0.135275 28.0931 3.25216 28.0931 7.09705C28.0931 10.9419 24.9762 14.0588 21.1313 14.0588C24.9762 14.0588 28.0931 17.1757 28.0931 21.0206C28.0931 22.9297 27.3246 24.6594 26.0801 25.9171L26.0541 25.9433L26.0309 25.9663C24.773 27.2126 23.042 27.9824 21.1313 27.9824C19.2336 27.9824 17.5132 27.223 16.2574 25.9916C16.2411 25.9756 16.2248 25.9595 16.2086 25.9433C16.1933 25.9281 16.1782 25.9128 16.1631 25.8974C14.9301 24.6413 14.1696 22.9198 14.1696 21.0206C14.1696 24.8654 11.0526 27.9824 7.20778 27.9824C3.3629 27.9824 0.24601 24.8654 0.24601 21.0206V14.0588H7.20778C3.3629 14.0588 0.24601 10.9419 0.24601 7.09705C0.24601 3.25216 3.3629 0.135275 7.20778 0.135275ZM12.7772 7.09705C12.7772 10.173 10.2837 12.6665 7.20778 12.6665V1.52763C10.2837 1.52763 12.7772 4.02114 12.7772 7.09705ZM26.7007 21.0206C26.7007 17.9447 24.2072 15.4512 21.1313 15.4512C18.0554 15.4512 15.5619 17.9447 15.5619 21.0206H26.7007ZM1.63836 15.4512V21.0206C1.63836 24.0965 4.13188 26.59 7.20778 26.59C10.2837 26.59 12.7772 24.0965 12.7772 21.0206V15.4512H1.63836ZM15.5619 12.6665V1.52763H21.1313C24.2072 1.52763 26.7007 4.02114 26.7007 7.09705C26.7007 10.173 24.2072 12.6665 21.1313 12.6665H15.5619Z" fill="#5417D7"/>
</g>
<rect x="61.9598" width="33.4165" height="33.4165" rx="5.56856" fill="#F5F7FA"/>
<g clip-path="url(#clip1_211_2510)">
<path fill-rule="evenodd" clip-rule="evenodd" d="M68.9898 9.71957L62.0379 16.6015C63.4284 17.9781 65.0168 19.1382 66.7487 20.0458C67.2274 21.3028 67.9777 22.4817 68.9997 23.4933C72.8446 27.2996 79.0784 27.2996 82.9232 23.4933C83.9452 22.4817 84.6955 21.3028 85.1742 20.0457C86.906 19.1382 88.4945 17.9781 89.885 16.6015L82.9387 9.72516C82.9336 9.72002 82.9284 9.71487 82.9232 9.70974C79.0784 5.90351 72.8446 5.90351 68.9997 9.70974C68.9964 9.71301 68.9931 9.71629 68.9898 9.71957ZM82.258 21.2874C80.2321 21.9643 78.1055 22.3109 75.9614 22.3109C73.8174 22.3109 71.6908 21.9643 69.6649 21.2874C69.8844 21.5757 70.1268 21.8524 70.392 22.115C73.468 25.16 78.4549 25.16 81.5309 22.115C81.7961 21.8524 82.0385 21.5757 82.258 21.2874ZM70.5348 10.9503C71.0572 11.2919 71.6126 11.5842 72.1937 11.8225C73.3882 12.3123 74.6685 12.5644 75.9614 12.5644C77.2544 12.5644 78.5347 12.3123 79.7292 11.8225C80.3103 11.5842 80.8657 11.2919 81.3881 10.9502C78.3506 8.08906 73.5723 8.08906 70.5348 10.9503Z" fill="#3B4158"/>
</g>
<rect x="123.92" width="33.4165" height="33.4165" rx="5.56856" fill="#F5F7FA"/>
<g clip-path="url(#clip2_211_2510)">
<path d="M162.206 13.5871C162.21 13.5581 162.21 13.5287 162.206 13.4997C162.21 13.4761 162.21 13.4519 162.206 13.4282L161.923 11.3866C161.882 11.1423 161.772 10.914 161.607 10.7272L161.558 10.6716L161.469 10.5842L156.558 6.4374L156.696 6.57246C156.583 6.44027 156.442 6.33453 156.282 6.26304C156.122 6.19155 155.948 6.15612 155.772 6.15936H154.281C154.039 6.15465 153.802 6.23022 153.609 6.37386C153.406 6.23109 153.162 6.1559 152.912 6.15936H151.421C151.225 6.15625 151.032 6.20383 150.862 6.2973C150.691 6.39076 150.548 6.52679 150.449 6.69162C150.295 6.92703 150.237 7.21067 150.286 7.48603L150.473 8.77297C150.349 8.70435 150.21 8.66875 150.068 8.66971H142.848C142.589 8.6713 142.336 8.74574 142.118 8.88419C141.908 9.01306 141.74 9.1976 141.632 9.41644L141.073 8.94775C140.853 8.74813 140.563 8.63993 140.263 8.64587H128.934C128.675 8.65052 128.42 8.72171 128.197 8.85242C127.892 9.02766 127.668 9.31259 127.573 9.64683L123.975 21.4439C123.908 21.6383 123.901 21.8479 123.956 22.046C124.011 22.244 124.125 22.4217 124.283 22.5561C124.324 22.5903 124.368 22.6222 124.413 22.6513C124.413 22.6513 124.34 22.6037 124.299 22.564L129.21 26.7188C129.418 26.9063 129.689 27.011 129.972 27.0127H141.389C141.65 27.006 141.904 26.9321 142.127 26.7982C142.252 26.7308 142.365 26.6421 142.459 26.536L142.499 26.4804L142.564 26.401L142.613 26.3136L143.148 26.7664C143.352 26.9465 143.618 27.0455 143.893 27.0445H155.335C155.595 27.036 155.849 26.9621 156.072 26.83C156.195 26.7585 156.307 26.6702 156.404 26.5678L156.445 26.5122L156.51 26.4328C156.544 26.3825 156.574 26.3294 156.599 26.2739C156.625 26.2257 156.647 26.1752 156.664 26.123L159.945 15.3507V15.2554C159.949 15.2184 159.949 15.1811 159.945 15.1442V15.0727C159.949 15.049 159.949 15.0249 159.945 15.0012C159.949 14.9509 159.949 14.9005 159.945 14.8502H160.999C161.091 14.8585 161.183 14.8585 161.274 14.8502H161.347C161.407 14.8329 161.464 14.8089 161.518 14.7787H161.599L161.744 14.6675L161.809 14.6198L161.923 14.4768V14.4292L162.004 14.2941C161.999 14.2679 161.999 14.241 162.004 14.2147C161.999 14.2018 161.999 14.1879 162.004 14.175C162.021 14.1284 162.034 14.0806 162.044 14.032C162.04 14.0163 162.04 14 162.044 13.9843C162.04 13.9607 162.04 13.9365 162.044 13.9128C162.044 13.9128 162.206 13.603 162.206 13.5871Z" fill="black"/>
<path d="M140.595 9.55178C140.638 9.58992 140.668 9.64006 140.681 9.69546C140.694 9.75086 140.69 9.80884 140.668 9.8616L137.078 21.6507C137.033 21.7794 136.941 21.887 136.819 21.9526C136.72 22.0175 136.605 22.0558 136.487 22.0638H125.077C124.98 22.0592 124.888 22.0196 124.818 21.9526C124.777 21.915 124.748 21.8663 124.735 21.8125C124.722 21.7588 124.725 21.7024 124.745 21.6507L128.343 9.8616C128.384 9.73126 128.474 9.62078 128.594 9.55178C128.695 9.49154 128.809 9.4561 128.926 9.4485H140.336C140.432 9.44942 140.525 9.48634 140.595 9.55178ZM134.639 19.2754L136.787 12.2369H130.774L128.635 19.2754H134.639ZM151.486 9.67094C151.525 9.71529 151.573 9.75046 151.628 9.77384C151.683 9.79722 151.742 9.80821 151.802 9.80599H153.285C153.341 9.80653 153.397 9.79295 153.446 9.76655C153.496 9.74014 153.538 9.70176 153.568 9.65505C153.595 9.61856 153.613 9.57726 153.623 9.53358C153.633 9.48992 153.633 9.44478 153.625 9.40084L153.333 7.30359C153.306 7.20653 153.256 7.1169 153.187 7.04143C153.148 6.99708 153.1 6.96191 153.045 6.93853C152.99 6.91515 152.931 6.90417 152.871 6.90639H151.389C151.332 6.90585 151.276 6.91942 151.227 6.94583C151.177 6.97224 151.135 7.01061 151.105 7.05733C151.048 7.16854 151.024 7.24004 151.048 7.30359L151.348 9.40084C151.363 9.50296 151.412 9.59759 151.486 9.67094ZM156.194 7.2877C156.166 7.19063 156.116 7.101 156.048 7.02555C156.011 6.98136 155.963 6.9462 155.91 6.92277C155.857 6.89936 155.798 6.88831 155.74 6.8905H154.249C154.193 6.88895 154.138 6.90216 154.09 6.92873C154.041 6.9553 154.001 6.99425 153.973 7.04143C153.92 7.11191 153.896 7.20044 153.909 7.2877L154.208 9.38495C154.227 9.48599 154.275 9.57968 154.346 9.65505C154.386 9.69853 154.435 9.73311 154.489 9.75642C154.544 9.77973 154.603 9.79122 154.662 9.79009H156.153C156.209 9.79081 156.263 9.77725 156.312 9.75076C156.36 9.72427 156.4 9.68579 156.429 9.63917C156.457 9.60362 156.477 9.56233 156.486 9.51835C156.496 9.47436 156.496 9.42879 156.485 9.38495L156.194 7.2877ZM150.181 10.4654L150.035 9.43261H142.848C142.735 9.43871 142.626 9.47438 142.532 9.53589C142.472 9.5678 142.42 9.61202 142.379 9.66551C142.339 9.719 142.311 9.78048 142.297 9.84571L141.697 11.8158C141.673 11.8651 141.665 11.9203 141.674 11.9742C141.682 12.0281 141.707 12.0781 141.746 12.1177C141.814 12.1807 141.903 12.2174 141.997 12.221H150.732L148.585 19.2595H139.874C139.762 19.262 139.652 19.295 139.558 19.3548C139.443 19.4262 139.36 19.5365 139.323 19.6646L138.715 21.6348C138.695 21.6853 138.69 21.7403 138.7 21.7935C138.71 21.8468 138.735 21.8963 138.772 21.9367C138.838 22.0038 138.928 22.0436 139.023 22.0479H150.465C150.583 22.0379 150.697 21.9997 150.797 21.9367C150.917 21.8708 151.006 21.7629 151.048 21.6348L154.338 10.8626H150.635C150.576 10.8637 150.518 10.853 150.463 10.8311C150.409 10.8093 150.36 10.7767 150.319 10.7354C150.252 10.6634 150.205 10.576 150.181 10.4812V10.4654Z" fill="white"/>
</g>
<rect x="185.879" width="33.4165" height="33.4165" rx="5.56856" fill="#F5F7FA"/>
<g clip-path="url(#clip3_211_2510)">
<path d="M216.509 9.33652C216.509 9.36006 216.509 9.38949 216.503 9.40714C216.472 9.63666 216.472 9.86618 216.49 10.1016C216.503 10.1604 216.515 10.2193 216.564 10.2664C216.644 10.3546 216.766 10.337 216.815 10.2311C216.84 10.1781 216.84 10.1251 216.828 10.0722C216.766 9.84852 216.754 9.61312 216.748 9.3836C216.748 9.37183 216.748 9.35417 216.748 9.33652C216.815 9.33064 216.877 9.32475 216.932 9.32475C216.975 9.31887 217.011 9.31298 217.042 9.29532C217.134 9.24825 217.134 9.1482 217.036 9.10112C216.999 9.08346 216.95 9.07757 216.907 9.07757C216.754 9.08346 216.601 9.08346 216.447 9.08346C216.392 9.08346 216.337 9.08935 216.282 9.09523C216.251 9.10112 216.214 9.10112 216.19 9.11877C216.147 9.13643 216.122 9.16585 216.122 9.20705C216.129 9.24825 216.147 9.27178 216.19 9.28944C216.214 9.3071 216.245 9.31298 216.276 9.31298C216.349 9.31887 216.429 9.33064 216.509 9.33652ZM218.195 9.60724C218.195 9.61312 218.201 9.61901 218.201 9.61901C218.226 9.7779 218.25 9.93092 218.268 10.0839C218.275 10.1369 218.281 10.184 218.318 10.2252C218.397 10.3252 218.52 10.3134 218.575 10.2075C218.6 10.1545 218.606 10.1016 218.593 10.0427C218.557 9.86618 218.538 9.68963 218.501 9.51896C218.477 9.41303 218.446 9.31298 218.416 9.21882C218.397 9.15997 218.354 9.11877 218.281 9.11289C218.207 9.10112 218.152 9.13643 218.121 9.18939C218.085 9.23647 218.054 9.28355 218.029 9.33652C217.986 9.43068 217.95 9.52485 217.901 9.61312C217.894 9.63666 217.888 9.65432 217.876 9.67197C217.87 9.6602 217.864 9.65432 217.864 9.65432C217.784 9.50719 217.71 9.36006 217.631 9.21882C217.618 9.20705 217.612 9.19528 217.606 9.18351C217.569 9.13054 217.527 9.10112 217.459 9.10112C217.398 9.107 217.349 9.14231 217.318 9.19528C217.306 9.21882 217.306 9.23647 217.3 9.26002C217.275 9.44834 217.244 9.63666 217.22 9.82499C217.208 9.93092 217.202 10.0368 217.202 10.1428C217.195 10.1663 217.202 10.1957 217.214 10.2193C217.226 10.2664 217.263 10.2958 217.312 10.3017C217.373 10.3076 217.416 10.2899 217.435 10.2428C217.453 10.2075 217.459 10.1781 217.465 10.1487C217.49 10.0427 217.508 9.94269 217.527 9.84264C217.539 9.78379 217.545 9.73671 217.563 9.67197C217.576 9.69551 217.588 9.71317 217.6 9.73082C217.655 9.80145 217.71 9.87207 217.778 9.93092C217.845 9.978 217.901 9.97211 217.956 9.91914C217.968 9.90738 217.974 9.90149 217.986 9.88972C218.042 9.80733 218.109 9.72494 218.164 9.64254C218.177 9.63078 218.183 9.61901 218.195 9.60724Z" fill="#3A3B7B"/>
<path d="M204.067 9.45221C204.024 9.56405 204.016 9.64463 204.035 9.7116C204.057 9.80267 204.114 9.83249 204.19 9.80932C204.91 9.63839 206.49 10.1236 207.074 10.2588C207.212 10.2872 207.325 10.1163 207.23 9.96316C207.093 9.81482 205.514 9.1797 204.912 9.14507C204.676 9.13226 204.254 9.07415 204.067 9.45221Z" fill="#3A3B7B"/>
<path d="M210.239 7.3965C210.316 7.43902 210.358 7.47958 210.38 7.5249C210.411 7.58435 210.395 7.62548 210.342 7.64647C209.865 7.86948 209.232 8.82957 208.976 9.16069C208.914 9.23686 208.771 9.1926 208.75 9.06733C208.754 8.9257 209.316 7.88379 209.629 7.60001C209.752 7.48921 209.956 7.27181 210.239 7.3965Z" fill="#3A3B7B"/>
<path d="M206.447 6.9238C206.54 6.85709 206.635 6.83372 206.684 6.87707C207.403 7.46666 207.784 8.40033 208.019 9.25508C208.028 9.27499 208.029 9.30357 208.022 9.33338C208.019 9.35886 207.999 9.38578 207.969 9.4066C207.936 9.4296 207.907 9.4366 207.894 9.41678C207.579 9.00581 205.781 7.40679 206.447 6.9238Z" fill="#3A3B7B"/>
<path d="M191.237 17.146C191.409 17.023 191.596 16.9206 191.794 16.8411C192.001 16.7842 192.222 16.7936 192.423 16.868C192.624 16.9423 192.795 17.0774 192.909 17.253C193.011 17.4281 193.05 17.6303 193.022 17.829C192.994 18.0278 192.9 18.2123 192.753 18.355C192.639 18.4706 192.509 18.5713 192.368 18.6546C191.738 19.0451 191.103 19.4142 190.467 19.8047C190.337 19.9025 190.199 19.9901 190.055 20.0669C189.835 20.1721 189.584 20.2002 189.345 20.1465C189.106 20.0928 188.893 19.9605 188.745 19.7726C188.634 19.6396 188.541 19.4941 188.466 19.3393C187.864 18.125 187.24 16.916 186.661 15.6802C186.393 15.1453 186.176 14.5301 185.964 13.9363C185.872 13.7638 185.854 13.5638 185.914 13.3788C185.974 13.1937 186.106 13.0384 186.283 12.9457C186.46 12.853 186.668 12.8303 186.863 12.8825C187.057 12.9346 187.222 13.0574 187.324 13.2248C187.636 13.6224 187.912 14.0448 188.149 14.4873C188.751 15.5572 189.325 16.6271 189.904 17.6649C189.938 17.7223 189.975 17.7776 190.016 17.8307C190.452 17.6547 190.863 17.4245 191.237 17.146Z" fill="#3A3B7B"/>
<path d="M197.46 16.7727C196.084 18.3187 193.776 17.9282 192.617 15.9382C191.792 14.5259 191.647 12.1935 193.442 10.7224C193.825 10.4144 194.283 10.2046 194.774 10.1126C195.375 10.0298 195.989 10.1316 196.526 10.4035C197.064 10.6754 197.498 11.1035 197.767 11.6265C198.748 13.3383 198.609 15.5209 197.46 16.7727ZM196.903 13.1671C196.757 12.7465 196.463 12.3873 196.073 12.1507C195.851 11.9994 195.583 11.9259 195.312 11.9424C195.041 11.959 194.784 12.0647 194.584 12.2417C193.787 12.9211 193.62 14.5313 194.2 15.4888C194.274 15.645 194.382 15.7837 194.518 15.8954C194.653 16.0071 194.813 16.089 194.985 16.1354C195.157 16.1817 195.337 16.1915 195.514 16.1639C195.69 16.1363 195.858 16.072 196.006 15.9756C196.438 15.6541 196.755 15.2114 196.913 14.7091C197.07 14.2067 197.061 13.6696 196.886 13.1725L196.903 13.1671Z" fill="#3A3B7B"/>
<path d="M203.079 13.8409C202.938 13.87 202.792 13.8717 202.651 13.846C202.509 13.8202 202.374 13.7676 202.254 13.6911C202.149 13.6334 202.058 13.554 201.989 13.4587C201.92 13.3634 201.873 13.2546 201.853 13.14C201.833 13.0254 201.839 12.9079 201.872 12.796C201.904 12.6841 201.963 12.5806 202.042 12.4928C202.18 12.3164 202.377 12.1901 202.599 12.1344C203.181 11.9725 203.779 11.8738 204.383 11.8402C204.516 11.8254 204.65 11.8361 204.779 11.8719C204.907 11.9077 205.026 11.9676 205.13 12.0484C205.234 12.1291 205.32 12.229 205.383 12.342C205.446 12.4551 205.485 12.5791 205.498 12.7068C205.672 13.334 205.691 13.9917 205.553 14.6273C205.052 16.6815 203.324 17.3876 201.384 16.7296C200.84 16.5537 200.362 16.2259 200.013 15.7881C199.547 15.2609 199.217 14.6361 199.049 13.9639C198.913 13.3654 198.928 12.7443 199.093 12.1524C199.257 11.5606 199.567 11.0151 199.996 10.5616C200.404 10.0687 200.932 9.68086 201.535 9.43287C201.915 9.23151 202.361 9.17426 202.783 9.27239C202.879 9.29785 202.966 9.34745 203.035 9.41605C203.104 9.48465 203.153 9.56976 203.177 9.66254C203.2 9.75532 203.197 9.8524 203.168 9.94371C203.139 10.035 203.085 10.1172 203.012 10.1818C202.873 10.3027 202.721 10.4102 202.56 10.5028C202.065 10.8056 201.634 11.1959 201.29 11.6529C201.064 11.9486 200.909 12.2882 200.835 12.6477C200.76 13.0072 200.769 13.378 200.86 13.7339C200.987 14.2192 201.267 14.6548 201.663 14.9803C202.889 16.0502 204.483 15.0178 204.205 13.5573C203.798 13.6537 203.441 13.7553 203.079 13.8409Z" fill="#3A3B7B"/>
<path d="M210.57 16.858C208.758 17.9279 206.696 16.858 206.245 14.6112C205.916 13.0063 206.54 10.7595 208.725 9.9036C209.19 9.72541 209.694 9.66285 210.191 9.72172C210.788 9.82659 211.335 10.1086 211.756 10.528C212.177 10.9474 212.451 11.4831 212.537 12.0595C212.905 13.9692 212.069 16.0074 210.57 16.858ZM211.2 13.2577C211.199 12.8133 211.035 12.3833 210.737 12.0434C210.578 11.8332 210.347 11.6825 210.085 11.6171C209.823 11.5518 209.545 11.5758 209.299 11.685C208.318 12.0915 207.627 13.568 207.878 14.654C207.897 14.8244 207.955 14.9888 208.047 15.1356C208.139 15.2823 208.264 15.408 208.412 15.5038C208.56 15.5996 208.728 15.6632 208.904 15.6901C209.081 15.717 209.261 15.7066 209.433 15.6597C209.951 15.4858 210.4 15.1609 210.717 14.7303C211.034 14.2997 211.203 13.7849 211.2 13.2577Z" fill="#3A3B7B"/>
<path d="M214.369 17.3077C214.342 17.5035 214.235 17.6808 214.071 17.8007C213.908 17.9206 213.701 17.9732 213.497 17.9469C213.293 17.9207 213.108 17.8177 212.983 17.6607C212.858 17.5037 212.804 17.3055 212.831 17.1097C212.858 16.914 212.966 16.7366 213.129 16.6167C213.293 16.4968 213.499 16.4442 213.703 16.4705C213.907 16.4967 214.092 16.5996 214.217 16.7567C214.342 16.9137 214.397 17.1119 214.369 17.3077ZM213.884 10.0912C213.99 9.93577 214.146 9.81744 214.328 9.75381C214.51 9.69018 214.708 9.68467 214.893 9.73809C215.082 9.78334 215.248 9.88933 215.365 10.0383C215.482 10.1873 215.541 10.3703 215.534 10.5566C215.51 10.8554 215.463 11.1521 215.395 11.4446C215.211 12.4343 215.033 13.4239 214.838 14.4029C214.748 14.7934 214.631 15.1679 214.503 15.5637C214.459 15.6875 214.384 15.7993 214.286 15.89C214.225 15.9583 214.147 16.0107 214.059 16.0423C213.971 16.0739 213.876 16.0838 213.784 16.071C213.691 16.0582 213.603 16.0232 213.528 15.9691C213.453 15.915 213.394 15.8437 213.355 15.7617C213.289 15.6146 213.253 15.4565 213.249 15.2963C213.249 14.6329 213.249 13.9642 213.294 13.2955C213.369 12.3412 213.518 11.3935 213.74 10.4603C213.766 10.3352 213.815 10.2157 213.884 10.1072V10.0912Z" fill="#3A3B7B"/>
<path fill-rule="evenodd" clip-rule="evenodd" d="M188.882 21.6063C188.816 21.7473 188.798 21.9045 188.83 22.0558C188.851 22.2552 188.898 22.4513 188.97 22.6397C189.059 22.8705 189.159 23.0986 189.282 23.3798C189.311 23.4445 189.34 23.512 189.371 23.5831C189.537 23.964 189.746 24.4509 190.024 25.1554C190.103 25.3556 190.172 25.5574 190.243 25.7605C190.271 25.8426 190.3 25.925 190.329 26.0075C190.434 26.301 190.614 26.5647 190.853 26.7736C190.954 26.8885 191.088 26.9722 191.239 27.014C191.393 27.0567 191.556 27.054 191.709 27.0062C191.861 26.9585 191.994 26.8679 192.092 26.7463C192.188 26.627 192.245 26.4833 192.256 26.3332C192.318 26.0407 192.297 25.7374 192.194 25.4555C192.032 24.9873 191.847 24.5185 191.633 24.0599L191.632 24.0579C191.28 23.3404 190.923 22.628 190.549 21.9152L190.546 21.9102C190.437 21.7245 190.295 21.5585 190.126 21.4196C190.016 21.2957 189.865 21.2121 189.698 21.1833C189.528 21.1539 189.352 21.1835 189.202 21.267C189.061 21.3446 188.948 21.4634 188.882 21.6063Z" fill="#3A3B7B"/>
<path fill-rule="evenodd" clip-rule="evenodd" d="M194.249 19.8398C193.698 19.7028 193.123 19.6829 192.563 19.7814C192.129 19.8223 191.703 19.9183 191.407 20.1085C191.256 20.2052 191.134 20.3295 191.067 20.4874C190.998 20.6462 190.99 20.8278 191.046 21.0302C191.147 21.4008 191.28 21.7612 191.412 22.1204L191.433 22.1786L191.433 22.1799C191.831 23.2235 192.231 24.2636 192.636 25.3001C192.683 25.4634 192.75 25.621 192.835 25.7696L192.836 25.7723C192.948 25.957 193.092 26.1221 193.262 26.2608C193.346 26.3371 193.451 26.3899 193.565 26.4134C193.68 26.4372 193.799 26.4303 193.91 26.3934C194.021 26.3566 194.119 26.2912 194.194 26.2044C194.268 26.119 194.316 26.0161 194.333 25.9066C194.407 25.6092 194.383 25.2974 194.266 25.0131C194.23 24.9175 194.201 24.8197 194.171 24.7168C194.161 24.6824 194.151 24.6475 194.14 24.612C195.066 24.2646 196.051 23.7976 196.397 22.711C196.533 22.3356 196.544 21.929 196.43 21.547C196.315 21.1647 196.08 20.8258 195.756 20.577C195.316 20.2287 194.801 19.9771 194.249 19.8398ZM192.722 21.1725C192.74 21.1675 192.758 21.1628 192.777 21.1584C193.379 21.0675 193.996 21.1887 194.513 21.4996C194.741 21.6517 194.834 21.8207 194.85 21.9833C194.867 22.1507 194.804 22.3322 194.676 22.5066C194.435 22.836 193.996 23.0997 193.599 23.1489C193.31 22.5093 193.016 21.8439 192.722 21.1725Z" fill="#3A3B7B"/>
<path d="M197.923 18.6693C198.579 18.3784 199.392 18.3282 200.028 18.5327C200.188 18.5774 200.327 18.6743 200.421 18.8067C200.514 18.9382 200.557 19.0968 200.543 19.2553C200.542 19.3581 200.516 19.4593 200.466 19.5507C200.416 19.6436 200.343 19.7235 200.253 19.7837C200.164 19.8439 200.061 19.8826 199.953 19.8964C199.844 19.9103 199.734 19.8989 199.632 19.8632L199.624 19.8605L199.616 19.8568C199.564 19.8304 199.508 19.8105 199.45 19.7976L199.447 19.7968C198.999 19.6828 198.577 19.8718 198.423 20.104C198.35 20.2147 198.34 20.3265 198.402 20.4282C198.467 20.537 198.628 20.6592 198.954 20.7463C199.043 20.7699 199.135 20.7927 199.228 20.8158C199.485 20.8797 199.753 20.9462 200.011 21.0383L200.012 21.0386C201.206 21.4744 201.65 22.3768 201.498 23.2255C201.347 24.0649 200.617 24.8288 199.519 25.009C199.119 25.094 198.703 25.0774 198.312 24.9609C197.92 24.8441 197.567 24.6308 197.287 24.3423L197.28 24.3348C197.192 24.2261 197.132 24.0984 197.106 23.9629C197.082 23.8406 197.094 23.7143 197.143 23.5987C197.19 23.4838 197.271 23.3843 197.376 23.3119C197.486 23.2298 197.619 23.1805 197.758 23.1702C197.897 23.16 198.036 23.1889 198.158 23.2534C198.28 23.3099 198.393 23.3819 198.495 23.4675L198.496 23.469C198.676 23.6268 198.894 23.668 199.102 23.6299C199.314 23.5912 199.513 23.4711 199.641 23.3116C199.768 23.1532 199.819 22.965 199.758 22.7822C199.698 22.5982 199.514 22.392 199.112 22.2196C199.006 22.1767 198.897 22.1421 198.784 22.1084C198.753 22.0994 198.722 22.0903 198.69 22.0811C198.606 22.0567 198.52 22.0315 198.435 22.0037C198.377 21.9846 198.319 21.9666 198.262 21.9486C198.105 21.8997 197.952 21.8519 197.805 21.7879C197.486 21.6834 197.209 21.4827 197.018 21.2155C196.825 20.9473 196.728 20.6265 196.741 20.3011C196.742 19.5081 197.263 18.9617 197.923 18.6693Z" fill="#3A3B7B"/>
<path d="M206.242 18.5845C206.114 18.5248 205.974 18.4965 205.832 18.5021C205.691 18.5077 205.553 18.547 205.431 18.6165C205.31 18.6855 205.209 18.7821 205.137 18.8978C205.07 18.9952 205.024 19.1041 205.001 19.2185C204.978 19.3328 204.979 19.4503 205.003 19.5643C205.026 19.7109 205.053 19.8534 205.079 19.9939C205.122 20.2265 205.163 20.4539 205.191 20.6857L205.192 20.6915C205.255 21.0551 205.288 21.4228 205.29 21.7912L205.291 21.7964C205.312 22.1944 205.171 22.5845 204.897 22.8841L204.893 22.8895C204.804 22.999 204.685 23.0826 204.549 23.1309C204.413 23.1792 204.266 23.1903 204.124 23.163C203.982 23.1356 203.851 23.0709 203.745 22.9761C203.639 22.8812 203.563 22.7596 203.525 22.6256C203.444 22.3431 203.397 22.0525 203.385 21.7597L203.524 19.6369C203.526 19.6092 203.528 19.5808 203.53 19.5521C203.536 19.4876 203.541 19.4219 203.543 19.3607C203.547 19.2706 203.544 19.1779 203.522 19.0901C203.5 19.0005 203.457 18.9152 203.381 18.8425C203.307 18.7706 203.206 18.7176 203.079 18.6815C202.849 18.6177 202.655 18.6197 202.493 18.6856C202.331 18.7516 202.22 18.874 202.141 19.0154C202.063 19.1556 202.013 19.3216 201.975 19.4879C201.947 19.6113 201.925 19.7408 201.903 19.8641C201.896 19.9066 201.889 19.9483 201.881 19.9888L201.881 19.99C201.766 20.6662 201.732 21.3527 201.779 22.0363C201.788 22.4057 201.868 22.7703 202.016 23.1116C202.183 23.5519 202.484 23.9334 202.882 24.2057C203.28 24.4786 203.755 24.6289 204.244 24.6369C204.733 24.6448 205.213 24.51 205.62 24.2502C206.027 23.9908 206.342 23.6191 206.524 23.1841C206.779 22.6301 206.898 22.0275 206.874 21.4224C206.859 20.9806 206.834 20.5354 206.809 20.0925C206.796 19.8753 206.784 19.6585 206.773 19.443C206.768 19.2269 206.694 19.0176 206.56 18.8432C206.478 18.733 206.369 18.644 206.242 18.5845Z" fill="#3A3B7B"/>
<path d="M210.745 21.9132C210.732 21.9289 210.718 21.9452 210.704 21.9622C210.601 21.3892 210.505 20.8163 210.409 20.2426C210.374 20.0368 210.34 19.8301 210.305 19.624L210.301 19.601L210.288 19.5811C210.264 19.5437 210.262 19.5071 210.262 19.4289V19.4199L210.26 19.4109C210.234 19.2494 210.158 19.0992 210.042 18.9798C209.926 18.8607 209.776 18.7778 209.61 18.7419C209.445 18.7027 209.271 18.7113 209.111 18.7667C208.951 18.8219 208.811 18.9211 208.71 19.0519C208.626 19.1522 208.557 19.2635 208.505 19.3825C208.387 19.6387 208.269 19.8955 208.15 20.1531L208.148 20.1575C207.851 20.8005 207.552 21.4478 207.262 22.1002L207.261 22.1023C207.083 22.5253 206.936 22.971 206.789 23.4154C206.76 23.5041 206.731 23.5927 206.701 23.6811C206.648 23.8214 206.625 23.9703 206.633 24.1192C206.623 24.2525 206.657 24.3855 206.728 24.5001C206.801 24.6171 206.911 24.7092 207.041 24.7634C207.18 24.8215 207.334 24.8339 207.481 24.7985C207.627 24.7631 207.756 24.6821 207.849 24.5684C207.968 24.4282 208.07 24.2753 208.154 24.1133C208.399 23.6307 208.634 23.1422 208.868 22.6558C208.959 22.4677 209.047 22.2992 209.147 22.1157C209.154 22.1384 209.161 22.1604 209.168 22.1826C209.273 22.6256 209.45 23.0499 209.692 23.44C209.738 23.5226 209.802 23.5949 209.88 23.6517C209.958 23.7093 210.049 23.7496 210.145 23.7701C210.242 23.7907 210.342 23.7908 210.438 23.7704C210.534 23.7501 210.625 23.7097 210.704 23.6525L210.859 23.5407L212.066 22.5649L211.995 23.0015C211.897 23.6016 211.8 24.1967 211.697 24.792C211.629 25.0558 211.629 25.3314 211.697 25.5952C211.726 25.7436 211.801 25.8802 211.912 25.9877C212.023 26.096 212.166 26.1696 212.322 26.199C212.478 26.2283 212.639 26.2121 212.785 26.1523C212.929 26.0934 213.051 25.9949 213.137 25.8695C213.336 25.6325 213.46 25.3455 213.494 25.0428C213.545 24.6154 213.603 24.1821 213.661 23.749C213.728 23.2497 213.794 22.7506 213.851 22.261L213.851 22.2595C213.905 21.7236 213.931 21.1855 213.929 20.6471C213.941 20.477 213.897 20.3075 213.803 20.1626C213.709 20.0173 213.569 19.9043 213.404 19.8396C213.232 19.7646 213.04 19.7446 212.855 19.7825C212.672 19.8201 212.506 19.9129 212.381 20.0473C212.158 20.2449 211.95 20.4564 211.756 20.6803L211.755 20.6819C211.543 20.9348 211.333 21.1927 211.124 21.449C210.997 21.6048 210.871 21.7602 210.745 21.9132Z" fill="#3A3B7B"/>
</g>
<rect x="247.839" width="33.4165" height="33.4165" rx="5.56856" fill="#F5F7FA"/>
<g clip-path="url(#clip4_211_2510)">
<path d="M274.598 8.13886C274.598 8.46327 274.865 8.72626 275.193 8.72626H275.788C276.116 8.72626 276.382 8.46327 276.382 8.13886C276.382 7.81445 276.116 7.55146 275.788 7.55146H275.193C274.865 7.55146 274.598 7.81445 274.598 8.13886Z" fill="#212326"/>
<path d="M257.353 26.3482H260.242L259.401 25.5175C259.178 25.2972 258.876 25.1734 258.56 25.1734H257.353C252.756 25.1734 249.028 21.4916 249.028 16.9498C249.028 12.4081 252.756 8.72626 257.353 8.72626H266.868C271.466 8.72626 275.193 12.4081 275.193 16.9498C275.193 21.4916 271.466 25.1734 266.868 25.1734H263.309C262.836 25.1734 262.382 24.9878 262.047 24.6573L261.062 23.6841C260.504 23.1333 259.748 22.8238 258.96 22.8238H257.353C254.069 22.8238 251.407 20.194 251.407 16.9498C251.407 13.7057 254.069 11.0759 257.353 11.0759H266.868C270.152 11.0759 272.814 13.7057 272.814 16.9498C272.814 20.194 270.152 22.8238 266.868 22.8238H264.583C264.109 22.8238 263.656 22.6382 263.321 22.3077L262.336 21.3345C261.778 20.7837 261.022 20.4742 260.233 20.4742H257.353C255.383 20.4742 253.786 18.8963 253.786 16.9498C253.786 15.0034 255.383 13.4255 257.353 13.4255H266.868C268.838 13.4255 270.436 15.0034 270.436 16.9498C270.436 18.8726 268.877 20.4357 266.94 20.4735L266.939 20.4742H266.069C265.596 20.4742 265.142 20.2886 264.808 19.9581L263.822 18.9849C263.365 18.5329 262.774 18.2435 262.141 18.1542L262.111 18.1246H257.353C256.697 18.1246 256.164 17.5987 256.164 16.9498C256.164 16.301 256.697 15.7751 257.353 15.7751H266.868C267.525 15.7751 268.057 16.301 268.057 16.9498C268.057 17.5987 267.525 18.1246 266.868 18.1246H264.489L265.33 18.9554C265.553 19.1757 265.856 19.2994 266.171 19.2994H266.868C268.182 19.2994 269.247 18.2475 269.247 16.9498C269.247 15.6522 268.182 14.6003 266.868 14.6003H257.353C256.04 14.6003 254.975 15.6522 254.975 16.9498C254.975 18.2475 256.04 19.2994 257.353 19.2994H261.72C262.193 19.2994 262.647 19.4851 262.982 19.8156L263.967 20.7888C264.524 21.3396 265.281 21.649 266.069 21.649H267.165V21.64C269.654 21.4884 271.625 19.4465 271.625 16.9498C271.625 14.3546 269.495 12.2507 266.868 12.2507H257.353C254.726 12.2507 252.596 14.3546 252.596 16.9498C252.596 19.5452 254.726 21.649 257.353 21.649H260.233C260.707 21.649 261.16 21.8347 261.495 22.1652L262.48 23.1384C263.038 23.6892 263.794 23.9986 264.583 23.9986H266.868C270.809 23.9986 274.004 20.8428 274.004 16.9498C274.004 13.0569 270.809 9.90106 266.868 9.90106H257.353C253.412 9.90106 250.218 13.0569 250.218 16.9498C250.218 20.8428 253.412 23.9986 257.353 23.9986H258.96C259.433 23.9986 259.887 24.1843 260.221 24.5148L261.206 25.488C261.764 26.0388 262.52 26.3482 263.309 26.3482H266.868C272.123 26.3482 276.382 22.1404 276.382 16.9498C276.382 11.7593 272.123 7.55146 266.868 7.55146L257.353 7.55146C252.099 7.55146 247.839 11.7593 247.839 16.9498C247.839 22.1404 252.099 26.3482 257.353 26.3482Z" fill="#212326"/>
</g>
<rect x="309.799" width="33.4165" height="33.4165" rx="5.56856" fill="#F5F7FA"/>
<g clip-path="url(#clip5_211_2510)">
<path d="M318.392 9.63967C316.978 9.63967 315.622 10.2013 314.623 11.2009L311.36 14.4634C310.36 15.4631 309.799 16.8189 309.799 18.2327C309.799 21.1767 312.185 23.5632 315.129 23.5632C316.543 23.5632 317.899 23.0016 318.899 22.0019L321.155 19.7452C321.155 19.7452 321.155 19.7453 321.155 19.7452L327.731 13.17C328.208 12.6926 328.855 12.4244 329.531 12.4244C330.661 12.4244 331.619 13.1611 331.952 14.1806L334.027 12.1055C333.08 10.6228 331.42 9.63967 329.531 9.63967C328.117 9.63967 326.761 10.2013 325.761 11.2009L316.93 20.0329C316.452 20.5103 315.805 20.7785 315.129 20.7785C313.723 20.7785 312.584 19.6387 312.584 18.2327C312.584 17.5575 312.852 16.9099 313.329 16.4325L316.592 13.17C317.069 12.6926 317.717 12.4244 318.392 12.4244C319.522 12.4244 320.481 13.1612 320.813 14.1807L322.888 12.1056C321.941 10.6229 320.281 9.63967 318.392 9.63967Z" fill="#394149"/>
<path d="M328.068 20.0329C327.591 20.5103 326.943 20.7785 326.268 20.7785C325.138 20.7785 324.18 20.042 323.847 19.0226L321.772 21.0977C322.719 22.5802 324.379 23.5632 326.268 23.5632C327.682 23.5632 329.038 23.0016 330.037 22.0019L338.869 13.17C339.347 12.6926 339.994 12.4244 340.67 12.4244C342.076 12.4244 343.215 13.5642 343.215 14.9702C343.215 15.6454 342.947 16.2929 342.47 16.7704L339.207 20.0329C338.73 20.5103 338.082 20.7785 337.407 20.7785C336.277 20.7785 335.318 20.0418 334.986 19.0224L332.911 21.0975C333.858 22.5801 335.518 23.5632 337.407 23.5632C338.821 23.5632 340.177 23.0016 341.176 22.0019L344.439 18.7394C345.438 17.7398 346 16.384 346 14.9702C346 12.0262 343.614 9.63967 340.67 9.63967C339.256 9.63967 337.9 10.2013 336.9 11.2009L328.068 20.0329Z" fill="#394149"/>
</g>
<defs>
<clipPath id="clip0_211_2510">
<rect width="27.8428" height="27.8428" fill="white" transform="translate(0.24601 0.135275)"/>
</clipPath>
<clipPath id="clip1_211_2510">
<rect width="27.8428" height="19.4899" fill="white" transform="translate(62.0379 6.85506)"/>
</clipPath>
<clipPath id="clip2_211_2510">
<rect width="38.2838" height="20.8821" fill="white" transform="translate(123.92 6.15915)"/>
</clipPath>
<clipPath id="clip3_211_2510">
<rect width="32.7153" height="20.186" fill="white" transform="translate(185.879 6.85506)"/>
</clipPath>
<clipPath id="clip4_211_2510">
<rect width="28.5388" height="18.7939" fill="white" transform="translate(247.839 7.55146)"/>
</clipPath>
<clipPath id="clip5_211_2510">
<rect width="36.1956" height="13.9214" fill="white" transform="translate(309.799 9.63967)"/>
</clipPath>
</defs>
</svg>
