<svg width="46" height="39" viewBox="0 0 46 39" fill="none" xmlns="http://www.w3.org/2000/svg">
<path d="M45.2677 26.4643C45.2677 33.3876 39.6553 39 32.7321 39L13.9285 39C12.0054 39 10.4464 37.441 10.4464 35.5179L10.4464 11.8393C10.4464 7.99308 13.5644 4.87508 17.4107 4.87508L41.7856 4.87508C43.7087 4.87508 45.2677 6.43409 45.2677 8.35721L45.2677 26.4643Z" fill="#E8F5E9"/>
<path d="M18.7453 13.2398C18.528 13.2398 18.3513 13.0634 18.3513 12.8459V12.1764C18.3513 11.9591 18.5277 11.7824 18.7453 11.7824C18.9626 11.7824 19.1392 11.9588 19.1392 12.1764V12.8459C19.1392 13.0634 18.9626 13.2398 18.7453 13.2398Z" fill="#103E13"/>
<path d="M17.0889 13.2398C16.8716 13.2398 16.695 13.0634 16.695 12.8459V12.1764C16.695 11.9591 16.8713 11.7824 17.0889 11.7824C17.3062 11.7824 17.4829 11.9588 17.4829 12.1764V12.8459C17.4826 13.0634 17.3065 13.2398 17.0889 13.2398Z" fill="#103E13"/>
<path d="M15.4328 13.2398C15.2155 13.2398 15.0388 13.0634 15.0388 12.8459V12.1764C15.0388 11.9591 15.2152 11.7824 15.4328 11.7824C15.6501 11.7824 15.8267 11.9588 15.8267 12.1764V12.8459C15.8267 13.0634 15.6504 13.2398 15.4328 13.2398Z" fill="#103E13"/>
<path d="M18.7453 15.9773C18.528 15.9773 18.3513 15.8009 18.3513 15.5833V14.9141C18.3513 14.6968 18.5277 14.5201 18.7453 14.5201C18.9626 14.5201 19.1392 14.6965 19.1392 14.9141V15.5833C19.1392 15.8009 18.9626 15.9773 18.7453 15.9773Z" fill="#103E13"/>
<path d="M17.0889 15.9773C16.8716 15.9773 16.695 15.8009 16.695 15.5833V14.9141C16.695 14.6968 16.8713 14.5201 17.0889 14.5201C17.3062 14.5201 17.4829 14.6965 17.4829 14.9141V15.5833C17.4826 15.8009 17.3065 15.9773 17.0889 15.9773Z" fill="#103E13"/>
<path d="M15.4328 15.9773C15.2155 15.9773 15.0388 15.8009 15.0388 15.5833V14.9141C15.0388 14.6968 15.2152 14.5201 15.4328 14.5201C15.6501 14.5201 15.8267 14.6965 15.8267 14.9141V15.5833C15.8267 15.8009 15.6504 15.9773 15.4328 15.9773Z" fill="#103E13"/>
<path d="M18.7453 18.7153C18.528 18.7153 18.3513 18.5389 18.3513 18.3213V17.6518C18.3513 17.4345 18.5277 17.2579 18.7453 17.2579C18.9626 17.2579 19.1392 17.4343 19.1392 17.6518V18.3213C19.1392 18.5389 18.9626 18.7153 18.7453 18.7153Z" fill="#103E13"/>
<path d="M17.0889 18.7153C16.8716 18.7153 16.695 18.5389 16.695 18.3213V17.6518C16.695 17.4345 16.8713 17.2579 17.0889 17.2579C17.3062 17.2579 17.4829 17.4343 17.4829 17.6518V18.3213C17.4826 18.5389 17.3065 18.7153 17.0889 18.7153Z" fill="#103E13"/>
<path d="M15.4328 18.7153C15.2155 18.7153 15.0388 18.5389 15.0388 18.3213V17.6518C15.0388 17.4345 15.2152 17.2579 15.4328 17.2579C15.6501 17.2579 15.8267 17.4343 15.8267 17.6518V18.3213C15.8267 18.5389 15.6504 18.7153 15.4328 18.7153Z" fill="#103E13"/>
<path d="M18.7453 21.4525C18.528 21.4525 18.3513 21.2761 18.3513 21.0586V20.3891C18.3513 20.1718 18.5277 19.9951 18.7453 19.9951C18.9626 19.9951 19.1392 20.1715 19.1392 20.3891V21.0586C19.1392 21.2761 18.9626 21.4525 18.7453 21.4525Z" fill="#103E13"/>
<path d="M17.0889 21.4525C16.8716 21.4525 16.695 21.2761 16.695 21.0586V20.3891C16.695 20.1718 16.8713 19.9951 17.0889 19.9951C17.3062 19.9951 17.4829 20.1715 17.4829 20.3891V21.0586C17.4826 21.2761 17.3065 21.4525 17.0889 21.4525Z" fill="#103E13"/>
<path d="M15.4328 21.4525C15.2155 21.4525 15.0388 21.2761 15.0388 21.0586V20.3891C15.0388 20.1718 15.2152 19.9951 15.4328 19.9951C15.6501 19.9951 15.8267 20.1715 15.8267 20.3891V21.0586C15.8267 21.2761 15.6504 21.4525 15.4328 21.4525Z" fill="#103E13"/>
<path d="M18.7453 24.1905C18.528 24.1905 18.3513 24.0141 18.3513 23.7965V23.1273C18.3513 22.91 18.5277 22.7333 18.7453 22.7333C18.9626 22.7333 19.1392 22.9097 19.1392 23.1273V23.7965C19.1392 24.0138 18.9626 24.1905 18.7453 24.1905Z" fill="#103E13"/>
<path d="M17.0889 24.1905C16.8716 24.1905 16.695 24.0141 16.695 23.7965V23.1273C16.695 22.91 16.8713 22.7333 17.0889 22.7333C17.3062 22.7333 17.4829 22.9097 17.4829 23.1273V23.7965C17.4826 24.0138 17.3065 24.1905 17.0889 24.1905Z" fill="#103E13"/>
<path d="M15.4328 24.1905C15.2155 24.1905 15.0388 24.0141 15.0388 23.7965L15.0391 23.1273C15.0391 22.91 15.2155 22.7333 15.4331 22.7333C15.6504 22.7333 15.827 22.9097 15.827 23.1273V23.7965C15.8267 24.0138 15.6504 24.1905 15.4328 24.1905Z" fill="#103E13"/>
<path d="M4.17887 26.9149C4.17887 27.1322 4.35524 27.3089 4.57282 27.3089H28.5632C28.7805 27.3089 28.9571 27.1325 28.9571 26.9149C28.9571 26.6976 28.7807 26.521 28.5632 26.521H27.8349V15.2101C27.8349 14.9928 27.6585 14.8162 27.441 14.8162L21.009 14.8164V6.66188C21.009 6.52397 20.937 6.3965 20.8194 6.32507C20.7021 6.25337 20.5554 6.24897 20.4334 6.31243L13.1207 10.1198C12.9902 10.1876 12.9089 10.3223 12.9089 10.4692V17.5921H5.83177C5.61447 17.5921 5.43782 17.7684 5.43782 17.986V26.521H4.57194C4.35464 26.5208 4.17854 26.6971 4.17854 26.9147L4.17887 26.9149ZM21.0091 20.783H27.0474V26.5213L21.0091 26.521V20.783ZM21.0091 18.0454H27.0474V19.9953L21.0091 19.9951V18.0454ZM21.0091 15.6039H27.0474V17.258H21.0091V15.6039ZM13.6964 10.7084L20.2209 7.31124V26.5207H13.6964V10.7084ZM8.17316 23.3745C8.17316 22.557 8.82094 21.8916 9.61734 21.8916C10.4137 21.8916 11.0618 22.5567 11.0618 23.3745V26.5212H8.17316V23.3745ZM6.2257 18.3798H12.9088V26.521H11.8497V23.3744C11.8497 22.1225 10.8486 21.1039 9.61734 21.1039C8.3866 21.1039 7.38555 22.1222 7.38555 23.3744V26.521H6.2257V18.3798Z" fill="#103E13"/>
</svg>
