<svg width="46" height="39" viewBox="0 0 46 39" fill="none" xmlns="http://www.w3.org/2000/svg">
<path d="M45.2679 26.4643C45.2679 33.3876 39.6554 39 32.7322 39L13.9287 39C12.0055 39 10.4465 37.441 10.4465 35.5179L10.4465 11.8393C10.4465 7.99308 13.5645 4.87508 17.4108 4.87508L41.7857 4.87508C43.7089 4.87508 45.2679 6.43409 45.2679 8.35721L45.2679 26.4643Z" fill="#E8F5E9"/>
<path d="M19.717 16.4667C19.5493 16.4667 19.3936 16.4206 19.2553 16.3465V16.3484C19.2553 16.6123 19.1528 16.86 18.9667 17.0456C18.7806 17.2317 18.533 17.3342 18.2695 17.3342C18.0994 17.3342 17.9417 17.287 17.8019 17.2108C17.7878 17.4522 17.6913 17.6778 17.5192 17.8501C17.3331 18.0362 17.0855 18.1387 16.8218 18.1387C16.2979 18.1387 15.8725 17.7269 15.8418 17.2107C15.6797 17.2983 15.4964 17.3442 15.3074 17.3321C14.792 17.2983 14.3884 16.853 14.3884 16.3181V11.8842L13.8835 12.7589C13.6912 13.0934 13.3313 13.3011 12.9437 13.3011C12.7548 13.3011 12.5683 13.2516 12.4031 13.1569C12.1973 13.0376 12.0501 12.8461 11.9889 12.6171C11.9274 12.3879 11.9592 12.1481 12.0782 11.9427C12.0783 11.9427 13.7301 9.08234 13.8309 8.90664C13.8428 8.88022 13.877 8.8036 13.906 8.7383C13.9337 8.67595 13.9575 8.61196 13.9803 8.54764C14.4785 7.14136 15.7119 6.26781 17.1994 6.26781C19.131 6.26781 20.7026 7.9719 20.7026 10.0665L20.7027 15.4808C20.7027 15.7443 20.6003 15.9919 20.4144 16.1781C20.2284 16.3642 19.9808 16.4668 19.717 16.4668L19.717 16.4667ZM17.1994 6.79162C15.9212 6.79162 14.9025 7.51358 14.4741 8.72282C14.4467 8.79961 14.4181 8.8764 14.3848 8.95122C14.2882 9.16796 14.2882 9.16796 14.2609 9.19913L14.2573 9.19602C14.1225 9.4505 13.7218 10.1444 12.5317 12.2049C12.4828 12.2894 12.4699 12.3875 12.4948 12.4813C12.5201 12.5752 12.5806 12.6543 12.6645 12.7027C12.9247 12.8521 13.2811 12.7557 13.4294 12.4972L14.4235 10.7761C14.4829 10.6735 14.603 10.6231 14.7182 10.6543C14.8328 10.685 14.9123 10.7889 14.9123 10.9073V16.3182C14.9123 16.5735 15.105 16.7939 15.3417 16.8095C15.4782 16.8167 15.6056 16.7709 15.7012 16.6754C15.7882 16.5885 15.8361 16.4726 15.8361 16.3487V12.8099C15.8361 12.6652 15.9534 12.5479 16.0981 12.5479C16.2428 12.5479 16.3602 12.6651 16.3602 12.8099L16.36 17.1531C16.36 17.4078 16.5672 17.615 16.8219 17.615C16.9456 17.615 17.0617 17.5671 17.1489 17.4801C17.2358 17.393 17.2837 17.2768 17.2837 17.1531V12.8099C17.2837 12.6652 17.4009 12.5479 17.5458 12.5479C17.6905 12.5479 17.8078 12.6651 17.8078 12.8099L17.8076 16.308V16.3487C17.8076 16.6032 18.0149 16.8104 18.2697 16.8104C18.3932 16.8104 18.5091 16.7624 18.5967 16.6751C18.6836 16.5883 18.7316 16.4724 18.7316 16.3486V12.8097C18.7316 12.665 18.8487 12.5477 18.9936 12.5477C19.1383 12.5477 19.2556 12.6649 19.2556 12.8097L19.2553 15.4809C19.2553 15.7357 19.4625 15.943 19.717 15.943C19.8409 15.943 19.9567 15.8949 20.0437 15.8081C20.131 15.7208 20.1787 15.6046 20.1787 15.4809L20.1789 10.0667C20.1789 8.26101 18.8423 6.79167 17.1994 6.79167L17.1994 6.79162Z" fill="#103E13"/>
<path d="M9.42204 20.2301L13.2243 17.9491C13.6828 17.6738 14.2726 17.7907 14.5666 18.2155C14.6739 18.3703 14.7288 18.5506 14.7373 18.7342C14.879 18.6602 15.0333 18.62 15.1903 18.62C15.2707 18.62 15.3514 18.63 15.4312 18.6499C15.6866 18.7137 15.9019 18.8733 16.0373 19.0991C16.1728 19.3252 16.2123 19.5902 16.1485 19.8453C16.0896 20.0814 15.946 20.2801 15.7464 20.4165C15.886 20.4989 16.0064 20.6112 16.0921 20.7543C16.2276 20.9804 16.2671 21.2453 16.2035 21.5007C16.1397 21.7559 15.98 21.9711 15.7539 22.1068L15.7526 22.1077C15.8898 22.1899 16.0081 22.3011 16.0927 22.4421C16.2284 22.6681 16.268 22.9331 16.2041 23.1886C16.1402 23.4439 15.9805 23.6591 15.7547 23.7947L11.1121 26.5799C10.2456 27.0995 9.24389 27.2789 8.29192 27.0845C7.33142 26.8882 6.53595 26.3361 6.05228 25.5298C5.28685 24.2541 5.40156 22.7469 6.35107 21.5966C6.39455 21.5441 6.43737 21.4906 6.47626 21.4351C6.51744 21.3765 6.56552 21.3076 6.58192 21.284C6.6802 21.1084 8.28391 18.219 8.28374 18.2194C8.44569 17.9271 8.74923 17.7617 9.06228 17.7619C9.20831 17.7619 9.35647 17.7978 9.49315 17.8736C9.65821 17.9658 9.79686 18.1002 9.89383 18.2622C10.0932 18.5944 10.1002 19.0102 9.91253 19.3467L9.42204 20.2301ZM9.44484 18.5315C9.39398 18.4467 9.32408 18.3791 9.2386 18.3312C9.06189 18.2334 8.8394 18.2971 8.74212 18.4731C7.59458 20.5405 7.2034 21.245 7.05243 21.4958L7.05588 21.4966C7.04325 21.5386 7.04325 21.5386 6.9051 21.736C6.85817 21.8027 6.80714 21.8669 6.75513 21.9301C5.93866 22.9193 5.84386 24.1642 6.5013 25.2603C6.90854 25.9393 7.58159 26.4048 8.39655 26.5711C9.22037 26.7387 10.0887 26.5828 10.8423 26.1306L15.4854 23.3452C15.5914 23.2818 15.6662 23.1808 15.696 23.0612C15.7259 22.9418 15.7074 22.8176 15.6437 22.7116C15.5128 22.4934 15.2284 22.4217 15.0102 22.5531L12.7197 23.9272C12.5957 24.0017 12.4345 23.9617 12.3602 23.8375C12.2857 23.7134 12.3259 23.5525 12.45 23.478L14.7406 22.1038L15.4846 21.6576C15.5906 21.5939 15.6655 21.493 15.6954 21.3737C15.7253 21.2541 15.7067 21.1297 15.6431 21.0239C15.512 20.8055 15.2276 20.7345 15.0096 20.8654L11.975 22.6858C11.8506 22.7605 11.69 22.7201 11.6155 22.5961C11.541 22.472 11.5813 22.3111 11.7052 22.2366L15.4296 20.0024C15.5356 19.9387 15.6104 19.838 15.6403 19.7184C15.6701 19.5989 15.6516 19.4747 15.5881 19.3687C15.5246 19.2629 15.4237 19.1881 15.3041 19.1582C15.1838 19.1283 15.0601 19.1469 14.9544 19.2102L14.265 19.6239C14.2648 19.6239 14.2648 19.624 14.2647 19.624H14.2645L11.2301 21.4445C11.1057 21.5193 10.9449 21.4789 10.8706 21.3547C10.7961 21.2307 10.8364 21.0697 10.9603 20.9952L13.9949 19.1748C14.1009 19.1111 14.1759 19.0102 14.2058 18.8909C14.2386 18.76 14.2136 18.6261 14.1359 18.5139C14.001 18.3188 13.7125 18.2669 13.4938 18.3984L8.85411 21.1818C8.75255 21.2425 8.62243 21.2277 8.53728 21.1455C8.45196 21.0632 8.43276 20.9337 8.49019 20.8302L9.45497 19.0919C9.55177 18.9182 9.548 18.7036 9.4448 18.5316L9.44484 18.5315Z" fill="#103E13"/>
<path d="M27.5911 25.5295C27.1075 26.3359 26.3123 26.8879 25.3516 27.0841C24.3994 27.2782 23.3981 27.0992 22.5314 26.5796L17.8883 23.7942C17.6624 23.6587 17.5026 23.4434 17.4386 23.1878C17.3751 22.9326 17.4148 22.6676 17.5502 22.4419C17.6347 22.3008 17.7531 22.1895 17.8905 22.1073L17.8892 22.1065C17.6632 21.971 17.5034 21.7557 17.4398 21.5004C17.3758 21.2451 17.4155 20.9799 17.551 20.7539C17.6383 20.6086 17.7579 20.4951 17.8944 20.4145C17.6962 20.2782 17.5535 20.0802 17.4947 19.8452C17.4307 19.5897 17.4704 19.3247 17.606 19.0989C17.7413 18.873 17.9568 18.7134 18.2121 18.6496C18.2918 18.6295 18.3727 18.6197 18.4528 18.6197C18.61 18.6199 18.7642 18.6597 18.906 18.7339C18.9147 18.5503 18.9693 18.37 19.0766 18.2152C19.3708 17.7908 19.9602 17.6733 20.4193 17.9488L24.2214 20.2294L23.7313 19.3467C23.5433 19.0097 23.5502 18.5939 23.7495 18.2615C23.8467 18.0997 23.9855 17.9653 24.1514 17.8723C24.2877 17.7968 24.4354 17.7611 24.5811 17.7611C24.8939 17.7612 25.1978 17.9263 25.3596 18.2185C25.9234 19.2343 26.9872 21.1501 27.062 21.2838C27.078 21.3069 27.126 21.3759 27.1672 21.4344C27.2064 21.4901 27.2488 21.5432 27.2926 21.5961C28.2419 22.7469 28.3564 24.2539 27.591 25.5295L27.5911 25.5295ZM26.8883 21.93C26.8362 21.8668 26.785 21.8023 26.7384 21.7359C26.5966 21.5347 26.593 21.5295 26.5823 21.4768C26.4166 21.2026 26.0123 20.4748 24.9011 18.4727C24.8036 18.297 24.5821 18.2328 24.4057 18.3303C24.3189 18.3788 24.2492 18.4466 24.1983 18.5314C24.0953 18.7032 24.0913 18.9178 24.1886 19.0921L25.1531 20.8298C25.2107 20.9335 25.1915 21.0628 25.1063 21.1452C25.0213 21.2277 24.8914 21.2422 24.7893 21.1814L20.1496 18.398C19.9309 18.2669 19.6426 18.3183 19.5074 18.5135C19.4296 18.6258 19.4049 18.7597 19.4373 18.8904C19.4672 19.0099 19.5422 19.1106 19.6483 19.1743C19.6487 19.1744 19.6488 19.1748 19.6492 19.1749L22.6828 20.9949C22.8068 21.0694 22.847 21.2302 22.7725 21.3544C22.698 21.4782 22.5374 21.5188 22.413 21.4441L18.6887 19.2099C18.583 19.1466 18.4586 19.1279 18.3392 19.1579C18.2194 19.1877 18.1187 19.2626 18.0552 19.3687C17.9915 19.4745 17.9731 19.5988 18.0027 19.7182C18.0325 19.8377 18.1075 19.9386 18.2135 20.0022L18.9382 20.4369L21.9377 22.2365C22.0618 22.311 22.102 22.4718 22.0275 22.596C21.953 22.7198 21.7923 22.7602 21.668 22.6857L18.6337 20.8653C18.4155 20.734 18.1313 20.8052 18 21.0238C17.9364 21.1298 17.918 21.254 17.9475 21.3734C17.9774 21.4929 18.0524 21.5936 18.1585 21.6574L18.9025 22.1037L21.1928 23.4779C21.3168 23.5524 21.357 23.7132 21.2825 23.8374C21.2081 23.9612 21.0474 24.0019 20.9231 23.9271L18.6327 22.553C18.5271 22.4896 18.4032 22.4709 18.2831 22.501C18.1636 22.5308 18.0626 22.6056 17.9991 22.7115C17.9356 22.8175 17.917 22.9418 17.9466 23.0611C17.9764 23.1806 18.0514 23.2813 18.1576 23.3451L22.8006 26.1305C23.5541 26.5825 24.423 26.739 25.2464 26.571C26.0612 26.4046 26.7342 25.9391 27.1415 25.2602C27.7996 24.1638 27.7049 22.9188 26.8886 21.9299L26.8883 21.93Z" fill="#103E13"/>
</svg>
