<svg width="34" height="34" viewBox="0 0 34 34" fill="none" xmlns="http://www.w3.org/2000/svg">
<g clip-path="url(#clip0_211_2332)">
<path d="M11.6879 6.18769C13.3585 6.18779 14.9889 6.7017 16.3577 7.65946C17.7266 8.61735 18.7675 9.97344 19.3399 11.5431C19.9124 13.1127 19.9884 14.8202 19.5576 16.4344C19.1267 18.0487 18.2096 19.4919 16.9311 20.5675L16.5008 20.9292L17.0135 21.1608C19.1195 22.1138 20.9315 23.614 22.2616 25.5045L22.2666 25.5115L22.2726 25.5184C22.3759 25.6508 22.4514 25.8033 22.4942 25.9656C22.5369 26.128 22.5456 26.2975 22.521 26.4635C22.4963 26.6296 22.4381 26.7887 22.3501 26.9316C22.262 27.0745 22.1464 27.1986 22.0092 27.2953C21.872 27.3919 21.7162 27.4593 21.5521 27.4941C21.3878 27.5288 21.2179 27.5298 21.0532 27.497C20.8885 27.4642 20.7315 27.3983 20.5931 27.3033H20.5941C20.4556 27.2082 20.337 27.0864 20.2473 26.9445L20.2433 26.9375L20.2383 26.9306L20.0535 26.6762C19.1132 25.4191 17.9011 24.3883 16.5057 23.6631C15.0176 22.8896 13.3651 22.4855 11.6879 22.4855C10.0106 22.4855 8.35745 22.8896 6.86917 23.6631C5.38083 24.4367 4.10042 25.5578 3.13658 26.9306L3.13558 26.9316C3.0223 27.0942 2.87112 27.2267 2.69534 27.3182C2.51948 27.4097 2.32416 27.4579 2.12592 27.4573H2.12393C1.86963 27.4581 1.62126 27.3786 1.41438 27.2307L1.41239 27.2297L1.316 27.1542C1.10079 26.9679 0.955693 26.7117 0.906564 26.4287C0.857464 26.1458 0.90785 25.8559 1.04768 25.6079L1.11327 25.5045C2.44336 23.614 4.25538 22.1138 6.36135 21.1608L6.87414 20.9292L6.44383 20.5675C5.16527 19.4919 4.24822 18.0487 3.81731 16.4344C3.38648 14.8202 3.46254 13.1127 4.03494 11.5431C4.60738 9.97344 5.64831 8.61735 7.01724 7.65946C8.38616 6.7016 10.0172 6.18769 11.6879 6.18769ZM22.5111 6.19763H22.513C24.1847 6.19285 25.8176 6.70417 27.1887 7.66045C28.5598 8.61679 29.6029 9.97273 30.176 11.5431C30.7489 13.1133 30.8244 14.8219 30.3916 16.4364C29.9586 18.0511 29.0381 19.4935 27.7562 20.5665L27.3239 20.9282L27.8377 21.1608C29.9436 22.1138 31.7556 23.614 33.0857 25.5045L33.0877 25.5065C33.1822 25.6386 33.2493 25.7885 33.2855 25.9468C33.3216 26.1052 33.3262 26.2696 33.2984 26.4297C33.2706 26.5899 33.211 26.7429 33.1235 26.8799C33.036 27.0169 32.9222 27.1351 32.7886 27.2277L32.7846 27.2307C32.5777 27.3786 32.3294 27.4571 32.0751 27.4563C31.8765 27.455 31.6808 27.4068 31.5047 27.3152C31.3284 27.2234 31.1764 27.0907 31.0614 26.9286C30.0957 25.5588 28.8153 24.4405 27.3278 23.6681C25.9331 22.9438 24.3943 22.5432 22.8261 22.4944L22.5121 22.4894L22.3888 22.4835C22.1053 22.4553 21.8389 22.3299 21.6356 22.1267C21.4031 21.8943 21.2719 21.5789 21.2718 21.2502C21.2718 20.9215 21.4031 20.6062 21.6356 20.3737C21.868 20.1413 22.1834 20.011 22.5121 20.011C24.0148 20.0109 25.4563 19.413 26.5189 18.3504C27.5814 17.2877 28.1785 15.8463 28.1785 14.3435C28.1784 12.8408 27.5815 11.3993 26.5189 10.3367C25.5226 9.3403 24.193 8.75343 22.7923 8.68403L22.5121 8.67708C21.994 8.67613 21.4779 8.74762 20.9797 8.88974L20.8564 8.92055C20.7359 8.9438 20.6123 8.94858 20.4897 8.93546C20.3263 8.91794 20.1677 8.86867 20.0237 8.78937C19.8798 8.71014 19.7531 8.60296 19.651 8.47435C19.5488 8.34557 19.4729 8.19734 19.4284 8.03908C19.3839 7.88083 19.3716 7.7153 19.3916 7.55213C19.4117 7.38902 19.4642 7.23176 19.5457 7.08904C19.6272 6.94627 19.7363 6.82054 19.8666 6.72035C19.9969 6.62027 20.1461 6.54673 20.3049 6.5047L20.3109 6.50371C21.0264 6.29999 21.7671 6.19639 22.5111 6.19763ZM12.793 8.78639C11.6938 8.56774 10.554 8.67948 9.51855 9.10837C8.48325 9.53726 7.59811 10.2635 6.9755 11.1953C6.3529 12.1271 6.02056 13.2229 6.02049 14.3435C6.02049 15.8462 6.61764 17.2877 7.68008 18.3504C8.74279 19.4131 10.1851 20.011 11.6879 20.011C12.8083 20.0109 13.9036 19.6783 14.8352 19.056C15.7671 18.4333 16.4942 17.5474 16.9231 16.5119C17.3518 15.4767 17.4637 14.3375 17.2451 13.2385C17.0264 12.1393 16.4873 11.1292 15.6948 10.3367C14.9023 9.5442 13.8922 9.00505 12.793 8.78639Z" fill="#4CAF4F" stroke="#4CAF4F" stroke-width="0.696069"/>
</g>
<defs>
<clipPath id="clip0_211_2332">
<rect width="33.4113" height="33.4113" fill="white" transform="scale(1.01762)"/>
</clipPath>
</defs>
</svg>
