<svg width="25" height="17" viewBox="0 0 25 17" fill="none" xmlns="http://www.w3.org/2000/svg">
<path d="M13.3071 9.30341L9.48848 15.8434L5.66991 9.30341H13.3071ZM14.3301 8.71888H4.64279L9.48848 17.0002L14.3301 8.71888Z" fill="#263238"/>
<path d="M19.9461 1.16903L23.7647 7.70903H16.1275L19.9461 1.16903ZM19.9461 0L15.1004 8.28128H24.7918L19.9461 0Z" fill="#263238"/>
<path d="M0 0L4.06296 7.32482L8.50278 0.183928L0 0Z" fill="#4CAF4F"/>
<path d="M9.48858 0.641481L13.7503 7.92543H5.21856L9.48858 0.641481Z" fill="#4CAF4F"/>
<path d="M14.8478 9.51589L19.1137 17.0001H10.379L14.7153 9.51589H14.8478Z" fill="#4CAF4F"/>
<path d="M15.7713 9.06223L19.9461 16.432L24.1788 9.06223H15.7713Z" fill="#4CAF4F"/>
</svg>
