<svg width="34" height="34" viewBox="0 0 34 34" fill="none" xmlns="http://www.w3.org/2000/svg">
<path d="M28.3333 29.7498V26.9165C28.3333 25.4136 27.7363 23.9723 26.6736 22.9096C25.6109 21.8468 24.1696 21.2498 22.6667 21.2498H21.25C20.8743 21.2498 20.514 21.1006 20.2483 20.8349C19.9826 20.5692 19.8334 20.2089 19.8334 19.8332V12.7498C19.8334 11.9984 19.5348 11.2777 19.0035 10.7464C18.4721 10.215 17.7515 9.9165 17 9.9165C16.2486 9.9165 15.5279 10.215 14.9966 10.7464C14.4652 11.2777 14.1667 11.9984 14.1667 12.7498V25.4998L10.7667 20.9665C10.5028 20.6146 10.1606 20.329 9.76714 20.1323C9.37372 19.9356 8.9399 19.8332 8.50004 19.8332H7.88521C6.65979 19.8332 5.66671 20.8262 5.66671 22.0517C5.66671 22.454 5.77579 22.8492 5.98262 23.1935L9.9167 29.7498M17 5.66651V4.24984V5.66651ZM25.5 14.1665H26.9167H25.5ZM7.08337 14.1665H8.50004H7.08337ZM10.4026 7.56909L9.40104 6.56751L10.4026 7.56909ZM23.5974 7.56909L24.599 6.56751L23.5974 7.56909Z" fill="#4CAF4F"/>
<path d="M28.3333 29.7498V26.9165C28.3333 25.4136 27.7363 23.9723 26.6736 22.9096C25.6109 21.8468 24.1696 21.2498 22.6667 21.2498H21.25C20.8743 21.2498 20.514 21.1006 20.2483 20.8349C19.9826 20.5692 19.8334 20.2089 19.8334 19.8332V12.7498C19.8334 11.9984 19.5348 11.2777 19.0035 10.7464C18.4721 10.215 17.7515 9.9165 17 9.9165V9.9165C16.2486 9.9165 15.5279 10.215 14.9966 10.7464C14.4652 11.2777 14.1667 11.9984 14.1667 12.7498V25.4998L10.7667 20.9665C10.5028 20.6146 10.1606 20.329 9.76714 20.1323C9.37372 19.9356 8.9399 19.8332 8.50004 19.8332H7.88521C6.65979 19.8332 5.66671 20.8262 5.66671 22.0517C5.66671 22.454 5.77579 22.8492 5.98262 23.1935L9.9167 29.7498M17 5.66651V4.24984M25.5 14.1665H26.9167M7.08337 14.1665H8.50004M10.4026 7.56909L9.40104 6.56751M23.5974 7.56909L24.599 6.56751" stroke="#4CAF4F" stroke-width="1.39214" stroke-linecap="round" stroke-linejoin="round"/>
</svg>
