<svg width="46" height="39" viewBox="0 0 46 39" fill="none" xmlns="http://www.w3.org/2000/svg">
<path d="M45.2677 26.4643C45.2677 33.3876 39.6553 39 32.7321 39L13.9285 39C12.0054 39 10.4464 37.441 10.4464 35.5179L10.4464 11.8393C10.4464 7.99308 13.5644 4.87508 17.4107 4.87508L41.7856 4.87508C43.7087 4.87508 45.2677 6.43409 45.2677 8.35721L45.2677 26.4643Z" fill="#E8F5E9"/>
<path d="M16.7073 6.96451C14.2202 6.96451 12.1954 9.00775 12.1954 11.5055C12.1954 13.0855 13.0068 14.4807 14.232 15.2939C12.7522 15.7887 11.4718 16.7135 10.5326 17.9233C10.0134 17.5239 9.43319 17.2027 8.80774 16.9725C9.75618 16.2684 10.376 15.1373 10.376 13.8661C10.376 11.7477 8.6627 10.0136 6.55719 10.0136C4.45167 10.0136 2.7384 11.7477 2.7384 13.8661C2.7384 15.1381 3.35871 16.2696 4.30795 16.9738C1.79484 17.9011 0 20.3291 0 23.1866V25.1938C0.000257223 25.3468 0.0614644 25.4934 0.16999 25.6012C0.278515 25.7092 0.425363 25.7693 0.57838 25.7688H9.38467C9.40602 25.7711 9.42737 25.7724 9.44871 25.7722H23.9663C23.9877 25.7724 24.0093 25.7711 24.0304 25.7688H32.8373C33.1539 25.7675 33.4103 25.5106 33.4111 25.1938V23.1866C33.4111 20.3291 31.6193 17.9011 29.1075 16.9735C30.0568 16.2696 30.6771 15.1378 30.6771 13.8658C30.6771 11.7475 28.9638 10.0133 26.8583 10.0133C24.7528 10.0133 23.0395 11.7475 23.0395 13.8658C23.0395 15.1371 23.6596 16.2683 24.608 16.9723C23.9813 17.2029 23.4008 17.5252 22.8808 17.9256C21.9421 16.715 20.6635 15.789 19.1837 15.2939C20.4086 14.4807 21.2203 13.0855 21.2203 11.5055C21.2203 9.00775 19.1945 6.96451 16.7074 6.96451H16.7073ZM16.7073 8.11665C18.5674 8.11665 20.067 9.62628 20.067 11.5055C20.067 13.3699 18.5908 14.8649 16.7512 14.8889C16.7366 14.8889 16.7222 14.8868 16.7073 14.8868C16.6924 14.8868 16.6782 14.8889 16.6633 14.8889C14.8238 14.8652 13.3486 13.37 13.3486 11.5055C13.3486 9.62602 14.8469 8.11665 16.707 8.11665H16.7073ZM6.55725 11.1657C8.03318 11.1657 9.22389 12.3636 9.22389 13.866C9.22389 15.3584 8.04858 16.5512 6.58655 16.5674C6.57678 16.5674 6.56726 16.5663 6.55723 16.5663C6.54746 16.5663 6.53794 16.5674 6.52791 16.5674C5.06588 16.5512 3.89057 15.3581 3.89057 13.866C3.89057 12.3636 5.08129 11.1657 6.55721 11.1657H6.55725ZM26.8579 11.1657C28.3339 11.1657 29.5246 12.3636 29.5246 13.866C29.5246 15.3584 28.3493 16.5512 26.8872 16.5674C26.8775 16.5674 26.868 16.5663 26.8579 16.5663C26.8481 16.5663 26.8386 16.5674 26.8286 16.5674C25.3666 16.5512 24.1913 15.3581 24.1913 13.866C24.1913 12.3636 25.382 11.1657 26.8579 11.1657H26.8579ZM16.6632 16.0409C16.6778 16.0412 16.6922 16.043 16.7071 16.043C16.7218 16.043 16.7362 16.0409 16.7511 16.0409C20.4403 16.0646 23.3927 19.0424 23.3927 22.7701L23.3924 24.6197H10.0224V22.7701C10.0224 19.0421 12.9739 16.0646 16.6626 16.0409H16.6632ZM6.51314 17.7208C6.5278 17.7211 6.5422 17.7229 6.55712 17.7229C6.57203 17.7229 6.58618 17.7208 6.6011 17.7208C7.84889 17.7308 8.98767 18.1611 9.89444 18.8809C9.24558 20.029 8.87035 21.3541 8.87035 22.7704V24.6156H1.15167V23.1865C1.15167 20.157 3.53364 17.7445 6.51301 17.7206L6.51314 17.7208ZM26.8138 17.7208C26.8287 17.7211 26.8429 17.7229 26.8578 17.7229C26.8727 17.7229 26.8869 17.7208 26.9018 17.7208C29.8812 17.7445 32.2631 20.1573 32.2631 23.1868V24.6156H24.5405L24.5402 22.7704C24.5402 21.3549 24.166 20.0308 23.5185 18.883C24.4255 18.1621 25.565 17.7308 26.8139 17.7208H26.8138Z" fill="#103E13"/>
</svg>
