<svg width="34" height="34" viewBox="0 0 34 34" fill="none" xmlns="http://www.w3.org/2000/svg">
<path d="M6.90594 5.66646H27.0933C28.2673 5.66646 29.3935 6.13326 30.2237 6.96333C31.0539 7.79351 31.5205 8.91964 31.5206 10.0937V23.9061C31.5206 25.0802 31.0539 26.2062 30.2237 27.0364C29.3934 27.8667 28.2675 28.3333 27.0933 28.3333H6.90594C5.73188 28.3332 4.60575 27.8666 3.77557 27.0364C2.94551 26.2062 2.4787 25.0801 2.4787 23.9061V10.0937C2.47876 8.91964 2.94539 7.79351 3.77557 6.96333C4.60575 6.13314 5.73188 5.66652 6.90594 5.66646ZM3.89582 23.9061C3.89582 24.7043 4.2129 25.4702 4.77729 26.0347C5.34179 26.5992 6.10761 26.9171 6.90594 26.9172H27.0933C27.8917 26.9172 28.6574 26.5993 29.222 26.0347C29.7865 25.4701 30.1044 24.7045 30.1044 23.9061V13.4586H3.89582V23.9061ZM22.3123 20.5422H25.5003C25.688 20.5423 25.8684 20.6161 26.0012 20.7489C26.1339 20.8816 26.2078 21.062 26.2079 21.2497C26.2079 21.4374 26.1337 21.6178 26.0012 21.7506C25.8684 21.8833 25.688 21.9582 25.5003 21.9583H22.3123C22.1245 21.9583 21.9443 21.8834 21.8114 21.7506C21.6788 21.6178 21.6038 21.4375 21.6038 21.2497C21.6039 21.062 21.6787 20.8816 21.8114 20.7489C21.9442 20.6162 22.1246 20.5422 22.3123 20.5422ZM6.90594 7.08357C6.10761 7.08363 5.34179 7.40054 4.77729 7.96504C4.21278 8.52955 3.89588 9.29536 3.89582 10.0937V12.0415H30.1044V10.0937C30.1044 9.29536 29.7865 8.52955 29.222 7.96504C28.6574 7.40065 27.8916 7.08357 27.0933 7.08357H6.90594Z" fill="#4CAF4F" stroke="#4CAF4F" stroke-width="0.696069"/>
</svg>
