<svg width="34" height="34" viewBox="0 0 34 34" fill="none" xmlns="http://www.w3.org/2000/svg">
<mask id="path-1-inside-1_211_2338" fill="white">
<path d="M20.0541 16.7482C19.8835 16.7482 19.7251 16.7013 19.5845 16.6259V16.6279C19.5845 16.8963 19.4802 17.1483 19.2909 17.337C19.1017 17.5263 18.8499 17.6306 18.5818 17.6306C18.4088 17.6306 18.2484 17.5825 18.1062 17.5051C18.0919 17.7505 17.9937 17.98 17.8187 18.1552C17.6294 18.3445 17.3776 18.4488 17.1094 18.4488C16.5765 18.4488 16.1438 18.0299 16.1126 17.5049C15.9477 17.594 15.7613 17.6407 15.5691 17.6284C15.0449 17.594 14.6344 17.1411 14.6344 16.597V12.0873L14.1209 12.977C13.9253 13.3172 13.5592 13.5285 13.165 13.5285C12.9729 13.5285 12.7831 13.4781 12.6151 13.3818C12.4058 13.2605 12.2561 13.0658 12.1939 12.8328C12.1313 12.5996 12.1637 12.3558 12.2847 12.1469C12.2848 12.1469 13.9648 9.23761 14.0673 9.0589C14.0795 9.03203 14.1142 8.9541 14.1437 8.88768C14.1719 8.82427 14.1961 8.75918 14.2193 8.69376C14.726 7.26344 15.9805 6.37496 17.4934 6.37496C19.4581 6.37496 21.0565 8.10818 21.0565 10.2386L21.0566 15.7454C21.0566 16.0135 20.9525 16.2653 20.7634 16.4547C20.5742 16.644 20.3224 16.7483 20.054 16.7483L20.0541 16.7482ZM17.4934 6.90772C16.1934 6.90772 15.1572 7.64202 14.7215 8.87194C14.6936 8.95004 14.6646 9.02814 14.6307 9.10424C14.5324 9.32469 14.5324 9.32469 14.5047 9.35639L14.5011 9.35322C14.3639 9.61206 13.9564 10.3178 12.746 12.4135C12.6962 12.4994 12.683 12.5992 12.7084 12.6947C12.7341 12.7902 12.7957 12.8706 12.881 12.9198C13.1456 13.0719 13.5081 12.9737 13.659 12.7109L14.6701 10.9603C14.7305 10.856 14.8527 10.8047 14.9698 10.8365C15.0863 10.8677 15.1673 10.9733 15.1673 11.0938V16.5972C15.1673 16.8569 15.3632 17.081 15.604 17.0968C15.7428 17.1042 15.8723 17.0576 15.9696 16.9605C16.0581 16.872 16.1068 16.7542 16.1068 16.6282V13.0289C16.1068 12.8817 16.2261 12.7624 16.3733 12.7624C16.5205 12.7624 16.6398 12.8816 16.6398 13.0289L16.6397 17.4463C16.6397 17.7053 16.8504 17.9161 17.1094 17.9161C17.2353 17.9161 17.3534 17.8674 17.442 17.7789C17.5305 17.6903 17.5792 17.5722 17.5792 17.4463V13.0289C17.5792 12.8817 17.6984 12.7624 17.8457 12.7624C17.9929 12.7624 18.1122 12.8816 18.1122 13.0289L18.1121 16.5868V16.6282C18.1121 16.887 18.3228 17.0978 18.582 17.0978C18.7077 17.0978 18.8255 17.0489 18.9146 16.9601C19.003 16.8718 19.0518 16.754 19.0518 16.628V13.0287C19.0518 12.8815 19.1709 12.7622 19.3183 12.7622C19.4655 12.7622 19.5848 12.8814 19.5848 13.0287L19.5845 15.7456C19.5845 16.0047 19.7952 16.2155 20.0541 16.2155C20.1801 16.2155 20.2979 16.1666 20.3863 16.0783C20.4751 15.9896 20.5237 15.8714 20.5237 15.7456L20.5238 10.2387C20.5238 8.40223 19.1644 6.90778 17.4934 6.90778L17.4934 6.90772Z"/>
</mask>
<path d="M20.0541 16.7482C19.8835 16.7482 19.7251 16.7013 19.5845 16.6259V16.6279C19.5845 16.8963 19.4802 17.1483 19.2909 17.337C19.1017 17.5263 18.8499 17.6306 18.5818 17.6306C18.4088 17.6306 18.2484 17.5825 18.1062 17.5051C18.0919 17.7505 17.9937 17.98 17.8187 18.1552C17.6294 18.3445 17.3776 18.4488 17.1094 18.4488C16.5765 18.4488 16.1438 18.0299 16.1126 17.5049C15.9477 17.594 15.7613 17.6407 15.5691 17.6284C15.0449 17.594 14.6344 17.1411 14.6344 16.597V12.0873L14.1209 12.977C13.9253 13.3172 13.5592 13.5285 13.165 13.5285C12.9729 13.5285 12.7831 13.4781 12.6151 13.3818C12.4058 13.2605 12.2561 13.0658 12.1939 12.8328C12.1313 12.5996 12.1637 12.3558 12.2847 12.1469C12.2848 12.1469 13.9648 9.23761 14.0673 9.0589C14.0795 9.03203 14.1142 8.9541 14.1437 8.88768C14.1719 8.82427 14.1961 8.75918 14.2193 8.69376C14.726 7.26344 15.9805 6.37496 17.4934 6.37496C19.4581 6.37496 21.0565 8.10818 21.0565 10.2386L21.0566 15.7454C21.0566 16.0135 20.9525 16.2653 20.7634 16.4547C20.5742 16.644 20.3224 16.7483 20.054 16.7483L20.0541 16.7482ZM17.4934 6.90772C16.1934 6.90772 15.1572 7.64202 14.7215 8.87194C14.6936 8.95004 14.6646 9.02814 14.6307 9.10424C14.5324 9.32469 14.5324 9.32469 14.5047 9.35639L14.5011 9.35322C14.3639 9.61206 13.9564 10.3178 12.746 12.4135C12.6962 12.4994 12.683 12.5992 12.7084 12.6947C12.7341 12.7902 12.7957 12.8706 12.881 12.9198C13.1456 13.0719 13.5081 12.9737 13.659 12.7109L14.6701 10.9603C14.7305 10.856 14.8527 10.8047 14.9698 10.8365C15.0863 10.8677 15.1673 10.9733 15.1673 11.0938V16.5972C15.1673 16.8569 15.3632 17.081 15.604 17.0968C15.7428 17.1042 15.8723 17.0576 15.9696 16.9605C16.0581 16.872 16.1068 16.7542 16.1068 16.6282V13.0289C16.1068 12.8817 16.2261 12.7624 16.3733 12.7624C16.5205 12.7624 16.6398 12.8816 16.6398 13.0289L16.6397 17.4463C16.6397 17.7053 16.8504 17.9161 17.1094 17.9161C17.2353 17.9161 17.3534 17.8674 17.442 17.7789C17.5305 17.6903 17.5792 17.5722 17.5792 17.4463V13.0289C17.5792 12.8817 17.6984 12.7624 17.8457 12.7624C17.9929 12.7624 18.1122 12.8816 18.1122 13.0289L18.1121 16.5868V16.6282C18.1121 16.887 18.3228 17.0978 18.582 17.0978C18.7077 17.0978 18.8255 17.0489 18.9146 16.9601C19.003 16.8718 19.0518 16.754 19.0518 16.628V13.0287C19.0518 12.8815 19.1709 12.7622 19.3183 12.7622C19.4655 12.7622 19.5848 12.8814 19.5848 13.0287L19.5845 15.7456C19.5845 16.0047 19.7952 16.2155 20.0541 16.2155C20.1801 16.2155 20.2979 16.1666 20.3863 16.0783C20.4751 15.9896 20.5237 15.8714 20.5237 15.7456L20.5238 10.2387C20.5238 8.40223 19.1644 6.90778 17.4934 6.90778L17.4934 6.90772Z" fill="#4CAF4F"/>
<path d="M20.0541 16.7482V15.8038H23.3908L20.5491 17.5526L20.0541 16.7482ZM19.5845 16.6259H18.64V15.0479L20.0308 15.7936L19.5845 16.6259ZM19.2909 17.337L18.6231 16.6692L18.624 16.6683L19.2909 17.337ZM18.1062 17.5051L17.1634 17.4499L17.2503 15.9635L18.5579 16.6756L18.1062 17.5051ZM17.8187 18.1552L18.4868 18.8227L18.4865 18.8231L17.8187 18.1552ZM16.1126 17.5049L15.6636 16.674L16.9675 15.9693L17.0554 17.4489L16.1126 17.5049ZM15.5691 17.6284L15.5085 18.5709L15.5073 18.5708L15.5691 17.6284ZM14.6344 12.0873L13.8164 11.6152L15.5788 8.56193V12.0873H14.6344ZM14.1209 12.977L13.302 12.5063L13.3029 12.5048L14.1209 12.977ZM12.6151 13.3818L12.1455 14.2013L12.1414 14.1989L12.6151 13.3818ZM12.1939 12.8328L13.106 12.5879L13.1063 12.589L12.1939 12.8328ZM12.2847 12.1469L11.4673 11.6736L11.7402 11.2024H12.2847V12.1469ZM14.0673 9.0589L14.9275 9.44891L14.9089 9.48981L14.8866 9.52876L14.0673 9.0589ZM14.1437 8.88768L13.2808 8.50391L13.2808 8.5039L14.1437 8.88768ZM14.2193 8.69376L15.1096 9.0091L15.1095 9.00936L14.2193 8.69376ZM21.0565 10.2386L20.112 10.2387V10.2386H21.0565ZM21.0566 15.7454L22.0011 15.7454V15.7454H21.0566ZM20.7634 16.4547L21.4319 17.1219L21.4313 17.1225L20.7634 16.4547ZM20.054 16.7483V17.6927H16.7173L19.5591 15.9439L20.054 16.7483ZM17.4934 6.90772V5.96328H18.7455L18.4015 7.16718L17.4934 6.90772ZM14.7215 8.87194L15.6117 9.18732L15.611 9.18935L14.7215 8.87194ZM14.6307 9.10424L15.4935 9.48834L15.4933 9.48884L14.6307 9.10424ZM14.5047 9.35639L15.2159 9.97781L14.5981 10.6849L13.8874 10.0712L14.5047 9.35639ZM14.5011 9.35322L13.6666 8.91096L14.2215 7.86388L15.1184 8.63845L14.5011 9.35322ZM12.746 12.4135L13.5638 12.8859L13.5634 12.8865L12.746 12.4135ZM12.7084 12.6947L11.7964 12.9402L11.7957 12.9373L12.7084 12.6947ZM12.881 12.9198L12.4106 13.7388L12.4088 13.7378L12.881 12.9198ZM13.659 12.7109L12.8399 12.2408L12.8412 12.2385L13.659 12.7109ZM14.6701 10.9603L13.8523 10.4879L13.8529 10.4869L14.6701 10.9603ZM14.9698 10.8365L14.7254 11.7487L14.7231 11.7481L14.9698 10.8365ZM15.604 17.0968L15.5541 18.04L15.542 18.0392L15.604 17.0968ZM15.9696 16.9605L16.6375 17.6283L16.6369 17.6289L15.9696 16.9605ZM16.6398 13.0289H17.5843V13.029L16.6398 13.0289ZM16.6397 17.4463H15.6952V17.4463L16.6397 17.4463ZM17.442 17.7789L18.1105 18.4461L18.1092 18.4474L17.442 17.7789ZM18.1122 13.0289H19.0567V13.029L18.1122 13.0289ZM18.1121 16.5868H17.1676V16.5868L18.1121 16.5868ZM18.9146 16.9601L19.5818 17.6286L19.5812 17.6292L18.9146 16.9601ZM19.5848 13.0287H20.5292V13.0288L19.5848 13.0287ZM19.5845 15.7456H18.64V15.7455L19.5845 15.7456ZM20.3863 16.0783L21.0541 16.7462L21.0535 16.7468L20.3863 16.0783ZM20.5237 15.7456H19.5792V15.7455L20.5237 15.7456ZM20.5238 10.2387H21.4683V10.2388L20.5238 10.2387ZM17.4934 6.90778V7.85222H16.2413L16.5853 6.64832L17.4934 6.90778ZM20.0541 17.6927C19.7063 17.6927 19.3958 17.5964 19.1382 17.4583L20.0308 15.7936C20.043 15.8001 20.0507 15.8026 20.0538 15.8034C20.0564 15.8042 20.0561 15.8038 20.0541 15.8038V17.6927ZM20.5289 16.6259V16.6279H18.64V16.6259H20.5289ZM20.5289 16.6279C20.5289 17.146 20.3256 17.6389 19.9579 18.0057L18.624 16.6683C18.6307 16.6616 18.6341 16.6558 18.636 16.6511C18.638 16.6464 18.64 16.6391 18.64 16.6279H20.5289ZM19.9588 18.0048C19.5922 18.3713 19.1001 18.575 18.5818 18.575V16.6861C18.5927 16.6861 18.5998 16.6841 18.6046 16.6821C18.6095 16.6801 18.6157 16.6766 18.6231 16.6692L19.9588 18.0048ZM18.5818 18.575C18.2295 18.575 17.9152 18.4764 17.6545 18.3345L18.5579 16.6756C18.5702 16.6823 18.578 16.6849 18.5811 16.6857C18.5837 16.6864 18.5835 16.6861 18.5818 16.6861V18.575ZM19.049 17.5602C19.0219 18.025 18.8333 18.4759 18.4868 18.8227L17.1505 17.4878C17.154 17.4843 17.156 17.4812 17.1577 17.4773C17.1596 17.473 17.1625 17.4644 17.1634 17.4499L19.049 17.5602ZM18.4865 18.8231C18.1199 19.1896 17.6278 19.3932 17.1094 19.3932V17.5043C17.1204 17.5043 17.1276 17.5023 17.1324 17.5004C17.1372 17.4984 17.1435 17.4948 17.1509 17.4874L18.4865 18.8231ZM17.1094 19.3932C16.0667 19.3932 15.2301 18.5749 15.1698 17.5609L17.0554 17.4489C17.0564 17.465 17.0629 17.4791 17.0746 17.4901C17.0802 17.4955 17.086 17.499 17.091 17.5011C17.0954 17.5029 17.101 17.5043 17.1094 17.5043V19.3932ZM16.5617 18.3358C16.2566 18.5006 15.8949 18.5957 15.5085 18.5709L15.6296 16.6859C15.6296 16.6859 15.6317 16.6861 15.6366 16.6849C15.642 16.6837 15.6512 16.6807 15.6636 16.674L16.5617 18.3358ZM15.5073 18.5708C14.4586 18.502 13.6899 17.6103 13.6899 16.597H15.5788C15.5788 16.629 15.5904 16.6536 15.6049 16.6696C15.6191 16.6852 15.6287 16.6858 15.6309 16.686L15.5073 18.5708ZM13.6899 16.597V12.0873H15.5788V16.597H13.6899ZM15.4523 12.5595L14.9388 13.4491L13.3029 12.5048L13.8164 11.6152L15.4523 12.5595ZM14.9397 13.4476C14.5747 14.0825 13.8954 14.473 13.165 14.473V12.5841C13.2229 12.5841 13.2758 12.552 13.302 12.5063L14.9397 13.4476ZM13.165 14.473C12.8078 14.473 12.4562 14.3793 12.1455 14.2013L13.0846 12.5624C13.11 12.5769 13.1379 12.5841 13.165 12.5841V14.473ZM12.1414 14.1989C11.7174 13.9531 11.4087 13.553 11.2814 13.0766L13.1063 12.589C13.1055 12.5858 13.1031 12.5801 13.0986 12.5741C13.094 12.5682 13.0899 12.5654 13.0888 12.5648L12.1414 14.1989ZM11.2817 13.0776C11.1539 12.6015 11.2208 12.0994 11.4673 11.6736L13.102 12.6201C13.1033 12.6178 13.1057 12.6124 13.1067 12.6048C13.1077 12.5971 13.1069 12.591 13.106 12.5879L11.2817 13.0776ZM12.2847 11.2024C11.8214 11.3239 11.4746 11.6613 11.472 11.6656C11.4712 11.6671 11.4699 11.6693 11.4695 11.67C11.4692 11.6704 11.4688 11.6711 11.4687 11.6713C11.4686 11.6715 11.4684 11.6717 11.4684 11.6718C11.4683 11.672 11.4683 11.672 11.4687 11.6714C11.4693 11.6703 11.4704 11.6684 11.4719 11.6657C11.475 11.6603 11.4797 11.6523 11.4859 11.6416C11.4982 11.6203 11.5162 11.589 11.5393 11.5491C11.5854 11.4693 11.6514 11.3549 11.731 11.2172C11.8901 10.9417 12.1033 10.5725 12.3197 10.1977C12.7532 9.4468 13.1977 8.67682 13.248 8.58904L14.8866 9.52876C14.8344 9.61969 14.3876 10.3937 13.9555 11.1421C13.7391 11.517 13.5259 11.8863 13.3667 12.1618C13.2871 12.2996 13.2211 12.414 13.1749 12.4939C13.1518 12.5339 13.1337 12.5653 13.1213 12.5867C13.1151 12.5974 13.1103 12.6057 13.1071 12.6113C13.1054 12.6141 13.1041 12.6165 13.1031 12.6182C13.1027 12.6189 13.1021 12.6199 13.1016 12.6209C13.1014 12.6212 13.1007 12.6222 13.1 12.6235C13.0996 12.6243 13.0982 12.6265 13.0973 12.628C13.0947 12.6324 12.7479 12.9699 12.2847 13.0913V11.2024ZM13.2072 8.66889C13.2176 8.64596 13.2505 8.57204 13.2808 8.50391L15.0067 9.27145C14.9779 9.33616 14.9414 9.4181 14.9275 9.44891L13.2072 8.66889ZM13.2808 8.5039C13.2939 8.47438 13.3084 8.43667 13.3292 8.37817L15.1095 9.00936C15.0838 9.0817 15.05 9.17415 15.0067 9.27146L13.2808 8.5039ZM13.3291 8.37843C13.9688 6.57255 15.5788 5.43051 17.4934 5.43051V7.3194C16.3821 7.3194 15.4832 7.95433 15.1096 9.0091L13.3291 8.37843ZM17.4934 5.43051C20.0503 5.43051 22.0009 7.66005 22.0009 10.2386H20.112C20.112 8.5563 18.8659 7.3194 17.4934 7.3194V5.43051ZM22.0009 10.2386L22.0011 15.7454L20.1122 15.7455L20.112 10.2387L22.0009 10.2386ZM22.0011 15.7454C22.0011 16.2634 21.7979 16.7552 21.4319 17.1219L20.095 15.7875C20.1025 15.78 20.1061 15.7737 20.1081 15.7687C20.1102 15.7637 20.1122 15.7565 20.1122 15.7454H22.0011ZM21.4313 17.1225C21.0646 17.4892 20.5725 17.6927 20.054 17.6927V15.8038C20.0651 15.8038 20.0724 15.8018 20.0772 15.7998C20.082 15.7978 20.0882 15.7943 20.0956 15.7869L21.4313 17.1225ZM19.5591 15.9439L19.5591 15.9439L20.5491 17.5526L20.549 17.5526L19.5591 15.9439ZM17.4934 7.85217C16.5955 7.85217 15.9146 8.33253 15.6117 9.18732L13.8313 8.55656C14.3999 6.95152 15.7913 5.96328 17.4934 5.96328V7.85217ZM15.611 9.18935C15.5812 9.2729 15.5425 9.37841 15.4935 9.48834L13.7679 8.72013C13.7867 8.67787 13.8061 8.62718 13.832 8.55453L15.611 9.18935ZM15.4933 9.48884C15.4501 9.58584 15.4138 9.66776 15.3861 9.72325C15.3689 9.75769 15.341 9.81076 15.3006 9.86955C15.2597 9.92912 15.2192 9.97404 15.2159 9.97781L13.7935 8.73498C13.7957 8.73245 13.795 8.73327 13.7939 8.73457C13.7924 8.73625 13.7888 8.74052 13.784 8.7464C13.779 8.75248 13.7727 8.76033 13.7656 8.76967C13.7585 8.77909 13.7512 8.78912 13.7439 8.79969C13.7291 8.82122 13.7177 8.84008 13.7096 8.85434C13.7021 8.86765 13.6974 8.87687 13.6964 8.87895C13.6953 8.88109 13.696 8.87983 13.6992 8.87296C13.7023 8.8663 13.7067 8.85671 13.713 8.84275C13.7193 8.82892 13.7268 8.81221 13.736 8.79156C13.7453 8.77095 13.7558 8.74732 13.7681 8.71963L15.4933 9.48884ZM13.8874 10.0712L13.8837 10.068L15.1184 8.63845L15.122 8.64162L13.8874 10.0712ZM15.3355 9.79548C15.1877 10.0744 14.7658 10.8048 13.5638 12.8859L11.9281 11.9412C13.147 9.83083 13.54 9.14973 13.6666 8.91096L15.3355 9.79548ZM13.5634 12.8865C13.639 12.7559 13.66 12.5984 13.6212 12.4521L11.7957 12.9373C11.7061 12.6001 11.7535 12.243 11.9285 11.9405L13.5634 12.8865ZM13.6204 12.4492C13.5815 12.3048 13.486 12.1786 13.3531 12.1019L12.4088 13.7378C12.1054 13.5626 11.8867 13.2755 11.7964 12.9402L13.6204 12.4492ZM13.3514 12.1009C13.2439 12.0391 13.1393 12.0395 13.0671 12.059C12.9952 12.0783 12.903 12.1308 12.8399 12.2408L14.4781 13.181C14.0665 13.8982 13.1258 14.1496 12.4106 13.7388L13.3514 12.1009ZM12.8412 12.2385L13.8523 10.4879L15.4879 11.4327L14.4768 13.1833L12.8412 12.2385ZM13.8529 10.4869C14.1257 10.0159 14.6825 9.78025 15.2166 9.92482L14.7231 11.7481C15.0229 11.8292 15.3354 11.696 15.4874 11.4336L13.8529 10.4869ZM15.2142 9.92418C15.7441 10.0661 16.1117 10.5463 16.1117 11.0938H14.2228C14.2228 11.4003 14.4286 11.6692 14.7254 11.7487L15.2142 9.92418ZM16.1117 11.0938V16.5972H14.2228V11.0938H16.1117ZM16.1117 16.5972C16.1117 16.4896 16.0718 16.3917 16.0064 16.3169C15.941 16.2421 15.8257 16.1649 15.666 16.1544L15.542 18.0392C14.7469 17.9869 14.2228 17.2943 14.2228 16.5972H16.1117ZM15.6539 16.1537C15.5423 16.1478 15.406 16.1887 15.3024 16.2921L16.6369 17.6289C16.3387 17.9265 15.9434 18.0605 15.5541 18.04L15.6539 16.1537ZM15.3018 16.2927C15.2122 16.3823 15.1624 16.5051 15.1624 16.6282H17.0513C17.0513 17.0033 16.904 17.3618 16.6375 17.6283L15.3018 16.2927ZM15.1624 16.6282V13.0289H17.0513V16.6282H15.1624ZM15.1624 13.0289C15.1624 12.3601 15.7045 11.818 16.3733 11.818V13.7069C16.7477 13.7069 17.0513 13.4033 17.0513 13.0289H15.1624ZM16.3733 11.818C17.0417 11.818 17.5843 12.3596 17.5843 13.0289H15.6954C15.6954 13.4035 15.9993 13.7069 16.3733 13.7069V11.818ZM17.5843 13.029L17.5841 17.4464L15.6952 17.4463L15.6954 13.0289L17.5843 13.029ZM17.5841 17.4463C17.5841 17.1837 17.372 16.9717 17.1094 16.9717V18.8606C16.3288 18.8606 15.6952 18.227 15.6952 17.4463H17.5841ZM17.1094 16.9717C16.9865 16.9717 16.8643 17.0212 16.7749 17.1105L18.1092 18.4474C17.8425 18.7136 17.484 18.8606 17.1094 18.8606V16.9717ZM16.7736 17.1117C16.6843 17.2012 16.6348 17.3234 16.6348 17.4463H18.5236C18.5236 17.8209 18.3767 18.1794 18.1105 18.4461L16.7736 17.1117ZM16.6348 17.4463V13.0289H18.5236V17.4463H16.6348ZM16.6348 13.0289C16.6348 12.3605 17.1764 11.818 17.8457 11.818V13.7069C18.2204 13.7069 18.5236 13.4029 18.5236 13.0289H16.6348ZM17.8457 11.818C18.5141 11.818 19.0567 12.3596 19.0567 13.0289H17.1678C17.1678 13.4035 17.4717 13.7069 17.8457 13.7069V11.818ZM19.0567 13.029L19.0565 16.5869L17.1676 16.5868L17.1678 13.0289L19.0567 13.029ZM19.0565 16.5868V16.6282H17.1676V16.5868H19.0565ZM19.0565 16.6282C19.0565 16.365 18.844 16.1534 18.582 16.1534V18.0422C17.8017 18.0422 17.1676 17.4091 17.1676 16.6282H19.0565ZM18.582 16.1534C18.4565 16.1534 18.335 16.2044 18.248 16.2911L19.5812 17.6292C19.3159 17.8934 18.9588 18.0422 18.582 18.0422V16.1534ZM18.2474 16.2917C18.1571 16.3818 18.1073 16.5051 18.1073 16.628H19.9962C19.9962 17.003 19.849 17.3618 19.5818 17.6286L18.2474 16.2917ZM18.1073 16.628V13.0287H19.9962V16.628H18.1073ZM18.1073 13.0287C18.1073 12.3603 18.6489 11.8178 19.3183 11.8178V13.7067C19.6929 13.7067 19.9962 13.4028 19.9962 13.0287H18.1073ZM19.3183 11.8178C19.9867 11.8178 20.5292 12.3594 20.5292 13.0287H18.6403C18.6403 13.4034 18.9443 13.7067 19.3183 13.7067V11.8178ZM20.5292 13.0288L20.5289 15.7457L18.64 15.7455L18.6403 13.0286L20.5292 13.0288ZM20.5289 15.7456C20.5289 15.4836 20.3173 15.2711 20.0541 15.2711V17.16C19.2732 17.16 18.64 16.5259 18.64 15.7456H20.5289ZM20.0541 15.2711C19.9302 15.2711 19.8079 15.3212 19.7191 15.4099L21.0535 16.7468C20.7878 17.012 20.4299 17.16 20.0541 17.16V15.2711ZM19.7185 15.4105C19.6286 15.5005 19.5792 15.6232 19.5792 15.7456H21.4681C21.4681 16.1196 21.3216 16.4787 21.0541 16.7462L19.7185 15.4105ZM19.5792 15.7455L19.5794 10.2387L21.4683 10.2388L21.4681 15.7456L19.5792 15.7455ZM19.5794 10.2387C19.5794 8.83776 18.5607 7.85222 17.4934 7.85222V5.96333C19.7681 5.96333 21.4683 7.9667 21.4683 10.2387H19.5794ZM16.5853 6.64832L16.5853 6.64827L18.4015 7.16718L18.4015 7.16724L16.5853 6.64832Z" fill="#4CAF4F" mask="url(#path-1-inside-1_211_2338)"/>
<path d="M8.47335 18.568L8.42068 18.5402C8.4082 18.5627 8.37314 18.6257 8.32131 18.7191C8.33972 18.7283 8.35836 18.7359 8.37696 18.7429C8.40866 18.6858 8.44043 18.6274 8.47335 18.568Z" fill="#4CAF4F" stroke="#4CAF4F" stroke-width="0.928093"/>
<mask id="path-4-inside-2_211_2338" fill="white">
<path d="M28.0627 25.9659C27.5709 26.7861 26.7621 27.3475 25.785 27.5471C24.8166 27.7445 23.7981 27.5625 22.9166 27.0339L18.1941 24.201C17.9643 24.0631 17.8018 23.8442 17.7367 23.5842C17.6721 23.3247 17.7125 23.0551 17.8502 22.8255C17.9361 22.682 18.0566 22.5689 18.1963 22.4852L18.195 22.4844C17.9652 22.3466 17.8026 22.1276 17.7379 21.8679C17.6728 21.6083 17.7132 21.3386 17.851 21.1086C17.9398 20.961 18.0615 20.8455 18.2003 20.7635C17.9987 20.6249 17.8535 20.4234 17.7938 20.1844C17.7287 19.9246 17.7691 19.6551 17.9069 19.4254C18.0446 19.1957 18.2637 19.0333 18.5234 18.9684C18.6045 18.948 18.6868 18.938 18.7682 18.938C18.9281 18.9382 19.085 18.9787 19.2292 19.0541C19.238 18.8674 19.2936 18.684 19.4027 18.5266C19.7019 18.0949 20.3014 17.9754 20.7683 18.2556L24.6355 20.5753L24.137 19.6774C23.9458 19.3346 23.9528 18.9118 24.1555 18.5737C24.2543 18.4091 24.3955 18.2724 24.5642 18.1778C24.7029 18.1011 24.8531 18.0647 25.0013 18.0647C25.3195 18.0648 25.6286 18.2327 25.7931 18.53C26.3665 19.5631 27.4486 21.5116 27.5247 21.6477C27.5409 21.6712 27.5898 21.7413 27.6316 21.8009C27.6715 21.8574 27.7146 21.9115 27.7591 21.9652C28.7247 23.1357 28.8412 24.6685 28.0627 25.9659L28.0627 25.9659ZM27.348 22.3049C27.2949 22.2406 27.2429 22.175 27.1955 22.1074C27.0513 21.9028 27.0476 21.8975 27.0368 21.8439C26.8682 21.5651 26.457 20.8248 25.3267 18.7885C25.2276 18.6098 25.0023 18.5445 24.8229 18.6436C24.7346 18.693 24.6637 18.7619 24.612 18.8482C24.5072 19.023 24.5032 19.2412 24.6021 19.4185L25.5831 21.1859C25.6416 21.2914 25.6221 21.4229 25.5355 21.5067C25.4491 21.5906 25.3169 21.6053 25.2131 21.5435L20.4941 18.7125C20.2716 18.5792 19.9784 18.6314 19.8409 18.83C19.7618 18.9442 19.7366 19.0804 19.7696 19.2134C19.8 19.3349 19.8763 19.4373 19.9842 19.5021C19.9846 19.5022 19.9847 19.5026 19.9851 19.5027L23.0706 21.3538C23.1967 21.4295 23.2376 21.5931 23.1618 21.7194C23.0861 21.8454 22.9227 21.8866 22.7962 21.8107L19.0082 19.5383C18.9007 19.4739 18.7742 19.4549 18.6527 19.4854C18.5309 19.5158 18.4284 19.5919 18.3638 19.6998C18.2991 19.8075 18.2804 19.9338 18.3104 20.0553C18.3408 20.1768 18.4171 20.2794 18.5249 20.3442L19.262 20.7862L22.3127 22.6166C22.4389 22.6924 22.4798 22.8559 22.404 22.9822C22.3283 23.1082 22.1649 23.1493 22.0384 23.0735L18.9523 21.222C18.7303 21.0885 18.4413 21.1609 18.3078 21.3832C18.243 21.491 18.2243 21.6173 18.2544 21.7388C18.2847 21.8603 18.361 21.9628 18.469 22.0277L19.2256 22.4816L21.5551 23.8792C21.6813 23.955 21.7221 24.1185 21.6464 24.2449C21.5706 24.3709 21.4072 24.4123 21.2807 24.3362L18.9513 22.9385C18.8438 22.8741 18.7178 22.8551 18.5956 22.8856C18.4741 22.916 18.3713 22.9921 18.3068 23.0997C18.2422 23.2075 18.2233 23.334 18.2534 23.4553C18.2837 23.5768 18.36 23.6793 18.468 23.7442L23.1904 26.5772C23.9568 27.0369 24.8405 27.1961 25.678 27.0252C26.5067 26.856 27.1913 26.3826 27.6054 25.692C28.2748 24.5769 28.1785 23.3106 27.3483 22.3048L27.348 22.3049Z"/>
</mask>
<path d="M28.0627 25.9659C27.5709 26.7861 26.7621 27.3475 25.785 27.5471C24.8166 27.7445 23.7981 27.5625 22.9166 27.0339L18.1941 24.201C17.9643 24.0631 17.8018 23.8442 17.7367 23.5842C17.6721 23.3247 17.7125 23.0551 17.8502 22.8255C17.9361 22.682 18.0566 22.5689 18.1963 22.4852L18.195 22.4844C17.9652 22.3466 17.8026 22.1276 17.7379 21.8679C17.6728 21.6083 17.7132 21.3386 17.851 21.1086C17.9398 20.961 18.0615 20.8455 18.2003 20.7635C17.9987 20.6249 17.8535 20.4234 17.7938 20.1844C17.7287 19.9246 17.7691 19.6551 17.9069 19.4254C18.0446 19.1957 18.2637 19.0333 18.5234 18.9684C18.6045 18.948 18.6868 18.938 18.7682 18.938C18.9281 18.9382 19.085 18.9787 19.2292 19.0541C19.238 18.8674 19.2936 18.684 19.4027 18.5266C19.7019 18.0949 20.3014 17.9754 20.7683 18.2556L24.6355 20.5753L24.137 19.6774C23.9458 19.3346 23.9528 18.9118 24.1555 18.5737C24.2543 18.4091 24.3955 18.2724 24.5642 18.1778C24.7029 18.1011 24.8531 18.0647 25.0013 18.0647C25.3195 18.0648 25.6286 18.2327 25.7931 18.53C26.3665 19.5631 27.4486 21.5116 27.5247 21.6477C27.5409 21.6712 27.5898 21.7413 27.6316 21.8009C27.6715 21.8574 27.7146 21.9115 27.7591 21.9652C28.7247 23.1357 28.8412 24.6685 28.0627 25.9659L28.0627 25.9659ZM27.348 22.3049C27.2949 22.2406 27.2429 22.175 27.1955 22.1074C27.0513 21.9028 27.0476 21.8975 27.0368 21.8439C26.8682 21.5651 26.457 20.8248 25.3267 18.7885C25.2276 18.6098 25.0023 18.5445 24.8229 18.6436C24.7346 18.693 24.6637 18.7619 24.612 18.8482C24.5072 19.023 24.5032 19.2412 24.6021 19.4185L25.5831 21.1859C25.6416 21.2914 25.6221 21.4229 25.5355 21.5067C25.4491 21.5906 25.3169 21.6053 25.2131 21.5435L20.4941 18.7125C20.2716 18.5792 19.9784 18.6314 19.8409 18.83C19.7618 18.9442 19.7366 19.0804 19.7696 19.2134C19.8 19.3349 19.8763 19.4373 19.9842 19.5021C19.9846 19.5022 19.9847 19.5026 19.9851 19.5027L23.0706 21.3538C23.1967 21.4295 23.2376 21.5931 23.1618 21.7194C23.0861 21.8454 22.9227 21.8866 22.7962 21.8107L19.0082 19.5383C18.9007 19.4739 18.7742 19.4549 18.6527 19.4854C18.5309 19.5158 18.4284 19.5919 18.3638 19.6998C18.2991 19.8075 18.2804 19.9338 18.3104 20.0553C18.3408 20.1768 18.4171 20.2794 18.5249 20.3442L19.262 20.7862L22.3127 22.6166C22.4389 22.6924 22.4798 22.8559 22.404 22.9822C22.3283 23.1082 22.1649 23.1493 22.0384 23.0735L18.9523 21.222C18.7303 21.0885 18.4413 21.1609 18.3078 21.3832C18.243 21.491 18.2243 21.6173 18.2544 21.7388C18.2847 21.8603 18.361 21.9628 18.469 22.0277L19.2256 22.4816L21.5551 23.8792C21.6813 23.955 21.7221 24.1185 21.6464 24.2449C21.5706 24.3709 21.4072 24.4123 21.2807 24.3362L18.9513 22.9385C18.8438 22.8741 18.7178 22.8551 18.5956 22.8856C18.4741 22.916 18.3713 22.9921 18.3068 23.0997C18.2422 23.2075 18.2233 23.334 18.2534 23.4553C18.2837 23.5768 18.36 23.6793 18.468 23.7442L23.1904 26.5772C23.9568 27.0369 24.8405 27.1961 25.678 27.0252C26.5067 26.856 27.1913 26.3826 27.6054 25.692C28.2748 24.5769 28.1785 23.3106 27.3483 22.3048L27.348 22.3049Z" fill="#4CAF4F"/>
<path d="M28.0627 25.9659L27.758 25.072L30.1989 24.2398L28.8727 26.4516L28.0627 25.9659ZM25.785 27.5471L25.974 28.4725L25.9736 28.4725L25.785 27.5471ZM22.9166 27.0339L22.4309 27.8439L22.4308 27.8438L22.9166 27.0339ZM18.1941 24.201L18.68 23.3911L18.68 23.3911L18.1941 24.201ZM17.7367 23.5842L16.8205 23.8135L16.8202 23.8123L17.7367 23.5842ZM17.8502 22.8255L18.6605 23.3107L18.6602 23.3112L17.8502 22.8255ZM18.1963 22.4852L18.6969 21.6844L20.0062 22.5027L18.6814 23.2956L18.1963 22.4852ZM18.195 22.4844L18.6808 21.6745L18.6882 21.6789L18.6955 21.6835L18.195 22.4844ZM17.7379 21.8679L18.654 21.6383L18.6543 21.6395L17.7379 21.8679ZM17.851 21.1086L17.041 20.623L17.0416 20.6221L17.851 21.1086ZM18.2003 20.7635L18.7356 19.9854L19.9553 20.8245L18.6803 21.5769L18.2003 20.7635ZM17.7938 20.1844L18.7099 19.955L18.7101 19.9554L17.7938 20.1844ZM17.9069 19.4254L18.7171 19.9108L18.7167 19.9115L17.9069 19.4254ZM18.5234 18.9684L18.7534 19.8844L18.7524 19.8846L18.5234 18.9684ZM18.7682 18.938V17.9936L18.7692 17.9936L18.7682 18.938ZM19.2292 19.0541L20.1725 19.0988L20.1025 20.577L18.7913 19.891L19.2292 19.0541ZM19.4027 18.5266L20.1789 19.0646L20.1788 19.0648L19.4027 18.5266ZM20.7683 18.2556L20.2825 19.0655L20.2824 19.0654L20.7683 18.2556ZM24.6355 20.5753L25.4612 20.1168L27.1718 23.198L24.1497 21.3852L24.6355 20.5753ZM24.137 19.6774L24.9618 19.2173L24.9627 19.219L24.137 19.6774ZM24.1555 18.5737L23.3456 18.0879L23.3458 18.0875L24.1555 18.5737ZM24.5642 18.1778L24.1022 17.3541L24.1068 17.3515L24.5642 18.1778ZM25.0013 18.0647V17.1202L25.0018 17.1202L25.0013 18.0647ZM25.7931 18.53L24.9673 18.9883L24.9668 18.9873L25.7931 18.53ZM27.5247 21.6477L26.7466 22.183L26.7218 22.1469L26.7004 22.1087L27.5247 21.6477ZM27.6316 21.8009L26.8597 22.3451L26.8591 22.3441L27.6316 21.8009ZM27.7591 21.9652L28.4862 21.3624L28.4877 21.3642L27.7591 21.9652ZM28.0627 25.9659L28.3674 26.8598L25.9253 27.6924L27.2529 25.48L28.0627 25.9659ZM27.348 22.3049L27.4416 23.2447L26.9405 23.2945L26.6198 22.9063L27.348 22.3049ZM27.1955 22.1074L27.9675 21.5634L27.9687 21.5652L27.1955 22.1074ZM27.0368 21.8439L27.845 21.3554L27.9299 21.4958L27.9624 21.6565L27.0368 21.8439ZM25.3267 18.7885L24.501 19.2468L24.5008 19.2466L25.3267 18.7885ZM24.8229 18.6436L24.3618 17.8194L24.3662 17.817L24.8229 18.6436ZM24.612 18.8482L25.422 19.3339L25.4219 19.334L24.612 18.8482ZM24.6021 19.4185L25.4268 18.9581L25.4279 18.9602L24.6021 19.4185ZM25.5831 21.1859L24.7574 21.6445L24.7573 21.6442L25.5831 21.1859ZM25.5355 21.5067L24.8776 20.8291L24.8789 20.8278L25.5355 21.5067ZM25.2131 21.5435L24.7303 22.3552L24.7272 22.3534L25.2131 21.5435ZM20.4941 18.7125L20.9796 17.9025L20.9799 17.9027L20.4941 18.7125ZM19.8409 18.83L20.6173 19.3677L20.6171 19.368L19.8409 18.83ZM19.7696 19.2134L18.8534 19.4424L18.853 19.4411L19.7696 19.2134ZM19.9842 19.5021L19.5618 20.3468L19.5295 20.3306L19.4985 20.312L19.9842 19.5021ZM19.9851 19.5027L20.4075 18.658L20.4399 18.6742L20.4709 18.6929L19.9851 19.5027ZM23.0706 21.3538L23.5564 20.5439L23.5568 20.5441L23.0706 21.3538ZM23.1618 21.7194L23.9718 22.2052L23.9712 22.2061L23.1618 21.7194ZM22.7962 21.8107L23.282 21.0008L23.2823 21.0009L22.7962 21.8107ZM19.0082 19.5383L19.4937 18.7282L19.494 18.7284L19.0082 19.5383ZM18.6527 19.4854L18.8829 20.4013L18.8812 20.4018L18.6527 19.4854ZM18.3638 19.6998L19.1743 20.1846L19.1731 20.1867L18.3638 19.6998ZM18.3104 20.0553L17.3942 20.2843L17.3936 20.282L18.3104 20.0553ZM18.5249 20.3442L18.0391 21.1541L18.0386 21.1538L18.5249 20.3442ZM19.262 20.7862L19.7477 19.9763L19.7479 19.9764L19.262 20.7862ZM22.3127 22.6166L22.7986 21.8067L22.799 21.8069L22.3127 22.6166ZM22.404 22.9822L23.214 23.468L23.2134 23.4689L22.404 22.9822ZM22.0384 23.0735L21.5531 23.8838L21.5525 23.8834L22.0384 23.0735ZM18.9523 21.222L18.4664 22.0318L18.4654 22.0313L18.9523 21.222ZM18.3078 21.3832L19.1174 21.8695L19.1174 21.8695L18.3078 21.3832ZM18.2544 21.7388L17.3381 21.9679L17.3375 21.9655L18.2544 21.7388ZM18.469 22.0277L17.9831 22.8376L17.9823 22.8371L18.469 22.0277ZM19.2256 22.4816L19.7115 21.6717L19.7115 21.6717L19.2256 22.4816ZM21.5551 23.8792L22.041 23.0694L22.0413 23.0696L21.5551 23.8792ZM21.6464 24.2449L22.4563 24.7306L22.4558 24.7316L21.6464 24.2449ZM21.2807 24.3362L21.7666 23.5263L21.7676 23.5269L21.2807 24.3362ZM18.9513 22.9385L19.4368 22.1284L19.4371 22.1287L18.9513 22.9385ZM18.5956 22.8856L18.3666 21.9694L18.3666 21.9694L18.5956 22.8856ZM18.3068 23.0997L17.4966 22.6144L17.4969 22.6138L18.3068 23.0997ZM18.2534 23.4553L17.3371 23.6844L17.3366 23.6823L18.2534 23.4553ZM18.468 23.7442L17.9821 24.5541L17.9813 24.5536L18.468 23.7442ZM23.1904 26.5772L23.6763 25.7673L23.6763 25.7673L23.1904 26.5772ZM25.678 27.0252L25.8669 27.9506L25.8668 27.9506L25.678 27.0252ZM27.6054 25.692L26.7955 25.2062L26.7957 25.206L27.6054 25.692ZM27.3483 22.3048L27.2547 21.365L27.756 21.3151L28.0766 21.7036L27.3483 22.3048ZM28.8727 26.4516C28.2382 27.5098 27.1979 28.2224 25.974 28.4725L25.596 26.6218C26.3262 26.4726 26.9036 26.0625 27.2527 25.4802L28.8727 26.4516ZM25.9736 28.4725C24.7641 28.7191 23.5061 28.4886 22.4309 27.8439L23.4023 26.2239C24.0901 26.6363 24.869 26.77 25.5963 26.6217L25.9736 28.4725ZM22.4308 27.8438L17.7083 25.0109L18.68 23.3911L23.4024 26.2241L22.4308 27.8438ZM17.7083 25.0109C17.2642 24.7445 16.9465 24.3169 16.8205 23.8135L18.6529 23.3549C18.6555 23.3651 18.659 23.3714 18.6622 23.3757C18.6654 23.38 18.6706 23.3854 18.68 23.3911L17.7083 25.0109ZM16.8202 23.8123C16.6951 23.3095 16.7743 22.7834 17.0402 22.3399L18.6602 23.3112C18.6546 23.3206 18.6525 23.328 18.6517 23.3334C18.6508 23.3388 18.6507 23.3461 18.6532 23.3561L16.8202 23.8123ZM17.0399 22.3403C17.2151 22.0479 17.4543 21.8287 17.7113 21.6749L18.6814 23.2956C18.6699 23.3025 18.6637 23.3078 18.6613 23.3102C18.6591 23.3124 18.6594 23.3125 18.6605 23.3107L17.0399 22.3403ZM17.6958 23.2861L17.6944 23.2853L18.6955 21.6835L18.6969 21.6844L17.6958 23.2861ZM17.7091 23.2943C17.2652 23.028 16.9471 22.6004 16.8215 22.0964L18.6543 21.6395C18.6567 21.6491 18.66 21.6551 18.6631 21.6592C18.6662 21.6634 18.6714 21.6689 18.6808 21.6745L17.7091 23.2943ZM16.8218 22.0975C16.6955 21.5937 16.7749 21.0668 17.041 20.623L18.6611 21.5943C18.6553 21.6039 18.6533 21.6113 18.6525 21.6165C18.6517 21.6217 18.6516 21.6287 18.654 21.6383L16.8218 22.0975ZM17.0416 20.6221C17.216 20.332 17.4542 20.1072 17.7203 19.9502L18.6803 21.5769C18.6742 21.5805 18.67 21.5839 18.6673 21.5866C18.6647 21.5892 18.6625 21.5918 18.6605 21.5952L17.0416 20.6221ZM17.6651 21.5416C17.2836 21.2792 16.9959 20.8871 16.8776 20.4135L18.7101 19.9554C18.7112 19.9598 18.7127 19.963 18.7151 19.9665C18.7178 19.9702 18.7237 19.9772 18.7356 19.9854L17.6651 21.5416ZM16.8777 20.4139C16.7515 19.9101 16.8307 19.3833 17.0972 18.9394L18.7167 19.9115C18.7111 19.9209 18.7091 19.928 18.7084 19.9331C18.7076 19.9381 18.7075 19.9451 18.7099 19.955L16.8777 20.4139ZM17.0968 18.94C17.3633 18.4952 17.7915 18.1778 18.2944 18.0521L18.7524 19.8846C18.7424 19.8871 18.7361 19.8907 18.7319 19.8938C18.7277 19.8969 18.7225 19.9019 18.7171 19.9108L17.0968 18.94ZM18.2935 18.0523C18.4499 18.0131 18.6094 17.9936 18.7682 17.9936V19.8824C18.7642 19.8824 18.7591 19.8829 18.7534 19.8844L18.2935 18.0523ZM18.7692 17.9936C19.09 17.9939 19.396 18.0755 19.667 18.2173L18.7913 19.891C18.7824 19.8863 18.7759 19.8842 18.7724 19.8833C18.7689 19.8824 18.7674 19.8824 18.7673 19.8824L18.7692 17.9936ZM18.2858 19.0095C18.302 18.666 18.4056 18.3071 18.6266 17.9884L20.1788 19.0648C20.1816 19.0609 20.174 19.0688 20.1725 19.0988L18.2858 19.0095ZM18.6265 17.9886C19.2247 17.1255 20.3845 16.9239 21.2542 17.4458L20.2824 19.0654C20.2549 19.0489 20.2279 19.0463 20.2067 19.0505C20.186 19.0546 20.1803 19.0626 20.1789 19.0646L18.6265 17.9886ZM21.2541 17.4457L25.1213 19.7653L24.1497 21.3852L20.2825 19.0655L21.2541 17.4457ZM23.8098 21.0337L23.3113 20.1359L24.9627 19.219L25.4612 20.1168L23.8098 21.0337ZM23.3123 20.1376C22.9555 19.4982 22.9698 18.7146 23.3456 18.0879L24.9655 19.0594C24.9358 19.1089 24.936 19.1711 24.9618 19.2173L23.3123 20.1376ZM23.3458 18.0875C23.53 17.7807 23.7916 17.5283 24.1023 17.3541L25.0262 19.0016C24.9994 19.0166 24.9786 19.0375 24.9652 19.0598L23.3458 18.0875ZM24.1068 17.3515C24.3894 17.1951 24.6976 17.1202 25.0013 17.1202V19.0091C25.0045 19.0091 25.0083 19.0087 25.0122 19.0077C25.0163 19.0067 25.0196 19.0052 25.0216 19.0041L24.1068 17.3515ZM25.0018 17.1202C25.6472 17.1206 26.2809 17.4611 26.6194 18.0726L24.9668 18.9873C24.9683 18.99 24.9708 18.9936 24.9743 18.9971C24.9776 19.0004 24.981 19.0029 24.984 19.0046C24.9893 19.0077 24.9947 19.0091 25.0008 19.0091L25.0018 17.1202ZM26.6189 18.0717C27.193 19.1061 28.2738 21.0524 28.3489 21.1866L26.7004 22.1087C26.6233 21.9709 25.5401 20.0202 24.9673 18.9883L26.6189 18.0717ZM28.3028 21.1124C28.3161 21.1318 28.3627 21.1986 28.4042 21.2576L26.8591 22.3441C26.8168 22.2839 26.7656 22.2106 26.7466 22.183L28.3028 21.1124ZM28.4035 21.2567C28.4231 21.2844 28.4485 21.317 28.4862 21.3624L27.0321 22.5681C26.9806 22.506 26.92 22.4305 26.8597 22.3451L28.4035 21.2567ZM28.4877 21.3642C29.7067 22.842 29.8577 24.81 28.8725 26.4519L27.2529 25.48C27.8247 24.527 27.7427 23.4295 27.0306 22.5662L28.4877 21.3642ZM27.758 25.072L27.758 25.072L28.3675 26.8598L28.3674 26.8598L27.758 25.072ZM26.6198 22.9063C26.5601 22.834 26.4902 22.7467 26.4222 22.6497L27.9687 21.5652C27.9955 21.6033 28.0297 21.6472 28.0762 21.7034L26.6198 22.9063ZM26.4235 22.6515C26.364 22.5671 26.3001 22.4776 26.2577 22.4073C26.2293 22.3604 26.1913 22.2918 26.1593 22.2044C26.128 22.1193 26.1141 22.0464 26.1111 22.0314L27.9624 21.6565C27.9648 21.6682 27.9554 21.6161 27.9325 21.5535C27.9086 21.4886 27.8826 21.4441 27.8745 21.4308C27.8707 21.4244 27.8692 21.4224 27.8722 21.4268C27.875 21.4311 27.8801 21.4386 27.8885 21.4509C27.9062 21.4764 27.9304 21.5108 27.9675 21.5634L26.4235 22.6515ZM26.2285 22.3325C26.0481 22.034 25.6234 21.2689 24.501 19.2468L26.1525 18.3301C27.2907 20.3807 27.6884 21.0962 27.845 21.3554L26.2285 22.3325ZM24.5008 19.2466C24.6537 19.5223 25.0019 19.6238 25.2797 19.4703L24.3662 17.817C25.0028 17.4652 25.8015 17.6972 26.1527 18.3304L24.5008 19.2466ZM25.2841 19.4678C25.3396 19.4368 25.3889 19.389 25.422 19.3339L23.802 18.3626C23.9385 18.1349 24.1297 17.9493 24.3618 17.8194L25.2841 19.4678ZM25.4219 19.334C25.4895 19.2213 25.4941 19.0787 25.4268 18.9581L23.7775 19.8789C23.5122 19.4038 23.5248 18.8246 23.8021 18.3624L25.4219 19.334ZM25.4279 18.9602L26.4089 20.7276L24.7573 21.6442L23.7764 19.8768L25.4279 18.9602ZM26.4087 20.7274C26.6746 21.2061 26.5863 21.8042 26.1921 22.1855L24.8789 20.8278C24.6579 21.0415 24.6087 21.3766 24.7574 21.6445L26.4087 20.7274ZM26.1934 22.1842C25.7961 22.57 25.1954 22.6319 24.7303 22.3552L25.6959 20.7319C25.4384 20.5787 25.102 20.6112 24.8776 20.8291L26.1934 22.1842ZM24.7272 22.3534L20.0082 19.5224L20.9799 17.9027L25.699 20.7337L24.7272 22.3534ZM20.0085 19.5226C20.1006 19.5778 20.2047 19.5939 20.3023 19.5764C20.4 19.5589 20.5259 19.4998 20.6173 19.3677L19.0644 18.2923C19.519 17.6359 20.3833 17.5451 20.9796 17.9025L20.0085 19.5226ZM20.6171 19.368C20.6909 19.2616 20.7194 19.1193 20.6862 18.9857L18.853 19.4411C18.7538 19.0414 18.8327 18.6268 19.0646 18.2921L20.6171 19.368ZM20.6859 18.9843C20.6549 18.8606 20.575 18.7551 20.47 18.6921L19.4985 20.312C19.1775 20.1195 18.945 19.8091 18.8534 19.4424L20.6859 18.9843ZM20.4067 18.6574C20.492 18.7 20.5548 18.7476 20.5945 18.7812C20.614 18.7978 20.6292 18.8119 20.6383 18.8207C20.6429 18.8251 20.6467 18.8288 20.6489 18.831C20.65 18.8322 20.651 18.8331 20.6515 18.8336C20.6518 18.8339 20.6521 18.8342 20.6522 18.8343C20.6523 18.8344 20.6523 18.8344 20.6524 18.8345C20.6524 18.8345 20.6524 18.8345 20.6524 18.8345C20.6524 18.8345 20.6524 18.8345 20.6524 18.8345C20.6524 18.8345 20.6524 18.8345 20.6524 18.8345C20.6527 18.8348 20.651 18.8331 20.649 18.8311C20.6468 18.8289 20.6431 18.8253 20.6385 18.8209C20.6294 18.8122 20.6144 18.7981 20.5949 18.7816C20.5553 18.7481 20.4927 18.7006 20.4075 18.658L19.5626 20.3474C19.4773 20.3048 19.4145 20.2572 19.3748 20.2236C19.3553 20.207 19.3401 20.1929 19.331 20.1841C19.3264 20.1797 19.3226 20.176 19.3204 20.1738C19.3192 20.1726 19.3183 20.1717 19.3178 20.1711C19.3175 20.1709 19.3172 20.1706 19.3171 20.1705C19.317 20.1704 19.317 20.1704 19.3169 20.1703C19.3169 20.1703 19.3169 20.1703 19.3169 20.1703C19.3169 20.1703 19.3169 20.1703 19.3169 20.1703C19.3169 20.1703 19.3169 20.1703 19.3169 20.1703C19.3166 20.17 19.3183 20.1717 19.3203 20.1737C19.3225 20.1759 19.3262 20.1795 19.3308 20.1839C19.3399 20.1926 19.3549 20.2067 19.3744 20.2232C19.414 20.2567 19.4766 20.3042 19.5618 20.3468L20.4067 18.6574ZM20.4709 18.6929L23.5564 20.5439L22.5847 22.1637L19.4992 20.3126L20.4709 18.6929ZM23.5568 20.5441C24.1301 20.8884 24.3156 21.6319 23.9718 22.2052L22.3519 21.2336C22.1596 21.5543 22.2633 21.9707 22.5843 22.1634L23.5568 20.5441ZM23.9712 22.2061C23.6278 22.7773 22.8852 22.9656 22.3101 22.6204L23.2823 21.0009C22.9602 20.8076 22.5444 20.9135 22.3525 21.2327L23.9712 22.2061ZM22.3104 22.6206L18.5223 20.3482L19.494 18.7284L23.282 21.0008L22.3104 22.6206ZM18.5226 20.3484C18.6287 20.412 18.7595 20.4324 18.8829 20.4013L18.4225 18.5694C18.7888 18.4773 19.1727 18.5358 19.4937 18.7282L18.5226 20.3484ZM18.8812 20.4018C19.0038 20.3712 19.1104 20.2915 19.1743 20.1846L17.5533 19.215C17.7464 18.8922 18.0579 18.6603 18.4242 18.569L18.8812 20.4018ZM19.1731 20.1867C19.238 20.0788 19.2569 19.9484 19.2273 19.8286L17.3936 20.282C17.3039 19.9192 17.3602 19.5361 17.5545 19.213L19.1731 20.1867ZM19.2267 19.8262C19.1959 19.7032 19.1165 19.5978 19.0111 19.5345L18.0386 21.1538C17.7177 20.961 17.4857 20.6504 17.3942 20.2843L19.2267 19.8262ZM19.0106 19.5342L19.7477 19.9763L18.7762 21.5962L18.0391 21.1541L19.0106 19.5342ZM19.7479 19.9764L22.7986 21.8067L21.8268 23.4265L18.7761 21.5961L19.7479 19.9764ZM22.799 21.8069C23.3723 22.1512 23.5578 22.8947 23.214 23.468L21.5941 22.4965C21.4018 22.8171 21.5055 23.2335 21.8265 23.4263L22.799 21.8069ZM23.2134 23.4689C22.8694 24.041 22.1269 24.2275 21.5531 23.8838L22.5237 22.2633C22.2029 22.0711 21.7871 22.1755 21.5946 22.4956L23.2134 23.4689ZM21.5525 23.8834L18.4664 22.0318L19.4381 20.4121L22.5243 22.2637L21.5525 23.8834ZM18.4654 22.0313C18.6922 22.1677 18.9832 22.093 19.1174 21.8695L17.4981 20.8969C17.8994 20.2288 18.7684 20.0092 19.4391 20.4127L18.4654 22.0313ZM19.1174 21.8695C19.1818 21.7622 19.2009 21.6321 19.1712 21.5121L17.3375 21.9655C17.2478 21.6025 17.3042 21.2197 17.4981 20.8969L19.1174 21.8695ZM19.1706 21.5097C19.1396 21.3859 19.0598 21.2809 18.9556 21.2183L17.9823 22.8371C17.6622 22.6446 17.4298 22.3347 17.3381 21.9679L19.1706 21.5097ZM18.9548 21.2178L19.7115 21.6717L18.7397 23.2915L17.9831 22.8376L18.9548 21.2178ZM19.7115 21.6717L22.041 23.0694L21.0692 24.6891L18.7397 23.2915L19.7115 21.6717ZM22.0413 23.0696C22.6146 23.4139 22.8002 24.1573 22.4563 24.7306L20.8364 23.7591C20.6441 24.0797 20.7479 24.4961 21.0689 24.6889L22.0413 23.0696ZM22.4558 24.7316C22.1128 25.3019 21.3702 25.4921 20.7939 25.1454L21.7676 23.5269C21.4443 23.3324 21.0284 23.4399 20.837 23.7582L22.4558 24.7316ZM20.7948 25.146L18.4654 23.7484L19.4371 22.1287L21.7666 23.5263L20.7948 25.146ZM18.4657 23.7486C18.5721 23.8123 18.703 23.8323 18.8247 23.8019L18.3666 21.9694C18.7326 21.8779 19.1155 21.9359 19.4368 22.1284L18.4657 23.7486ZM18.8247 23.8019C18.9462 23.7715 19.0523 23.6928 19.1166 23.5856L17.4969 22.6138C17.6903 22.2914 18.0021 22.0605 18.3666 21.9694L18.8247 23.8019ZM19.1169 23.5851C19.1804 23.4791 19.2001 23.3496 19.1701 23.2284L17.3366 23.6823C17.2465 23.3185 17.3039 22.9359 17.4966 22.6144L19.1169 23.5851ZM19.1696 23.2263C19.1386 23.1025 19.0588 22.9974 18.9546 22.9348L17.9813 24.5536C17.6612 24.3612 17.4288 24.0512 17.3371 23.6844L19.1696 23.2263ZM18.9538 22.9343L23.6763 25.7673L22.7046 27.3871L17.9821 24.5541L18.9538 22.9343ZM23.6763 25.7673C24.2502 26.1116 24.8945 26.2212 25.4891 26.0999L25.8668 27.9506C24.7866 28.171 23.6633 27.9622 22.7045 27.387L23.6763 25.7673ZM25.489 26.0999C26.0731 25.9806 26.5251 25.657 26.7955 25.2062L28.4154 26.1778C27.8574 27.1081 26.9403 27.7314 25.8669 27.9506L25.489 26.0999ZM26.7957 25.206C27.2583 24.4353 27.1965 23.6046 26.6199 22.9061L28.0766 21.7036C29.1605 23.0167 29.2914 24.7185 28.4152 26.1781L26.7957 25.206ZM27.4418 23.2446L27.4416 23.2447L27.2544 21.3651L27.2547 21.365L27.4418 23.2446Z" fill="#4CAF4F" mask="url(#path-4-inside-2_211_2338)"/>
</svg>
