<svg width="23" height="23" viewBox="0 0 23 23" fill="none" xmlns="http://www.w3.org/2000/svg">
<path opacity="0.1" fill-rule="evenodd" clip-rule="evenodd" d="M0 11.5C0 5.14874 5.14874 0 11.5 0C17.8513 0 23.0001 5.14874 23.0001 11.5C23.0001 17.8513 17.8513 23.0001 11.5 23.0001C5.14874 23.0001 0 17.8513 0 11.5Z" fill="white"/>
<path fill-rule="evenodd" clip-rule="evenodd" d="M11.5005 5.36662C9.83482 5.36662 9.62577 5.37391 8.97154 5.40368C8.31858 5.43358 7.87289 5.53695 7.48291 5.68863C7.07951 5.84529 6.73731 6.05484 6.3964 6.39589C6.05523 6.7368 5.84567 7.079 5.6885 7.48227C5.53644 7.87238 5.43294 8.3182 5.40355 8.9709C5.37429 9.62513 5.36662 9.8343 5.36662 11.5C5.36662 13.1658 5.37404 13.3742 5.40368 14.0284C5.43371 14.6814 5.53708 15.1271 5.68863 15.517C5.84541 15.9204 6.05497 16.2626 6.39602 16.6035C6.7368 16.9447 7.079 17.1548 7.48214 17.3114C7.87238 17.4631 8.3182 17.5665 8.97103 17.5964C9.62526 17.6262 9.83418 17.6334 11.4998 17.6334C13.1656 17.6334 13.3741 17.6262 14.0283 17.5964C14.6812 17.5665 15.1274 17.4631 15.5177 17.3114C15.9209 17.1548 16.2626 16.9447 16.6034 16.6035C16.9446 16.2626 17.1541 15.9204 17.3113 15.5172C17.4621 15.1271 17.5656 14.6812 17.5963 14.0285C17.6257 13.3743 17.6333 13.1658 17.6333 11.5C17.6333 9.8343 17.6257 9.62526 17.5963 8.97103C17.5656 8.31807 17.4621 7.87238 17.3113 7.4824C17.1541 7.079 16.9446 6.7368 16.6034 6.39589C16.2622 6.05472 15.9211 5.84516 15.5173 5.68863C15.1263 5.53695 14.6803 5.43358 14.0274 5.40368C13.3732 5.37391 13.1649 5.36662 11.4986 5.36662H11.5005ZM10.9503 6.4719C11.1136 6.47164 11.2958 6.4719 11.5005 6.4719C13.1381 6.4719 13.3322 6.47778 13.9789 6.50717C14.5769 6.53451 14.9015 6.63443 15.1177 6.71839C15.4039 6.82955 15.608 6.96244 15.8225 7.17711C16.0372 7.39178 16.1701 7.59623 16.2815 7.88246C16.3655 8.0984 16.4655 8.42296 16.4927 9.02097C16.5221 9.66753 16.5285 9.86176 16.5285 11.4986C16.5285 13.1355 16.5221 13.3297 16.4927 13.9763C16.4654 14.5743 16.3655 14.8988 16.2815 15.1148C16.1703 15.401 16.0372 15.6048 15.8225 15.8193C15.6079 16.034 15.4041 16.1669 15.1177 16.2781C14.9018 16.3624 14.5769 16.4621 13.9789 16.4894C13.3324 16.5188 13.1381 16.5252 11.5005 16.5252C9.86277 16.5252 9.66868 16.5188 9.02211 16.4894C8.4241 16.4618 8.09954 16.3619 7.88321 16.2779C7.59699 16.1668 7.39254 16.0339 7.17787 15.8192C6.9632 15.6046 6.83031 15.4006 6.71889 15.1143C6.63494 14.8983 6.53489 14.5738 6.50767 13.9757C6.47828 13.3292 6.4724 13.135 6.4724 11.4971C6.4724 9.8592 6.47828 9.666 6.50767 9.01944C6.53501 8.42143 6.63494 8.09687 6.71889 7.88067C6.83006 7.59444 6.9632 7.38999 7.17787 7.17533C7.39254 6.96066 7.59699 6.82776 7.88321 6.71634C8.09942 6.63201 8.4241 6.53234 9.02211 6.50487C9.58792 6.47931 9.80719 6.47164 10.9503 6.47037V6.4719ZM14.7745 7.4903C14.3682 7.4903 14.0385 7.81959 14.0385 8.22606C14.0385 8.6324 14.3682 8.96207 14.7745 8.96207C15.1808 8.96207 15.5105 8.6324 15.5105 8.22606C15.5105 7.81972 15.1808 7.4903 14.7745 7.4903ZM11.5006 8.35026C9.7611 8.35026 8.3508 9.76056 8.3508 11.5C8.3508 13.2395 9.7611 14.6491 11.5006 14.6491C13.24 14.6491 14.6498 13.2395 14.6498 11.5C14.6498 9.76056 13.24 8.35026 11.5006 8.35026ZM11.5005 9.45555C12.6296 9.45555 13.545 10.3708 13.545 11.5C13.545 12.6291 12.6296 13.5445 11.5005 13.5445C10.3713 13.5445 9.45606 12.6291 9.45606 11.5C9.45606 10.3708 10.3713 9.45555 11.5005 9.45555Z" fill="white"/>
</svg>
