<svg width="23" height="23" viewBox="0 0 23 23" fill="none" xmlns="http://www.w3.org/2000/svg">
<path opacity="0.1" fill-rule="evenodd" clip-rule="evenodd" d="M0 11.5C0 5.14874 5.14874 0 11.5 0C17.8513 0 23.0001 5.14874 23.0001 11.5C23.0001 17.8513 17.8513 23.0001 11.5 23.0001C5.14874 23.0001 0 17.8513 0 11.5Z" fill="white"/>
<path fill-rule="evenodd" clip-rule="evenodd" d="M16.2925 7.54653C16.8204 7.69137 17.236 8.11812 17.3771 8.66007C17.6334 9.64227 17.6334 11.6917 17.6334 11.6917C17.6334 11.6917 17.6334 13.741 17.3771 14.7232C17.236 15.2652 16.8204 15.6919 16.2925 15.8368C15.336 16.1 11.5001 16.1 11.5001 16.1C11.5001 16.1 7.66418 16.1 6.70758 15.8368C6.17977 15.6919 5.76409 15.2652 5.62303 14.7232C5.36675 13.741 5.36675 11.6917 5.36675 11.6917C5.36675 11.6917 5.36675 9.64227 5.62303 8.66007C5.76409 8.11812 6.17977 7.69137 6.70758 7.54653C7.66418 7.28331 11.5001 7.28331 11.5001 7.28331C11.5001 7.28331 15.336 7.28331 16.2925 7.54653ZM10.3501 9.96661V13.8L13.4168 11.8834L10.3501 9.96661Z" fill="white"/>
</svg>
