<svg width="23" height="23" viewBox="0 0 23 23" fill="none" xmlns="http://www.w3.org/2000/svg">
<path opacity="0.1" fill-rule="evenodd" clip-rule="evenodd" d="M0 11.5C0 5.14874 5.14874 0 11.5 0C17.8513 0 23.0001 5.14874 23.0001 11.5C23.0001 17.8513 17.8513 23.0001 11.5 23.0001C5.14874 23.0001 0 17.8513 0 11.5Z" fill="white"/>
<path fill-rule="evenodd" clip-rule="evenodd" d="M17.6333 11.4915C17.6333 11.9063 17.5911 12.3205 17.5082 12.7242C17.4273 13.1184 17.3075 13.5054 17.1506 13.8753C16.9972 14.2387 16.807 14.5889 16.5848 14.9154C16.3659 15.24 16.1137 15.5444 15.8367 15.8219C15.559 16.0982 15.2536 16.3497 14.9292 16.5696C14.6016 16.7903 14.2509 16.9802 13.8873 17.1342C13.5168 17.2903 13.1289 17.4099 12.7351 17.4907C12.3308 17.5738 11.9151 17.6163 11.4997 17.6163C11.084 17.6163 10.6683 17.5738 10.2646 17.4907C9.87016 17.4099 9.48231 17.2903 9.11213 17.1342C8.74855 16.9802 8.39752 16.7903 8.06988 16.5696C7.74553 16.3498 7.44005 16.0982 7.16301 15.8219C6.88569 15.5444 6.6335 15.24 6.41427 14.9154C6.19324 14.5889 6.00275 14.2387 5.84882 13.8753C5.69187 13.5054 5.57178 13.1184 5.49062 12.7242C5.40856 12.3205 5.36662 11.9063 5.36662 11.4915C5.36662 11.0764 5.40854 10.6613 5.49064 10.2584C5.57181 9.86423 5.69189 9.47666 5.84884 9.10732C6.00277 8.74367 6.19327 8.39317 6.41429 8.06658C6.63352 7.74181 6.88571 7.43794 7.16303 7.16011C7.44007 6.88376 7.74555 6.63287 8.06991 6.41336C8.39755 6.19174 8.74857 6.00186 9.11215 5.84752C9.48233 5.69108 9.87016 5.57118 10.2646 5.49104C10.6683 5.4085 11.084 5.36662 11.4997 5.36662C11.9151 5.36662 12.3308 5.4085 12.7351 5.49104C13.1289 5.5712 13.5168 5.69111 13.8873 5.84752C14.2509 6.00183 14.6016 6.19174 14.9292 6.41336C15.2536 6.63287 15.5591 6.88376 15.8367 7.16011C16.1137 7.43794 16.3659 7.74181 16.5848 8.06658C16.807 8.39317 16.9972 8.74369 17.1506 9.10732C17.3075 9.47666 17.4273 9.86423 17.5082 10.2584C17.5911 10.6613 17.6333 11.0764 17.6333 11.4915ZM9.26484 6.76056C7.80418 7.44932 6.71402 8.7933 6.37409 10.413C6.51217 10.4142 8.6949 10.4418 11.2098 9.77452C10.3032 8.16615 9.33462 6.85359 9.26484 6.76056ZM11.6437 10.5799C8.94677 11.3862 6.35882 11.3282 6.26598 11.3246C6.26447 11.3808 6.26178 11.4352 6.26178 11.4915C6.26178 12.8351 6.76943 14.0601 7.60382 14.9863C7.60202 14.9836 9.03543 12.4443 11.8621 11.5315C11.9303 11.5088 11.9998 11.4885 12.0687 11.4687C11.9372 11.1715 11.7938 10.8736 11.6437 10.5799ZM14.9589 7.56595C14.0367 6.75397 12.8258 6.26144 11.4997 6.26144C11.0741 6.26144 10.6611 6.31289 10.2655 6.40798C10.3439 6.51327 11.3278 7.81657 12.2235 9.45901C14.1999 8.71914 14.946 7.58508 14.9589 7.56595ZM12.4257 12.3354C12.4141 12.3393 12.4024 12.3426 12.391 12.3468C9.30056 13.4226 8.29134 15.5907 8.28042 15.6144C9.16964 16.3049 10.285 16.7215 11.4997 16.7215C12.2251 16.7215 12.916 16.574 13.5446 16.307C13.4671 15.85 13.1628 14.2482 12.4257 12.3354ZM14.4266 15.8291C15.6028 15.0366 16.438 13.7781 16.671 12.3204C16.5632 12.2858 15.0978 11.8225 13.4071 12.0932C14.0942 13.9785 14.3733 15.5139 14.4266 15.8291ZM12.6267 10.2384C12.7483 10.4878 12.866 10.7417 12.9747 10.9968C13.0134 11.0883 13.0511 11.1781 13.0879 11.2678C14.8873 11.0417 16.66 11.4221 16.7358 11.4376C16.7238 10.1977 16.2796 9.05975 15.5447 8.16886C15.5348 8.18288 14.6947 9.395 12.6267 10.2384Z" fill="white"/>
</svg>
