<svg width="23" height="23" viewBox="0 0 23 23" fill="none" xmlns="http://www.w3.org/2000/svg">
<path opacity="0.1" fill-rule="evenodd" clip-rule="evenodd" d="M0 11.5C0 5.14874 5.14874 0 11.5 0C17.8513 0 23.0001 5.14874 23.0001 11.5C23.0001 17.8513 17.8513 23.0001 11.5 23.0001C5.14874 23.0001 0 17.8513 0 11.5Z" fill="white"/>
<path fill-rule="evenodd" clip-rule="evenodd" d="M11.1557 9.34722L11.1798 9.74515L10.7776 9.69643C9.31357 9.50964 8.03457 8.87621 6.94862 7.81236L6.41772 7.2845L6.28097 7.67431C5.99138 8.54325 6.1764 9.46092 6.7797 10.0781C7.10146 10.4192 7.02906 10.4679 6.47403 10.2649C6.28097 10.1999 6.11204 10.1512 6.09596 10.1756C6.03965 10.2324 6.2327 10.9714 6.38554 11.2638C6.59469 11.6698 7.02102 12.0677 7.48757 12.3033L7.88173 12.49L7.41518 12.4982C6.96471 12.4982 6.94862 12.5063 6.99689 12.6768C7.15777 13.2047 7.79325 13.765 8.50112 14.0087L8.99985 14.1792L8.56547 14.4391C7.92195 14.8126 7.16581 15.0238 6.40967 15.04C6.04769 15.0481 5.75006 15.0806 5.75006 15.105C5.75006 15.1862 6.73143 15.641 7.30256 15.8196C9.01594 16.3475 11.0511 16.1201 12.5794 15.2187C13.6654 14.5771 14.7513 13.3021 15.2581 12.0677C15.5316 11.4099 15.8051 10.208 15.8051 9.63146C15.8051 9.25789 15.8292 9.20917 16.2797 8.76251C16.5452 8.50264 16.7945 8.21841 16.8428 8.1372C16.9232 7.9829 16.9152 7.9829 16.5049 8.12096C15.8212 8.36459 15.7247 8.3321 16.0625 7.96666C16.3119 7.70679 16.6095 7.23578 16.6095 7.09772C16.6095 7.07336 16.4888 7.11396 16.3521 7.18705C16.2073 7.26826 15.8855 7.39007 15.6442 7.46316L15.2098 7.60122L14.8157 7.33323C14.5985 7.18705 14.2928 7.02463 14.1319 6.9759C13.7217 6.86221 13.0943 6.87845 12.7242 7.00839C11.7187 7.37383 11.0833 8.31586 11.1557 9.34722Z" fill="white"/>
</svg>
