<svg width="75" height="13" viewBox="0 0 75 13" fill="none" xmlns="http://www.w3.org/2000/svg">
<path d="M73.3863 12.717C73.533 12.6989 73.6785 12.6722 73.8221 12.6371C74.025 12.5725 74.2116 12.4652 74.3695 12.3224C74.5273 12.1795 74.6527 12.0045 74.7372 11.8091C74.8515 11.5159 74.8963 11.2002 74.8679 10.8868C74.8679 10.5381 74.8679 10.1605 74.8679 9.73925C74.8679 8.89678 74.8679 7.9381 74.8679 6.83417V2.22238C74.9026 1.88849 74.8287 1.55231 74.6573 1.2637C74.4782 0.967708 74.1964 0.74798 73.8657 0.646378C73.5039 0.581826 73.1356 0.562309 72.769 0.588275H62.318L1.78356 0.363134C1.45795 0.363903 1.1437 0.482878 0.899237 0.697954C0.654773 0.913029 0.496725 1.20957 0.454484 1.53243C0.454484 2.22238 0.454484 2.98496 0.454484 3.71123C0.454484 5.16377 0.454484 6.6163 0.454484 8.06884C0.454484 8.79511 0.454484 9.52138 0.454484 10.2476C0.42743 10.5871 0.442062 10.9285 0.498059 11.2644C0.588738 11.5589 0.775374 11.8146 1.02823 11.9907C1.29651 12.1609 1.61165 12.2423 1.92881 12.2231H2.93832H5.03724L21.1096 12.303L48.3228 12.47L66.6684 12.6153L71.6578 12.6734H66.6684H48.3228L21.095 12.6443L5.02271 12.5862H1.86345C1.47062 12.6095 1.08081 12.505 0.752257 12.2885C0.421786 12.0595 0.180602 11.7234 0.0695632 11.337C0.00446892 10.968 -0.0150457 10.5924 0.0114604 10.2186C0.0114604 9.49232 0.0114604 8.76605 0.0114604 8.03978C0.0114604 6.58725 0.0114604 5.13471 0.0114604 3.68217C0.0114604 2.95591 0.0114604 2.22964 0.0114604 1.50337C0.0644544 1.08808 0.266985 0.70635 0.58114 0.429626C0.895296 0.152902 1.29954 0.000165343 1.7182 0L62.2527 0.334077L72.7036 0.413967C73.0928 0.390093 73.4834 0.416949 73.8657 0.493857C74.243 0.617148 74.5613 0.875897 74.759 1.22013C74.9469 1.54001 75.0282 1.91133 74.9914 2.28048C74.9914 2.62183 74.9914 2.95591 74.9914 3.28999C74.9914 4.60454 74.9914 5.81014 74.9914 6.92133C74.9914 8.03252 74.9914 8.96941 74.9914 9.82641C74.9914 10.2404 74.9914 10.6253 74.9914 10.9812C75.0178 11.306 74.9655 11.6323 74.8389 11.9326C74.7446 12.133 74.6082 12.3107 74.439 12.4536C74.2698 12.5965 74.0718 12.7012 73.8584 12.7605C73.6997 12.7736 73.5399 12.7589 73.3863 12.717Z" fill="#E0E0E0"/>
</svg>
