<svg width="75" height="13" viewBox="0 0 75 13" fill="none" xmlns="http://www.w3.org/2000/svg">
<path d="M73.3281 12.8126C73.4749 12.7953 73.6205 12.7686 73.7639 12.7327C73.9659 12.6685 74.1519 12.5622 74.3096 12.4207C74.4674 12.2792 74.5934 12.1058 74.6791 11.9119C74.7929 11.6186 74.8377 11.303 74.8098 10.9895C74.8098 10.6336 74.8098 10.2632 74.8098 9.83463C74.8098 8.99934 74.8098 8.03331 74.8098 6.92928V2.31702C74.8445 1.9831 74.7706 1.64689 74.5992 1.35825C74.4157 1.06763 74.1352 0.851452 73.8075 0.748128C73.446 0.680992 73.0776 0.659036 72.7107 0.68276H62.2587L1.71836 0.457597C1.39272 0.458366 1.07843 0.577364 0.833946 0.79246C0.589457 1.00756 0.431405 1.3041 0.389161 1.62699C0.389161 2.35333 0.389161 3.07967 0.389161 3.80601C0.389161 5.25868 0.389161 6.71136 0.389161 8.16404C0.389161 8.89038 0.389161 9.61672 0.389161 10.3431C0.362112 10.6801 0.376748 11.0192 0.432739 11.3527C0.519724 11.649 0.7072 11.9059 0.962963 12.079C1.22959 12.2531 1.54605 12.3348 1.86363 12.3114H5.02319L21.0971 12.3986L48.313 12.5656L66.6603 12.7109L71.6502 12.769H66.6603H48.313L21.0971 12.6891L5.02319 12.6238H1.86363C1.47044 12.6503 1.07957 12.5455 0.75233 12.326C0.421827 12.097 0.180619 11.7609 0.0695699 11.3745C0.00446935 11.0054 -0.0150472 10.6297 0.0114615 10.2559C0.0114615 9.52956 0.0114615 8.80322 0.0114615 8.07688C0.0114615 6.6242 0.0114615 5.17153 0.0114615 3.71885C0.0114615 2.99251 0.0114615 2.26618 0.0114615 1.50353C0.062811 1.08881 0.263884 0.707142 0.576874 0.430266C0.889865 0.15339 1.29321 0.000374418 1.71109 0L62.2514 0.33411L72.7034 0.414018C73.0926 0.390142 73.4833 0.416989 73.8656 0.493905C74.2429 0.617208 74.5612 0.875982 74.759 1.22024C74.9469 1.54016 75.0283 1.91151 74.9914 2.28069C74.9914 2.62207 74.9914 2.96346 74.9914 3.29031C74.9914 4.60499 74.9914 5.81071 74.9914 6.92201C74.9914 8.0333 74.9914 8.97028 74.9914 9.82736C74.9914 10.2414 74.9914 10.6263 74.9914 10.9822C75.0193 11.3071 74.9669 11.6339 74.8389 11.9337C74.7446 12.1342 74.6082 12.3119 74.439 12.4548C74.2697 12.5977 74.0717 12.7024 73.8583 12.7618C73.688 12.8201 73.5064 12.8375 73.3281 12.8126Z" fill="#E0E0E0"/>
</svg>
