<svg width="3" height="4" viewBox="0 0 3 4" fill="none" xmlns="http://www.w3.org/2000/svg">
<path d="M2.99631 1.60442C3.01064 1.8097 2.98258 2.01574 2.91387 2.20971C2.84516 2.40368 2.73728 2.58144 2.59693 2.73193C2.45658 2.88242 2.28675 3.00242 2.09804 3.08447C1.90933 3.16652 1.70576 3.20884 1.49998 3.20884C1.2942 3.20884 1.09061 3.16652 0.901891 3.08447C0.713177 3.00242 0.543375 2.88242 0.403024 2.73193C0.262673 2.58144 0.154791 2.40368 0.086082 2.20971C0.017373 2.01574 -0.0106876 1.8097 0.00364103 1.60442C-0.0106876 1.39914 0.017373 1.1931 0.086082 0.999135C0.154791 0.805165 0.262673 0.627402 0.403024 0.476913C0.543375 0.326424 0.713177 0.206443 0.901891 0.124395C1.09061 0.0423462 1.2942 0 1.49998 0C1.70576 0 1.90933 0.0423462 2.09804 0.124395C2.28675 0.206443 2.45658 0.326424 2.59693 0.476913C2.73728 0.627402 2.84516 0.805165 2.91387 0.999135C2.98258 1.1931 3.01064 1.39914 2.99631 1.60442Z" fill="#4CAF4F"/>
</svg>
