<svg width="10" height="11" viewBox="0 0 10 11" fill="none" xmlns="http://www.w3.org/2000/svg">
<path opacity="0.1" d="M6.03378 5.60271C6.55827 5.37174 7.00324 4.99164 7.31335 4.5097C7.62345 4.02777 7.78499 3.46527 7.77785 2.89223C7.7974 2.51971 7.74089 2.14712 7.6118 1.79714C7.4827 1.44716 7.28371 1.12713 7.02695 0.856534C6.77018 0.585941 6.46101 0.370455 6.11828 0.223199C5.77554 0.0759427 5.40642 0 5.03339 0C4.66036 0 4.29123 0.0759427 3.9485 0.223199C3.60577 0.370455 3.2966 0.585941 3.03983 0.856534C2.78306 1.12713 2.58408 1.44716 2.45498 1.79714C2.32588 2.14712 2.2694 2.51971 2.28895 2.89223C2.27744 3.47101 2.43767 4.04023 2.74942 4.52801C3.06117 5.01579 3.51045 5.40028 4.04055 5.63292C-0.187502 6.26712 0.00126851 10.8576 0.00126851 10.8576L9.99758 10.9029C9.99758 10.9029 10.2316 6.22937 6.03378 5.60271Z" fill="black"/>
</svg>
