<svg width="3" height="3" viewBox="0 0 3 3" fill="none" xmlns="http://www.w3.org/2000/svg">
<path d="M2.99661 1.60198C2.97673 1.8938 2.87197 2.17346 2.69521 2.40651C2.51845 2.63956 2.27742 2.81585 2.00177 2.91369C1.72611 3.01152 1.42788 3.02663 1.14375 2.95716C0.859617 2.88768 0.601996 2.73664 0.402592 2.52265C0.203188 2.30865 0.0707079 2.04103 0.0214371 1.75271C-0.0278337 1.46439 0.00825662 1.16796 0.125281 0.899892C0.242306 0.631823 0.435147 0.403802 0.68008 0.243916C0.925014 0.0840295 1.21136 -0.000738718 1.50386 4.85012e-06C1.914 0.015189 2.30141 0.192309 2.58121 0.492582C2.86101 0.792854 3.01038 1.19178 2.99661 1.60198Z" fill="#4CAF4F"/>
</svg>
